<?xml version="1.0" encoding="UTF-8"?><svg id="Layer_2" xmlns="http://www.w3.org/2000/svg" viewBox="0 0 49.91 977.27"><defs><style>.cls-1{fill:#fff;stroke-width:0px;}</style></defs><g id="Layer_1-2"><path class="cls-1" d="M0,.36c.01,65.73,1.42,131.45,3.45,197.15,2.02,65.4,4.65,130.77,7.1,196.15,2.4,64.36,4.14,128.68,5.07,193.08.92,63.39,2.15,126.87,8.4,190,2.93,29.56,7.29,58.81,12.71,88.01,5.59,30.07,11.49,60.33,12.34,90.99.2,7.06.08,14.13-.37,21.18-.03.48.72.48.75,0,1.82-28.88-2.25-57.74-7.21-86.12-5.29-30.27-11.27-60.31-14.94-90.84-7.56-62.91-9.5-126.33-10.58-189.63-1.09-64.16-2.2-128.26-4.54-192.38-2.38-65.38-5.05-130.76-7.22-196.15S1.15,90.37.81,24.64c-.04-8.09-.06-16.19-.06-24.28C.75-.12,0-.12,0,.36H0Z"/></g></svg>