<?xml version="1.0" encoding="UTF-8"?><svg id="Layer_2" xmlns="http://www.w3.org/2000/svg" viewBox="0 0 51.22 904.28"><defs><style>.cls-1{fill:#fff;stroke-width:0px;}</style></defs><g id="Layer_1-2"><path class="cls-1" d="M2.79,903.92c-.02-118.66-3.59-237.32-.98-355.98,1.29-58.79,3.61-117.69,10.55-176.12s17.68-116.15,19.85-174.95c1.22-33.15,1.3-66.34,4.14-99.41,2.8-32.63,7.87-65.02,14.88-97,.1-.47-.62-.67-.72-.2-6.03,27.52-10.63,55.33-13.58,83.35-3.09,29.35-3.93,58.81-4.71,88.29-.78,29.76-1.89,59.48-5.73,89.02-3.81,29.36-8.17,58.64-12.01,87.99C-.88,466.35-.57,585.42.37,703.65c.53,66.76,1.66,133.51,1.67,200.27,0,.48.75.48.75,0h0Z"/></g></svg>