<?xml version="1.0" encoding="utf-8"?>
<!-- Generator: Adobe Illustrator 28.3.0, SVG Export Plug-In . SVG Version: 6.00 Build 0)  -->
<svg version="1.1" id="Layer_2_00000153692774352093584010000017512721367169794438_"
	 xmlns="http://www.w3.org/2000/svg" xmlns:xlink="http://www.w3.org/1999/xlink" x="0px" y="0px" viewBox="0 0 162 75"
	 style="enable-background:new 0 0 162 75;" xml:space="preserve">
<style type="text/css">
	.st0{fill:#FFFFFF;}
</style>
<g id="Layer_1-2">
	<path class="st0" d="M7.8,6.8c0,21-1,42,0.1,62.9c0,0.2,0.2,0.3,0.4,0.2c4.6-5.3,13.3-5.2,19.8-5.1c7,0.2,13.9,1.3,20.8,1.3
		c12,0,24,0,35.9,0s23.7-0.2,35.5,0.2c12.5,0.4,25.1,1.3,37.5-1.2c0.3-0.1,0.2-0.5-0.1-0.4c-11.4,2.3-23.1,1.8-34.6,1.3
		s-23.5-0.3-35.3-0.3c-12.3,0-24.6,0-36.9,0c-3.6,0-7-0.1-10.6-0.4s-7.3-0.7-11-0.8c-4.1-0.2-8.3-0.2-12.3,0.6
		c-3.3,0.7-6.8,1.9-9,4.5l0.4,0.2c-1.2-21-0.2-41.9-0.1-62.9C8.3,6.5,7.8,6.5,7.8,6.8L7.8,6.8L7.8,6.8z"/>
</g>
</svg>
