<?xml version="1.0" encoding="utf-8"?>
<!-- Generator: Adobe Illustrator 28.5.0, SVG Export Plug-In . SVG Version: 9.03 Build 54727)  -->
<svg version="1.1" id="Layer_1" xmlns="http://www.w3.org/2000/svg" xmlns:xlink="http://www.w3.org/1999/xlink" x="0px" y="0px"
	 viewBox="0 0 226.1 75.5" style="enable-background:new 0 0 226.1 75.5;" xml:space="preserve">
<style type="text/css">
	.Drop_x0020_Shadow{fill:none;}
	.Round_x0020_Corners_x0020_2_x0020_pt{fill:#FFFFFF;stroke:#000000;stroke-miterlimit:10;}
	.Live_x0020_Reflect_x0020_X{fill:none;}
	.Bevel_x0020_Soft{fill:url(#SVGID_1_);}
	.Dusk{fill:#FFFFFF;}
	.Foliage_GS{fill:#FFDD00;}
	.Pompadour_GS{fill-rule:evenodd;clip-rule:evenodd;fill:#44ADE2;}
	.st0{clip-path:url(#SVGID_00000053533960975129587950000000054186154056731275_);}
	.st1{fill:#ECE8DC;}
</style>
<linearGradient id="SVGID_1_" gradientUnits="userSpaceOnUse" x1="-347.9933" y1="-373.5657" x2="-347.2862" y2="-372.8586">
	<stop  offset="0" style="stop-color:#DEDFE3"/>
	<stop  offset="0.1738" style="stop-color:#D8D9DD"/>
	<stop  offset="0.352" style="stop-color:#C9CACD"/>
	<stop  offset="0.5323" style="stop-color:#B4B5B8"/>
	<stop  offset="0.7139" style="stop-color:#989A9C"/>
	<stop  offset="0.8949" style="stop-color:#797C7E"/>
	<stop  offset="1" style="stop-color:#656B6C"/>
</linearGradient>
<g>
	<defs>
		<rect id="SVGID_00000023975729626414023880000013673377745002634656_" width="226.1" height="75.5"/>
	</defs>
	<clipPath id="SVGID_00000010282601367499658410000010677215168747115952_">
		<use xlink:href="#SVGID_00000023975729626414023880000013673377745002634656_"  style="overflow:visible;"/>
	</clipPath>
	<g style="clip-path:url(#SVGID_00000010282601367499658410000010677215168747115952_);">
		<path class="st1" d="M129.1,37.9c1.1-1.3,1.8-3,1.8-4.8c0-4.1-3.3-7.5-7.5-7.5h-4.2v35.2h4.2c6.6-0.1,12-5.6,12-12.2
			C135.4,44,132.8,40,129.1,37.9 M126.6,33.1c0,1.8-1.5,3.3-3.3,3.3v-6.6C125.2,29.8,126.6,31.3,126.6,33.1 M123.4,56.6v-16
			c4.3,0.1,7.8,3.7,7.8,8S127.7,56.5,123.4,56.6z"/>
		<path class="st1" d="M138.4,42.2c0,11.5,5.7,18.7,14.8,18.7h2.1v-4.2h-2.1c-9.6,0-10.6-10.1-10.6-14.5V38h12.7v-4.2h-12.7v-4h12.7
			v-4.2h-16.9v8.2h-2.2V38h2.2L138.4,42.2L138.4,42.2z"/>
		<path class="st1" d="M75.8,33.8h-2.2V38h2.2v4.2c0,11.5,5.7,18.7,14.8,18.7h2.1v-4.2h-2.1C81,56.6,80,46.5,80,42.2V38h12.7v-4.2
			H80v-4h12.7v-4.2H75.8L75.8,33.8L75.8,33.8z"/>
		<path class="st1" d="M197.2,60.8h2.1V33.8h-8.4V38h4.2v18.5c-6.4-1-11.3-6.6-11.3-13.3c0-7.4,6-13.4,13.4-13.4h2.1v-4.2h-2.1
			c-9.7,0-17.6,7.9-17.6,17.6C179.6,52.9,187.5,60.8,197.2,60.8"/>
		<path class="st1" d="M111.5,30.9c-3-3.4-7.4-5.5-12.2-5.5h-2.1v35.4h4.2v-31c5.7,1,10.1,6,10.1,12v19h4.2V25.6h-4.2L111.5,30.9
			L111.5,30.9z"/>
		<path class="st1" d="M4.2,53.1c2.5,3.9,8.7,7.7,15.2,7.7h2.1v-4.2h-2.1c-4.4,0-8.9-2.4-11-4.9c4.5-2.3,7.5-7,7.5-12.3
			c0-7.6-6.2-13.8-13.8-13.8H0v35.2h4.2V53.1z M11.7,39.4c0,4.6-3.2,8.4-7.5,9.4V30C8.5,31,11.7,34.8,11.7,39.4"/>
		<path class="st1" d="M168.1,51.7c4.5-2.3,7.5-7,7.5-12.3c0-7.6-6.2-13.8-13.8-13.8h-2.1v35.2h4.2v-7.7c2.5,3.9,8.7,7.7,15.2,7.7
			h2.1v-4.2h-2.1C174.7,56.6,170.3,54.3,168.1,51.7 M171.5,39.4c0,4.6-3.2,8.4-7.5,9.4V30C168.2,31,171.5,34.8,171.5,39.4"/>
		<path class="st1" d="M54.6,43.2c0-9.7-7.9-17.6-17.6-17.6c-9.7,0-17.6,7.9-17.6,17.6c0,9.7,7.9,17.6,17.6,17.6
			C46.7,60.8,54.6,52.9,54.6,43.2z M37,56.6c-7.4,0-13.4-6-13.4-13.4s6-13.4,13.4-13.4s13.4,6,13.4,13.4S44.4,56.6,37,56.6z"/>
		<path class="st1" d="M206.9,36.2l2.4-6.2l0.2-0.4c0-0.1,0-0.1,0.1-0.2c0.1-0.2,0.1-0.5,0.1-0.7c0-1.7-1.4-3.1-3.1-3.1
			s-3.1,1.4-3.1,3.1c0,1.4,0.9,2.6,2.2,3l-1.4,3.5L206.9,36.2L206.9,36.2z"/>
		<path class="st1" d="M221.7,41.2c-0.6-0.5-1.1-1-1.7-1.4c-2.8-2.3-4.2-3.6-4.2-6c0-2,1.7-4,4.9-4h2.1v-4.2h-2.1
			c-5.2,0-9,3.5-9,8.2s2.9,6.9,5.7,9.2c0.5,0.4,1.1,0.9,1.6,1.3c2.6,2.3,3.6,5.3,2.5,8.1c-1,2.6-3.4,4.2-6.3,4.2H213v4.2h2.1
			c4.7,0,8.7-2.7,10.3-6.9C227.1,49.5,225.7,44.7,221.7,41.2"/>
		<path class="st1" d="M68.3,41.2c-0.6-0.5-1.1-1-1.7-1.4c-2.8-2.3-4.2-3.6-4.2-6c0-2,1.7-4,4.9-4h2.1v-4.2h-2.1c-5.2,0-9,3.5-9,8.2
			s2.9,6.9,5.7,9.2c0.5,0.4,1.1,0.9,1.6,1.3c2.6,2.3,3.6,5.3,2.5,8.1c-1,2.6-3.4,4.2-6.3,4.2h-2.1v4.2h2.1c4.7,0,8.7-2.7,10.3-6.9
			C73.6,49.5,72.2,44.7,68.3,41.2"/>
		<path class="st1" d="M23.1,21.2l-12.4-2.5l10.2,5.6c-0.6,1.1-1.2,2.3-1.6,3.6L19,29h2.3l0.2-0.3c2-2.2,4.5-3.9,7.2-5.1h0
			c2.6-1.1,5.4-1.7,8.2-1.7c2.9,0,5.7,0.6,8.2,1.7h0c2.7,1.2,5.1,2.9,7.2,5.1l0.3,0.3h2.3l-0.3-1.1c-0.4-1.3-0.9-2.5-1.6-3.6
			l10.2-5.6l-12.5,2.5c-1-1.1-2-2-3.2-2.9l6.4-12l-10.2,9.9c-1.4-0.6-2.9-1-4.5-1.2L37,0l-2.3,15.1c-1.6,0.2-3.1,0.6-4.5,1.1L20,6.4
			l6.4,12C25.2,19.2,24.1,20.1,23.1,21.2 M52.1,26.1c-0.8-0.7-1.7-1.4-2.6-2l0.9-0.8C51,24.1,51.6,25.1,52.1,26.1z M48,23.2
			c-0.6-0.3-1.2-0.6-1.8-0.9l1.3-1.9c0.6,0.5,1.2,1.1,1.8,1.7L48,23.2L48,23.2z M30.1,18.1l1.1,2.9c-0.6,0.2-1.2,0.3-1.7,0.5
			l-1.5-2.3C28.6,18.9,29.3,18.5,30.1,18.1z M31.6,17.5c0.8-0.3,1.6-0.5,2.4-0.6l0.4,3.5c-0.6,0.1-1.1,0.1-1.7,0.3L31.6,17.5z
			 M35.7,16.7c0.4,0,0.8,0,1.3,0c0.4,0,0.8,0,1.3,0l-0.4,3.6c-0.3,0-0.6,0-0.8,0c-0.3,0-0.6,0-0.8,0L35.7,16.7z M39.9,16.9
			c0.8,0.1,1.6,0.3,2.4,0.6l-1.1,3.1c-0.6-0.1-1.1-0.2-1.7-0.3L39.9,16.9z M42.8,21.1l1.1-2.9c0.8,0.3,1.5,0.7,2.2,1.2l-1.5,2.3
			C44,21.4,43.4,21.2,42.8,21.1z M26.5,20.3l1.3,1.9c-0.6,0.3-1.2,0.6-1.8,0.9L24.7,22C25.3,21.4,25.9,20.8,26.5,20.3 M23.6,23.2
			l0.9,0.8c-0.9,0.6-1.8,1.3-2.6,2C22.4,25.1,23,24.1,23.6,23.2z"/>
		<path class="st1" d="M6.4,71.3c0.3-0.2,0.6-0.4,0.7-0.7c0.2-0.3,0.3-0.6,0.3-0.9c0-0.3-0.1-0.6-0.2-0.8c-0.1-0.2-0.4-0.5-0.6-0.6
			c-0.3-0.2-0.6-0.3-1.1-0.4c-0.4-0.1-0.9-0.1-1.5-0.1H0v7.6h4.6c0.6,0,1.1-0.1,1.5-0.2c0.4-0.1,0.8-0.3,1.1-0.5
			c0.3-0.2,0.5-0.5,0.6-0.7C8,73.7,8,73.4,8,73.1c0-0.4-0.1-0.8-0.4-1.1C7.4,71.7,7,71.5,6.4,71.3 M3,68.9h0.3c0.3,0,0.5,0,0.7,0.1
			c0.2,0.1,0.3,0.1,0.5,0.2c0.1,0.1,0.2,0.2,0.2,0.3c0,0.1,0.1,0.2,0.1,0.4c0,0.1,0,0.3-0.1,0.4c-0.1,0.1-0.1,0.2-0.2,0.3
			c-0.1,0.1-0.3,0.2-0.5,0.2c-0.2,0.1-0.4,0.1-0.7,0.1H3L3,68.9L3,68.9z M4.8,73.5c-0.1,0.2-0.2,0.3-0.3,0.4
			c-0.1,0.1-0.3,0.2-0.5,0.3c-0.2,0.1-0.5,0.1-0.8,0.1H3v-2.5h0.5c0.2,0,0.4,0,0.6,0.1C4.3,72,4.4,72,4.6,72.2
			c0.1,0.1,0.2,0.2,0.3,0.4c0.1,0.1,0.1,0.3,0.1,0.5C4.9,73.2,4.9,73.3,4.8,73.5"/>
		<path class="st1" d="M13.8,67.8l0.9,1.9l-2.8,5.7h1.3l0.6-1.2h3l0.6,1.2h3.3l-3.7-7.6H13.8L13.8,67.8z M14.3,73l1-2.1l1,2.1H14.3z
			"/>
		<path class="st1" d="M33,71.7h-3v2.6c-0.3,0-0.7-0.1-1-0.2c-0.3-0.1-0.6-0.3-0.8-0.5c-0.2-0.2-0.4-0.5-0.5-0.8
			c-0.1-0.3-0.2-0.7-0.2-1.1c0-0.4,0.1-0.8,0.2-1.1c0.1-0.3,0.3-0.6,0.5-0.8c0.2-0.2,0.5-0.4,0.8-0.5c0.3-0.1,0.6-0.2,1-0.2
			c0.3,0,0.5,0,0.8,0.1c0.2,0.1,0.5,0.1,0.7,0.2l0.4-0.9c-0.2-0.1-0.4-0.2-0.6-0.3c-0.2-0.1-0.4-0.2-0.7-0.2
			c-0.2-0.1-0.5-0.1-0.8-0.2c-0.3,0-0.6-0.1-0.9-0.1c-0.5,0-0.9,0-1.3,0.1c-0.4,0.1-0.8,0.2-1.1,0.4c-0.3,0.2-0.6,0.4-0.9,0.6
			c-0.3,0.2-0.5,0.5-0.7,0.8c-0.2,0.3-0.3,0.6-0.4,0.9c-0.1,0.3-0.1,0.7-0.1,1c0,0.5,0.1,1,0.3,1.5c0.2,0.5,0.5,0.9,0.9,1.3
			c0.4,0.4,0.9,0.6,1.4,0.8c0.6,0.2,1.2,0.3,1.9,0.3c0.4,0,0.7,0,1-0.1c0.3,0,0.7-0.1,1-0.2c0.3-0.1,0.6-0.2,0.8-0.2
			c0.2-0.1,0.5-0.2,0.6-0.3v0l0-2.1L33,71.7L33,71.7z"/>
		<path class="st1" d="M37.3,75.4h6.4v-1.2h-3.5v-2h2.7V71h-2.7l0-2.1h3.5v-1.2h-6.4V75.4z"/>
		<path class="st1" d="M51.3,67.8h-3v7.6h5.9v-1.2h-2.9L51.3,67.8z"/>
		<path class="st1" d="M63.4,70.6l-0.6-0.2c-0.2-0.1-0.4-0.1-0.5-0.2C62.2,70.1,62,70,62,70c-0.1-0.1-0.1-0.1-0.2-0.2
			c0-0.1-0.1-0.1-0.1-0.2c0-0.1,0-0.2,0.1-0.3c0-0.1,0.1-0.2,0.2-0.2c0.1-0.1,0.2-0.1,0.3-0.2c0.1,0,0.3-0.1,0.4-0.1
			c0.1,0,0.2,0,0.3,0c0.1,0,0.2,0,0.4,0.1c0.1,0,0.2,0.1,0.4,0.1c0.1,0.1,0.2,0.1,0.3,0.2l0.6-1c-0.1-0.1-0.3-0.1-0.5-0.2
			c-0.2-0.1-0.4-0.1-0.7-0.2c-0.2-0.1-0.5-0.1-0.8-0.1c-0.3,0-0.6-0.1-0.8-0.1c-0.6,0-1.1,0.1-1.6,0.2c-0.4,0.1-0.8,0.3-1.1,0.6
			c-0.3,0.2-0.5,0.5-0.6,0.8c-0.1,0.3-0.2,0.6-0.2,1c0,0.5,0.2,1,0.5,1.4c0.3,0.4,0.8,0.7,1.5,0.9l0.9,0.3c0.2,0.1,0.3,0.1,0.4,0.2
			c0.1,0.1,0.2,0.1,0.3,0.2c0.1,0.1,0.1,0.1,0.1,0.2c0,0.1,0,0.1,0,0.2c0,0.2-0.1,0.3-0.3,0.5c-0.2,0.1-0.5,0.2-0.9,0.2
			c-0.3,0-0.7,0-1.1-0.1c-0.4-0.1-0.8-0.2-1.1-0.4l-0.6,1c0.3,0.1,0.5,0.2,0.8,0.3c0.3,0.1,0.5,0.2,0.8,0.2c0.3,0.1,0.6,0.1,0.9,0.1
			c0.3,0,0.6,0,0.9,0c0.7,0,1.2-0.1,1.7-0.2c0.5-0.1,0.9-0.3,1.2-0.5c0.3-0.2,0.6-0.5,0.8-0.8c0.2-0.3,0.3-0.7,0.3-1
			c0-0.6-0.2-1-0.5-1.4C64.6,71.1,64.1,70.8,63.4,70.6"/>
		<path class="st1" d="M82.6,71.5c0.1,0.4,0.2,0.7,0.1,1c0,0.3-0.1,0.6-0.2,0.8c-0.1,0.2-0.2,0.4-0.4,0.6c-0.2,0.2-0.4,0.3-0.6,0.4
			c-0.2,0.1-0.5,0.1-0.7,0.1c-0.2,0-0.4,0-0.7-0.1c-0.2-0.1-0.4-0.2-0.5-0.3c-0.2-0.1-0.3-0.3-0.4-0.5c-0.1-0.2-0.1-0.4-0.1-0.6
			c0-0.2,0-0.4,0.1-0.6c0.1-0.2,0.2-0.4,0.4-0.5c0.2-0.1,0.4-0.3,0.7-0.4c0.3-0.1,0.6-0.1,0.9-0.1h0l0.3-0.8c-0.3,0-0.5-0.1-0.7-0.1
			c-0.2-0.1-0.3-0.1-0.5-0.2c-0.1-0.1-0.2-0.2-0.3-0.3c-0.1-0.1-0.1-0.2-0.1-0.3c0-0.2,0.1-0.4,0.3-0.5c0.2-0.1,0.4-0.2,0.8-0.2
			c0.1,0,0.3,0,0.5,0c0.2,0,0.3,0.1,0.5,0.1l0.3-0.8c-0.3-0.1-0.6-0.2-1-0.2c-0.4-0.1-0.7-0.1-1.1-0.1c-0.4,0-0.9,0-1.2,0.1
			c-0.4,0.1-0.7,0.2-1,0.3c-0.3,0.1-0.5,0.3-0.6,0.5c-0.1,0.2-0.2,0.4-0.2,0.7c0,0.1,0,0.2,0.1,0.4c0,0.1,0.1,0.2,0.2,0.3
			c0.1,0.1,0.2,0.2,0.3,0.3c0.1,0.1,0.3,0.2,0.5,0.3c-0.3,0.1-0.6,0.3-0.8,0.4c-0.2,0.2-0.4,0.3-0.6,0.5c-0.2,0.2-0.3,0.4-0.3,0.6
			c-0.1,0.2-0.1,0.5-0.1,0.7c0,0.2,0,0.4,0.1,0.6c0.1,0.2,0.2,0.4,0.3,0.6c0.1,0.2,0.3,0.4,0.5,0.5c0.2,0.2,0.4,0.3,0.7,0.4
			c0.3,0.1,0.6,0.2,0.9,0.3c0.3,0.1,0.7,0.1,1.1,0.1c0.5,0,1-0.1,1.4-0.2c0.4-0.1,0.8-0.3,1.1-0.5c0.3-0.2,0.5-0.4,0.7-0.7
			s0.3-0.6,0.4-0.9c0.1-0.3,0.1-0.6,0.1-1c0-0.3-0.1-0.7-0.2-1h0.9l0.4-1.1h-2.7C82.3,70.7,82.5,71.1,82.6,71.5"/>
		<path class="st1" d="M102.4,68.7c-0.4-0.3-1-0.6-1.6-0.7c-0.6-0.2-1.4-0.2-2.3-0.2h-3.1v7.6h3.1c0.9,0,1.6-0.1,2.3-0.3
			c0.6-0.2,1.2-0.5,1.6-0.8c0.4-0.3,0.7-0.8,0.9-1.2s0.3-1,0.3-1.5c0-0.6-0.1-1.1-0.3-1.6C103.2,69.5,102.9,69.1,102.4,68.7
			 M100.4,72.8c-0.1,0.3-0.2,0.6-0.4,0.9c-0.2,0.2-0.4,0.4-0.7,0.5c-0.3,0.1-0.6,0.2-0.9,0.2v-5.4c0.3,0,0.6,0,0.9,0.1
			c0.3,0.1,0.5,0.3,0.7,0.5c0.2,0.2,0.3,0.5,0.4,0.8c0.1,0.3,0.2,0.7,0.2,1.2C100.6,72,100.5,72.4,100.4,72.8"/>
		<path class="st1" d="M108.3,75.4h6.4v-1.2h-3.5v-2h2.7V71h-2.7l0-2.1h3.5v-1.2h-6.4V75.4z"/>
		<path class="st1" d="M122.4,67.8h-3v7.6h5.9v-1.2h-2.9L122.4,67.8z"/>
		<path class="st1" d="M129.7,75.4h3l0-7.6h-3V75.4z"/>
		<path class="st1" d="M141.1,69.6c0.2-0.2,0.5-0.4,0.8-0.5c0.3-0.1,0.6-0.2,1-0.2c0.3,0,0.5,0,0.8,0.1c0.2,0.1,0.5,0.1,0.7,0.2
			l0.4-0.9c-0.2-0.1-0.4-0.2-0.6-0.3c-0.2-0.1-0.4-0.2-0.7-0.2c-0.2-0.1-0.5-0.1-0.8-0.2c-0.3,0-0.6-0.1-0.9-0.1
			c-0.5,0-0.9,0-1.3,0.1c-0.4,0.1-0.8,0.2-1.1,0.4c-0.3,0.2-0.6,0.4-0.9,0.6c-0.3,0.2-0.5,0.5-0.7,0.8c-0.2,0.3-0.3,0.6-0.4,0.9
			c-0.1,0.3-0.1,0.7-0.1,1c0,0.5,0.1,1,0.3,1.5c0.2,0.5,0.5,0.9,0.9,1.3c0.4,0.4,0.9,0.6,1.4,0.8c0.6,0.2,1.2,0.3,1.9,0.3
			c0.3,0,0.6,0,0.9-0.1c0.3,0,0.5-0.1,0.8-0.2c0.2-0.1,0.5-0.1,0.7-0.2c0.2-0.1,0.4-0.2,0.6-0.3l-0.4-0.9c-0.2,0.1-0.4,0.2-0.7,0.2
			c-0.2,0.1-0.5,0.1-0.7,0.1c-0.3,0-0.7-0.1-1-0.2c-0.3-0.1-0.6-0.3-0.8-0.5c-0.2-0.2-0.4-0.5-0.5-0.8c-0.1-0.3-0.2-0.7-0.2-1.1
			c0-0.4,0.1-0.8,0.2-1.1C140.7,70.1,140.9,69.8,141.1,69.6"/>
		<path class="st1" d="M150.3,67.8l0.9,1.9l-2.8,5.7h1.3l0.6-1.2h3l0.6,1.2h3.3l-3.7-7.6H150.3L150.3,67.8z M150.8,73l1-2.1l1,2.1
			H150.8z"/>
		<path class="st1" d="M160.5,68.9h2.2v6.4h3v-6.4h2.2v-1.2h-7.3V68.9z"/>
		<path class="st1" d="M172.1,75.4h6.4v-1.2H175v-2h2.7V71H175l0-2.1h3.5v-1.2h-6.4V75.4z"/>
		<path class="st1" d="M188,70.6l-0.6-0.2c-0.2-0.1-0.4-0.1-0.5-0.2c-0.1-0.1-0.3-0.1-0.3-0.2c-0.1-0.1-0.1-0.1-0.2-0.2
			c0-0.1-0.1-0.1-0.1-0.2c0-0.1,0-0.2,0.1-0.3c0-0.1,0.1-0.2,0.2-0.2s0.2-0.1,0.3-0.2c0.1,0,0.3-0.1,0.4-0.1c0.1,0,0.2,0,0.3,0
			c0.1,0,0.2,0,0.4,0.1c0.1,0,0.2,0.1,0.4,0.1c0.1,0.1,0.2,0.1,0.3,0.2l0.6-1c-0.1-0.1-0.3-0.1-0.5-0.2c-0.2-0.1-0.4-0.1-0.7-0.2
			c-0.2-0.1-0.5-0.1-0.8-0.1c-0.3,0-0.6-0.1-0.8-0.1c-0.6,0-1.1,0.1-1.6,0.2c-0.4,0.1-0.8,0.3-1.1,0.6s-0.5,0.5-0.7,0.8
			c-0.1,0.3-0.2,0.6-0.2,1c0,0.5,0.2,1,0.5,1.4c0.3,0.4,0.8,0.7,1.5,0.9l0.9,0.3c0.2,0.1,0.3,0.1,0.4,0.2c0.1,0.1,0.2,0.1,0.3,0.2
			c0.1,0.1,0.1,0.1,0.1,0.2c0,0.1,0,0.1,0,0.2c0,0.2-0.1,0.3-0.3,0.5c-0.2,0.1-0.5,0.2-0.9,0.2c-0.3,0-0.7,0-1.1-0.1
			c-0.4-0.1-0.8-0.2-1.1-0.4l-0.6,1c0.3,0.1,0.5,0.2,0.8,0.3c0.3,0.1,0.5,0.2,0.8,0.2c0.3,0.1,0.6,0.1,0.9,0.1c0.3,0,0.6,0,0.9,0
			c0.7,0,1.2-0.1,1.7-0.2c0.5-0.1,0.9-0.3,1.2-0.5c0.3-0.2,0.6-0.5,0.8-0.8c0.2-0.3,0.3-0.7,0.3-1c0-0.6-0.2-1-0.5-1.4
			S188.7,70.8,188,70.6"/>
		<path class="st1" d="M199.5,70.6l-0.6-0.2c-0.2-0.1-0.4-0.1-0.5-0.2c-0.1-0.1-0.3-0.1-0.3-0.2c-0.1-0.1-0.1-0.1-0.2-0.2
			c0-0.1-0.1-0.1-0.1-0.2c0-0.1,0-0.2,0.1-0.3c0-0.1,0.1-0.2,0.2-0.2c0.1-0.1,0.2-0.1,0.3-0.2c0.1,0,0.3-0.1,0.4-0.1
			c0.1,0,0.2,0,0.3,0s0.2,0,0.4,0.1c0.1,0,0.2,0.1,0.4,0.1c0.1,0.1,0.2,0.1,0.3,0.2l0.6-1c-0.2-0.1-0.3-0.1-0.5-0.2
			c-0.2-0.1-0.4-0.1-0.7-0.2c-0.2-0.1-0.5-0.1-0.8-0.1c-0.3,0-0.6-0.1-0.8-0.1c-0.6,0-1.1,0.1-1.6,0.2c-0.4,0.1-0.8,0.3-1.1,0.6
			c-0.3,0.2-0.5,0.5-0.7,0.8c-0.1,0.3-0.2,0.6-0.2,1c0,0.5,0.2,1,0.5,1.4c0.3,0.4,0.8,0.7,1.5,0.9l0.9,0.3c0.2,0.1,0.3,0.1,0.4,0.2
			c0.1,0.1,0.2,0.1,0.3,0.2c0.1,0.1,0.1,0.1,0.1,0.2c0,0.1,0,0.1,0,0.2c0,0.2-0.1,0.3-0.3,0.5c-0.2,0.1-0.5,0.2-0.9,0.2
			c-0.3,0-0.7,0-1.1-0.1c-0.4-0.1-0.8-0.2-1.1-0.4l-0.6,1c0.3,0.1,0.5,0.2,0.8,0.3c0.3,0.1,0.5,0.2,0.8,0.2c0.3,0.1,0.6,0.1,0.9,0.1
			c0.3,0,0.6,0,0.9,0c0.7,0,1.2-0.1,1.7-0.2c0.5-0.1,0.9-0.3,1.2-0.5c0.3-0.2,0.6-0.5,0.8-0.8c0.2-0.3,0.3-0.7,0.3-1
			c0-0.6-0.2-1-0.5-1.4C200.7,71.1,200.2,70.8,199.5,70.6"/>
		<path class="st1" d="M206.1,75.4h6.4v-1.2h-3.5v-2h2.7V71h-2.7l0-2.1h3.5v-1.2h-6.4V75.4z"/>
		<path class="st1" d="M223.9,71.8l-4.8-4.1h-1.9v7.6h1.1v-4l4.8,4h1.9v-7.6h-1.1L223.9,71.8z"/>
	</g>
</g>
</svg>
