<?xml version="1.0" encoding="UTF-8"?><svg id="Layer_2" xmlns="http://www.w3.org/2000/svg" viewBox="0 0 603.4 201.5"><defs><style>.cls-1{fill:#114d45;stroke-width:0px;}</style></defs><g id="Layer_1-2"><path class="cls-1" d="M344.45,101.21c2.95-3.49,4.75-7.99,4.75-12.91,0-11-8.92-19.95-19.91-20h0s-11.19,0-11.19,0v94.07h11.19c17.7-.35,31.99-14.84,31.99-32.62,0-12.27-6.81-22.96-16.83-28.53M338.01,88.3c0,4.83-3.9,8.76-8.72,8.82v-17.63c4.82.06,8.72,3.99,8.72,8.82M329.3,151.15v-42.8c11.53.34,20.81,9.8,20.81,21.4s-9.28,21.06-20.81,21.4"/><path class="cls-1" d="M369.32,112.54c0,30.74,15.15,49.83,39.54,49.83h5.59v-11.19h-5.59c-25.59,0-28.36-27.02-28.36-38.64v-11.2h33.95v-11.19h-33.95v-10.66h33.95v-11.19h-45.14v21.85h-5.82v11.19h5.82v11.2Z"/><path class="cls-1" d="M202.36,90.15h-5.82v11.19h5.82v11.2c0,30.74,15.15,49.83,39.54,49.83h5.59v-11.19h-5.59c-25.59,0-28.36-27.03-28.36-38.64v-11.2h33.95v-11.19h-33.95v-10.66h33.95v-11.19h-45.14v21.85Z"/><path class="cls-1" d="M526.36,162.37h5.59v-72.22h-22.41v11.19h11.23v49.41c-17.12-2.69-30.25-17.55-30.25-35.41,0-19.77,16.08-35.85,35.85-35.85h5.59v-11.19h-5.59c-25.93,0-47.04,21.1-47.04,47.04s21.1,47.04,47.04,47.04"/><path class="cls-1" d="M297.68,82.55c-8.02-8.95-19.66-14.59-32.59-14.59h-5.59v94.41h11.19v-82.73c15.32,2.66,27,16.04,27,32.1v50.63h11.19v-94.07h-11.19v14.25Z"/><path class="cls-1" d="M11.19,141.75c6.71,10.42,23.09,20.62,40.66,20.62h5.59v-11.19h-5.59c-11.79,0-23.64-6.29-29.47-13.11,11.94-6.12,20.13-18.55,20.13-32.86,0-20.35-16.56-36.91-36.91-36.91H0v94.07h11.19v-20.62ZM31.32,105.21c0,12.27-8.63,22.55-20.13,25.11v-50.23c11.5,2.56,20.13,12.85,20.13,25.11"/><path class="cls-1" d="M448.66,138.07c11.94-6.12,20.13-18.55,20.13-32.86,0-20.35-16.56-36.91-36.91-36.91h-5.59v94.07s11.19,0,11.19,0v-20.62c6.71,10.42,23.09,20.62,40.66,20.62h5.59v-11.19h-5.59c-11.79,0-23.64-6.29-29.47-13.11M457.61,105.21c0,12.27-8.63,22.55-20.13,25.11v-50.23c11.5,2.56,20.13,12.85,20.13,25.11"/><path class="cls-1" d="M145.76,115.33c0-25.94-21.1-47.04-47.04-47.04s-47.04,21.1-47.04,47.04,21.1,47.04,47.04,47.04,47.04-21.1,47.04-47.04M98.73,151.18c-19.77,0-35.85-16.08-35.85-35.85s16.08-35.85,35.85-35.85,35.85,16.08,35.85,35.85-16.08,35.85-35.85,35.85"/><path class="cls-1" d="M552.27,96.59l6.48-16.55.47-1.2c.06-.18.11-.37.15-.57.14-.59.21-1.21.21-1.85,0-4.63-3.76-8.38-8.39-8.38s-8.38,3.75-8.38,8.38c0,3.75,2.44,6.91,5.82,7.99l-3.65,9.32,7.3,2.85Z"/><path class="cls-1" d="M591.73,110c-1.55-1.35-3.06-2.6-4.52-3.81-7.35-6.07-11.19-9.54-11.19-15.95,0-5.34,4.45-10.75,12.96-10.75h5.59v-11.19h-5.59c-13.76,0-24.14,9.43-24.14,21.94s7.76,18.38,15.25,24.58c1.4,1.16,2.85,2.35,4.27,3.6,7.01,6.14,9.53,14.22,6.75,21.63-2.58,6.87-9.07,11.14-16.92,11.14h-5.6v11.19h5.6c12.44,0,23.2-7.22,27.4-18.39,4.42-11.76.65-24.78-9.85-33.98"/><path class="cls-1" d="M182.23,110c-1.55-1.35-3.06-2.6-4.52-3.81-7.35-6.07-11.19-9.54-11.19-15.95,0-5.34,4.45-10.75,12.96-10.75h5.6v-11.19h-5.6c-13.76,0-24.14,9.43-24.14,21.94s7.76,18.38,15.25,24.58c1.4,1.16,2.85,2.35,4.27,3.6,7.01,6.14,9.53,14.22,6.75,21.63-2.58,6.87-9.07,11.14-16.92,11.14h-5.6v11.19h5.6c12.44,0,23.2-7.22,27.4-18.39,4.42-11.76.65-24.78-9.85-33.98"/><path class="cls-1" d="M61.76,56.58l-33.12-6.61,27.19,14.92c-1.71,3.02-3.13,6.26-4.2,9.7l-.91,2.9h6.18l.66-.73c5.37-5.89,11.91-10.49,19.09-13.59h.02c6.88-2.98,14.36-4.57,21.99-4.57s15.1,1.59,21.99,4.56h.02s0,0,0,0c7.19,3.1,13.72,7.7,19.09,13.6l.67.73h6.18l-.91-2.9c-1.06-3.41-2.47-6.62-4.16-9.63l27.32-14.99-33.26,6.63c-2.54-2.88-5.4-5.43-8.51-7.63l17.04-32-27.19,26.52c-3.81-1.51-7.84-2.56-12.02-3.08L98.73,0l-6.21,40.4c-4.18.51-8.2,1.55-12.01,3.05l-27.15-26.47,17,31.92c-3.15,2.21-6.04,4.78-8.61,7.68M138.97,69.65c-2.2-1.99-4.54-3.79-6.99-5.42l2.31-2.18c1.79,2.35,3.37,4.89,4.68,7.6M128.02,61.8c-1.57-.88-3.19-1.69-4.84-2.43l3.4-5.17c1.7,1.36,3.31,2.83,4.8,4.42l-3.37,3.18ZM80.22,48.42l2.84,7.8c-1.57.42-3.12.91-4.66,1.46l-4.01-6.09c1.86-1.19,3.8-2.26,5.83-3.17M84.4,46.82c2.1-.7,4.26-1.24,6.48-1.63l1.09,9.33c-1.52.17-3.03.39-4.52.67l-3.05-8.37ZM95.32,44.62c1.11-.08,2.23-.13,3.35-.13s2.24.05,3.35.13l-1.12,9.56c-.74-.03-1.49-.05-2.23-.05s-1.49.02-2.23.05l-1.12-9.56ZM106.46,45.19c2.22.39,4.38.93,6.48,1.63l-3.05,8.37c-1.49-.28-3.01-.5-4.52-.67l1.09-9.33ZM114.29,56.21l2.84-7.79c2.03.91,3.97,1.98,5.82,3.17l-4.01,6.09c-1.53-.55-3.08-1.04-4.65-1.47M70.76,54.2l3.4,5.17c-1.65.74-3.26,1.55-4.84,2.43l-3.37-3.18c1.49-1.59,3.1-3.07,4.8-4.42M63.06,62.05l2.31,2.18c-2.45,1.63-4.8,3.44-7,5.43,1.31-2.72,2.89-5.26,4.69-7.61"/><path class="cls-1" d="M17.21,190.35c.87-.52,1.53-1.14,1.98-1.85.45-.72.68-1.48.68-2.29s-.19-1.55-.57-2.21c-.38-.66-.96-1.23-1.72-1.7-.76-.47-1.71-.83-2.85-1.09-1.14-.25-2.46-.38-3.97-.38H0v20.33h12.39c1.51,0,2.84-.17,3.97-.51,1.13-.34,2.07-.79,2.82-1.36.75-.57,1.32-1.21,1.7-1.95.38-.73.57-1.48.57-2.27,0-1.15-.35-2.12-1.05-2.92-.71-.79-1.77-1.39-3.19-1.81M7.92,183.82h.83c.75,0,1.38.07,1.89.22.51.14.92.34,1.23.58.31.24.52.52.66.84.13.32.2.65.2,1s-.07.68-.2,1c-.14.32-.35.6-.66.85-.31.25-.72.44-1.23.58-.51.14-1.14.21-1.89.21h-.85v-5.28ZM12.92,196.15c-.16.41-.41.76-.75,1.06-.34.3-.8.54-1.35.71-.56.17-1.24.26-2.05.26h-.85v-6.61h1.42c.62,0,1.17.09,1.64.28.47.19.87.43,1.2.74.32.31.57.66.73,1.05.16.39.25.8.25,1.21,0,.47-.08.9-.23,1.31"/><path class="cls-1" d="M36.9,180.83l2.36,5.13-7.47,15.21h3.46l1.49-3.26h8.02l1.5,3.26h8.93l-9.96-20.34h-8.34ZM38.19,194.79l2.56-5.58,2.57,5.58h-5.13Z"/><path class="cls-1" d="M87.98,191.28h-7.98v6.88c-.93,0-1.79-.17-2.59-.51-.8-.34-1.49-.83-2.06-1.45-.58-.62-1.04-1.38-1.36-2.26-.33-.88-.49-1.86-.49-2.95s.17-2.08.5-2.96c.33-.88.79-1.63,1.37-2.25.58-.62,1.28-1.1,2.08-1.43.8-.34,1.67-.51,2.61-.51.7,0,1.38.08,2.03.25.65.17,1.23.38,1.74.62l1.17-2.3c-.44-.25-.95-.5-1.5-.73-.55-.23-1.15-.44-1.8-.62-.65-.18-1.34-.32-2.07-.42-.73-.1-1.5-.15-2.3-.15-1.25,0-2.42.13-3.51.37-1.08.25-2.07.6-2.97,1.06-.9.46-1.7,1-2.4,1.64-.7.64-1.29,1.35-1.78,2.12-.48.78-.85,1.62-1.1,2.51-.25.9-.38,1.83-.38,2.8,0,1.44.28,2.8.84,4.07.56,1.27,1.37,2.38,2.41,3.34,1.05.96,2.32,1.71,3.83,2.26,1.5.55,3.18.83,5.06.83.96,0,1.89-.06,2.8-.18.91-.12,1.77-.27,2.58-.47.81-.19,1.54-.42,2.2-.66.66-.24,1.21-.5,1.65-.76v-.03s-.01-5.53-.01-5.53l1.42-2.59Z"/><polygon class="cls-1" points="99.44 201.16 116.62 201.16 116.62 198.03 107.34 198.03 107.34 192.58 114.43 192.58 114.43 189.45 107.34 189.45 107.36 183.96 116.62 183.96 116.62 180.83 99.44 180.83 99.44 201.16"/><polygon class="cls-1" points="137.01 180.83 129.09 180.83 129.09 201.16 144.76 201.16 144.76 198.03 136.99 198.03 137.01 180.83"/><path class="cls-1" d="M169.32,188.33l-1.64-.55c-.56-.19-1.04-.38-1.41-.55-.38-.18-.68-.36-.92-.54-.23-.18-.4-.36-.49-.55-.09-.19-.14-.38-.14-.58,0-.23.06-.46.17-.69s.28-.44.51-.63.5-.34.83-.45.71-.17,1.15-.17c.25,0,.54.02.85.07.31.05.63.11.95.21.32.09.65.2.97.34.32.14.63.3.92.48l1.48-2.67c-.4-.18-.87-.37-1.39-.56-.53-.19-1.11-.35-1.75-.5-.63-.14-1.31-.26-2.03-.35-.72-.09-1.47-.14-2.26-.14-1.59,0-2.97.19-4.15.57-1.18.38-2.16.9-2.94,1.54-.77.64-1.35,1.39-1.73,2.23-.39.84-.58,1.72-.58,2.63,0,1.41.44,2.63,1.33,3.66.88,1.03,2.2,1.84,3.95,2.44l2.45.83c.47.16.86.33,1.16.5.3.17.53.34.69.5.17.17.28.34.34.51.06.17.09.34.09.51,0,.52-.24.93-.73,1.23-.49.3-1.26.45-2.31.45-.91,0-1.9-.12-2.95-.37-1.06-.25-2.07-.62-3.04-1.11l-1.6,2.72c.72.35,1.44.66,2.16.93.72.26,1.45.48,2.2.66.74.17,1.5.3,2.29.39.78.09,1.59.13,2.43.13,1.75,0,3.29-.17,4.62-.51,1.33-.34,2.44-.82,3.33-1.43.89-.62,1.57-1.35,2.02-2.2.45-.85.68-1.78.68-2.78,0-1.48-.47-2.74-1.41-3.78-.94-1.04-2.3-1.86-4.08-2.45"/><path class="cls-1" d="M220.47,190.77c.28.97.42,1.86.4,2.65-.02.8-.17,1.5-.44,2.12-.28.62-.65,1.13-1.1,1.55-.46.42-.98.74-1.57.96-.59.22-1.21.33-1.86.33s-1.2-.1-1.75-.3c-.55-.2-1.03-.49-1.43-.85-.41-.36-.72-.81-.96-1.32-.23-.52-.35-1.09-.35-1.72s.11-1.17.34-1.7c.23-.53.57-1,1.04-1.39.47-.4,1.05-.71,1.74-.95.69-.23,1.51-.35,2.44-.35h.01l.7-2.19c-.71-.07-1.32-.19-1.82-.38-.5-.18-.91-.4-1.24-.66-.32-.25-.56-.52-.71-.81-.15-.29-.23-.58-.23-.88,0-.55.24-.99.72-1.31.48-.33,1.17-.49,2.07-.49.39,0,.81.04,1.26.11.45.07.89.19,1.34.34l.75-2.19c-.83-.27-1.73-.49-2.69-.64-.96-.15-1.95-.23-2.97-.23-1.2,0-2.29.11-3.29.32-1,.21-1.86.52-2.57.91-.72.39-1.27.87-1.67,1.42-.4.56-.59,1.18-.59,1.88,0,.33.05.65.14.97.1.32.25.63.47.93.22.3.5.59.85.86.35.27.78.52,1.28.75-.86.31-1.6.68-2.23,1.12-.63.44-1.15.92-1.56,1.46-.42.53-.73,1.1-.93,1.71-.21.61-.31,1.23-.31,1.88,0,.58.09,1.14.28,1.7.19.56.47,1.09.84,1.59.38.5.84.97,1.4,1.4.55.43,1.2.8,1.94,1.12.74.31,1.56.56,2.48.74.92.18,1.92.27,3.02.27,1.46,0,2.74-.15,3.84-.47,1.1-.31,2.05-.73,2.82-1.26.78-.54,1.4-1.16,1.87-1.88.47-.72.81-1.49,1.01-2.31.2-.82.27-1.67.23-2.55-.05-.88-.21-1.74-.47-2.59h2.37l.97-2.83h-7.33c.68,1.14,1.16,2.19,1.45,3.17"/><path class="cls-1" d="M273.41,183.44c-1.13-.86-2.56-1.51-4.28-1.95-1.72-.44-3.76-.66-6.12-.66h-8.36v20.33h8.36c2.35,0,4.39-.26,6.12-.79,1.72-.53,3.15-1.26,4.28-2.18,1.13-.93,1.97-2.01,2.52-3.26.55-1.25.82-2.59.82-4.03,0-1.62-.27-3.05-.82-4.29-.55-1.25-1.39-2.3-2.52-3.16M268.04,194.18c-.27.92-.66,1.67-1.16,2.27-.5.59-1.12,1.03-1.85,1.31-.73.28-1.55.43-2.46.43v-14.36c.91,0,1.72.13,2.44.39.73.26,1.34.67,1.85,1.24.51.57.9,1.3,1.18,2.2.27.89.41,1.97.41,3.24s-.14,2.37-.4,3.29"/><polygon class="cls-1" points="289.16 201.16 306.35 201.16 306.35 198.03 297.07 198.03 297.07 192.58 304.16 192.58 304.16 189.45 297.07 189.45 297.08 183.96 306.35 183.96 306.35 180.83 289.16 180.83 289.16 201.16"/><polygon class="cls-1" points="326.73 180.83 318.82 180.83 318.82 201.16 334.49 201.16 334.49 198.03 326.72 198.03 326.73 180.83"/><polygon class="cls-1" points="346.14 201.16 354.05 201.16 354.06 180.83 346.14 180.83 346.14 201.16"/><path class="cls-1" d="M376.64,185.78c.58-.62,1.28-1.1,2.08-1.44.8-.34,1.67-.5,2.61-.5.7,0,1.38.08,2.03.25.65.17,1.23.38,1.74.62l1.18-2.3c-.45-.25-.95-.5-1.5-.73-.55-.23-1.15-.44-1.8-.62-.65-.18-1.34-.32-2.07-.42-.73-.1-1.5-.15-2.3-.15-1.25,0-2.42.13-3.5.38-1.08.25-2.08.6-2.97,1.06-.9.46-1.7,1-2.4,1.64-.71.64-1.3,1.34-1.78,2.12-.49.77-.85,1.61-1.1,2.51-.25.9-.38,1.83-.38,2.8,0,1.44.28,2.8.84,4.07.56,1.27,1.37,2.38,2.41,3.34,1.05.95,2.32,1.71,3.82,2.26,1.5.55,3.19.83,5.06.83.8,0,1.57-.05,2.3-.15.73-.1,1.41-.24,2.05-.42.64-.18,1.23-.38,1.78-.61.55-.23,1.05-.48,1.49-.74l-1.18-2.3c-.55.27-1.15.48-1.8.64-.66.16-1.31.24-1.97.24-.93,0-1.8-.17-2.6-.51-.8-.34-1.48-.83-2.06-1.45-.58-.62-1.03-1.38-1.36-2.25-.33-.88-.49-1.86-.49-2.95s.17-2.08.5-2.96c.33-.88.79-1.63,1.38-2.25"/><path class="cls-1" d="M401.11,180.83l2.35,5.13-7.47,15.21h3.46l1.49-3.26h8.02l1.5,3.26h8.93l-9.96-20.34h-8.33ZM402.39,194.79l2.56-5.58,2.57,5.58h-5.13Z"/><polygon class="cls-1" points="428.36 183.95 434.16 183.95 434.16 201.16 442.07 201.16 442.07 183.95 447.87 183.95 447.87 180.82 428.36 180.82 428.36 183.95"/><polygon class="cls-1" points="459.25 201.16 476.43 201.16 476.43 198.03 467.16 198.03 467.16 192.58 474.24 192.58 474.24 189.45 467.16 189.45 467.17 183.96 476.43 183.96 476.43 180.83 459.25 180.83 459.25 201.16"/><path class="cls-1" d="M501.8,188.33l-1.64-.55c-.57-.19-1.04-.38-1.42-.55-.38-.18-.68-.36-.92-.54-.23-.18-.4-.36-.49-.55-.09-.19-.14-.38-.14-.58,0-.23.06-.46.17-.69.11-.23.28-.44.51-.63.23-.19.5-.34.83-.45.33-.11.71-.17,1.15-.17.25,0,.54.02.85.07.31.05.63.11.95.21.32.09.65.2.97.34.32.14.63.3.92.48l1.48-2.67c-.4-.18-.87-.37-1.39-.56-.53-.19-1.11-.35-1.74-.5-.64-.14-1.31-.26-2.03-.35-.72-.09-1.47-.14-2.26-.14-1.58,0-2.97.19-4.15.57-1.18.38-2.16.9-2.93,1.54-.77.64-1.36,1.39-1.74,2.23-.39.84-.58,1.72-.58,2.63,0,1.41.44,2.63,1.33,3.66.89,1.03,2.2,1.84,3.95,2.44l2.45.83c.47.16.86.33,1.16.5.3.17.53.34.69.5.17.17.28.34.34.51.06.17.09.34.09.51,0,.52-.25.93-.73,1.23-.49.3-1.26.45-2.31.45-.91,0-1.89-.12-2.95-.37-1.06-.25-2.07-.62-3.04-1.11l-1.6,2.72c.72.35,1.44.66,2.16.93.72.26,1.45.48,2.2.66.74.17,1.5.3,2.29.39.78.09,1.59.13,2.43.13,1.75,0,3.29-.17,4.61-.51,1.33-.34,2.44-.82,3.33-1.43.89-.62,1.57-1.35,2.02-2.2.45-.85.68-1.78.68-2.78,0-1.48-.47-2.74-1.41-3.78-.94-1.04-2.3-1.86-4.08-2.45"/><path class="cls-1" d="M532.38,188.33l-1.64-.55c-.57-.19-1.04-.38-1.42-.55-.38-.18-.68-.36-.92-.54-.23-.18-.4-.36-.49-.55-.09-.19-.14-.38-.14-.58,0-.23.06-.46.17-.69s.28-.44.51-.63c.22-.19.5-.34.83-.45.33-.11.71-.17,1.15-.17.25,0,.54.02.85.07.31.05.63.11.95.21.32.09.65.2.97.34.33.14.63.3.92.48l1.48-2.67c-.4-.18-.87-.37-1.39-.56-.53-.19-1.11-.35-1.74-.5-.64-.14-1.31-.26-2.03-.35-.72-.09-1.47-.14-2.26-.14-1.59,0-2.97.19-4.15.57-1.18.38-2.16.9-2.93,1.54-.78.64-1.36,1.39-1.74,2.23-.38.84-.57,1.72-.57,2.63,0,1.41.44,2.63,1.33,3.66.89,1.03,2.2,1.84,3.95,2.44l2.45.83c.47.16.86.33,1.15.5.3.17.53.34.7.5.17.17.28.34.34.51.06.17.09.34.09.51,0,.52-.25.93-.73,1.23-.49.3-1.26.45-2.31.45-.91,0-1.9-.12-2.95-.37-1.06-.25-2.07-.62-3.04-1.11l-1.6,2.72c.72.35,1.44.66,2.16.93.72.26,1.45.48,2.2.66.74.17,1.5.3,2.29.39.78.09,1.59.13,2.43.13,1.75,0,3.29-.17,4.61-.51,1.33-.34,2.44-.82,3.33-1.43.89-.62,1.57-1.35,2.02-2.2.45-.85.68-1.78.68-2.78,0-1.48-.47-2.74-1.41-3.78-.94-1.04-2.3-1.86-4.08-2.45"/><polygon class="cls-1" points="550.06 201.16 567.25 201.16 567.25 198.03 557.97 198.03 557.97 192.58 565.06 192.58 565.06 189.45 557.97 189.45 557.99 183.96 567.25 183.96 567.25 180.83 550.06 180.83 550.06 201.16"/><polygon class="cls-1" points="597.57 191.67 584.67 180.83 579.72 180.83 579.72 201.16 582.73 201.16 582.73 190.37 595.64 201.16 600.59 201.16 600.59 180.83 597.58 180.83 597.57 191.67"/></g></svg>