<?xml version="1.0" standalone="no"?>
<!DOCTYPE svg PUBLIC "-//W3C//DTD SVG 20010904//EN"
 "http://www.w3.org/TR/2001/REC-SVG-20010904/DTD/svg10.dtd">
<svg version="1.0" xmlns="http://www.w3.org/2000/svg"
 width="700.000000pt" height="700.000000pt" viewBox="0 0 700.000000 700.000000"
 preserveAspectRatio="xMidYMid meet">
<metadata>
Created by potrace 1.14, written by Peter Selinger 2001-2017
</metadata>
<g transform="translate(0.000000,700.000000) scale(0.100000,-0.100000)"
fill="#000000" stroke="none">
<path d="M3408 6055 c-2 -1 -48 -5 -104 -9 -55 -4 -109 -8 -120 -10 -10 -2
-44 -7 -74 -11 -242 -32 -566 -143 -805 -276 -408 -226 -724 -522 -949 -888
-52 -84 -186 -341 -186 -356 0 -4 -9 -25 -19 -48 -71 -157 -144 -440 -166
-642 -3 -27 -8 -72 -11 -100 -7 -56 -7 -364 0 -410 2 -16 7 -59 11 -95 19
-186 97 -479 179 -675 219 -519 569 -918 1064 -1213 43 -27 254 -131 327 -162
144 -63 379 -123 645 -165 14 -2 63 -7 110 -10 46 -3 87 -11 91 -16 9 -15 231
-3 469 27 30 3 64 8 75 10 11 3 38 7 60 10 66 10 294 71 380 102 418 152 756
393 1062 757 70 83 196 256 238 327 24 40 113 206 127 238 9 19 28 61 42 92
62 135 127 364 159 553 42 245 43 602 3 846 -54 327 -187 669 -370 949 -148
227 -360 466 -541 610 -323 256 -777 464 -1145 524 -19 3 -46 8 -60 10 -34 6
-118 17 -160 22 -39 5 -328 12 -332 9z m352 -259 c14 -2 48 -7 75 -11 210 -25
465 -105 680 -212 116 -58 228 -123 233 -135 2 -5 8 -8 13 -8 10 0 92 -59 194
-141 94 -75 242 -224 322 -323 35 -45 71 -90 80 -100 41 -50 146 -223 196
-322 73 -143 133 -292 159 -391 4 -18 13 -50 18 -70 28 -102 53 -250 65 -393
46 -533 -123 -1103 -454 -1535 -25 -33 -53 -69 -61 -80 -41 -54 -285 -289
-360 -347 -337 -261 -755 -432 -1160 -475 -96 -10 -395 -10 -480 0 -151 17
-232 33 -373 72 -397 108 -733 309 -1032 614 -239 245 -380 452 -498 736 -56
134 -120 359 -132 465 -3 25 -10 72 -15 105 -9 61 -6 549 4 595 3 14 7 39 10
55 34 219 114 459 225 670 59 113 152 262 190 304 11 13 21 27 21 31 0 3 8 15
18 26 9 10 32 37 51 59 238 282 558 515 897 653 125 50 276 99 364 116 14 3
35 7 46 10 40 8 228 36 274 39 60 5 399 0 430 -7z"/>
<path d="M2177 4723 c-33 -9 -48 -58 -46 -146 2 -94 11 -120 46 -136 16 -8
180 -11 528 -11 l505 0 0 -1037 c0 -571 3 -1048 6 -1059 3 -12 17 -27 30 -33
28 -12 1219 -14 1264 -2 35 9 60 64 60 133 0 69 -12 99 -49 121 -25 14 -84 16
-517 17 -268 0 -492 4 -496 8 -5 5 -7 190 -6 413 l3 404 315 5 c351 6 353 6
371 72 15 59 9 166 -12 191 -17 22 -22 22 -345 25 -216 2 -332 6 -341 14 -18
15 -19 698 -1 716 9 9 131 12 489 12 312 0 487 4 507 11 40 14 60 64 60 154 0
80 -11 108 -44 124 -17 7 -359 10 -1167 10 -628 -1 -1150 -3 -1160 -6z"/>
</g>
</svg>
