<?xml version="1.0" standalone="no"?>
<!DOCTYPE svg PUBLIC "-//W3C//DTD SVG 20010904//EN"
 "http://www.w3.org/TR/2001/REC-SVG-20010904/DTD/svg10.dtd">
<svg version="1.0" xmlns="http://www.w3.org/2000/svg"
 width="1084.000000pt" height="1084.000000pt" viewBox="0 0 1084.000000 1084.000000"
 preserveAspectRatio="xMidYMid meet">
<metadata>
Created by potrace 1.14, written by Peter Selinger 2001-2017
</metadata>
<g transform="translate(0.000000,1084.000000) scale(0.100000,-0.100000)"
fill="#000000" stroke="none">
<path d="M7435 8833 c-170 -49 -176 -53 -215 -117 -24 -39 -43 -59 -65 -66
-43 -14 -149 -125 -177 -185 -18 -39 -29 -51 -53 -55 -49 -11 -128 -49 -158
-78 -16 -15 -37 -44 -48 -64 -23 -45 -47 -62 -114 -84 -43 -13 -70 -33 -148
-110 -53 -52 -103 -94 -111 -94 -31 0 -231 -82 -271 -111 -81 -58 -92 -61
-298 -59 -178 0 -197 2 -301 30 -69 19 -157 34 -231 40 -66 5 -167 15 -225 21
-218 23 -259 26 -425 28 -93 1 -201 6 -240 11 -38 5 -385 9 -770 10 l-700 2
-198 -51 c-109 -28 -208 -51 -220 -51 -12 0 -60 -9 -107 -20 -415 -99 -436
-102 -618 -105 -134 -1 -143 -2 -158 -23 -8 -12 -21 -22 -27 -22 -7 0 -29 -9
-50 -20 -171 -92 -438 -373 -533 -562 -63 -125 -102 -405 -69 -497 18 -51 20
-153 4 -184 -7 -12 -37 -49 -69 -82 -70 -74 -87 -106 -138 -265 -22 -69 -49
-146 -61 -171 -29 -66 -50 -152 -56 -233 -9 -144 -27 -312 -37 -362 -9 -44 -8
-56 12 -102 18 -42 21 -58 12 -76 -9 -20 -7 -27 7 -40 10 -9 28 -16 40 -16 27
0 71 42 71 68 0 10 16 40 35 67 25 36 31 52 24 61 -8 10 -3 23 20 51 44 56
133 243 175 368 20 61 41 117 47 125 9 12 10 11 4 -5 -4 -11 -15 -44 -26 -73
-18 -52 -18 -53 5 -135 13 -45 29 -112 35 -150 6 -37 32 -136 57 -220 25 -83
63 -219 84 -302 39 -154 105 -336 212 -578 58 -133 60 -140 49 -178 -7 -22
-24 -54 -40 -72 -15 -17 -33 -47 -40 -65 -8 -18 -38 -57 -67 -87 l-54 -55 0
-75 c0 -44 6 -87 14 -103 7 -15 18 -70 25 -122 7 -52 14 -111 17 -130 17 -118
24 -210 24 -322 0 -75 4 -129 10 -133 7 -4 10 -69 8 -174 -1 -159 0 -170 20
-196 12 -15 22 -36 22 -47 0 -24 -28 -78 -40 -78 -16 0 -42 -60 -45 -103 -4
-52 10 -91 38 -105 68 -34 185 -56 302 -56 l120 -1 -1 100 c0 99 -9 141 -45
220 -10 22 -25 61 -34 86 -8 26 -30 71 -48 101 -27 45 -36 77 -50 169 -10 63
-23 143 -28 179 -14 85 -6 300 14 422 40 229 153 577 242 743 28 54 29 59 6
229 -26 186 -83 379 -167 556 -68 146 -87 194 -170 429 -51 147 -68 231 -43
215 16 -10 90 -171 138 -302 44 -121 99 -232 113 -232 11 0 1 188 -13 243 -5
20 -7 41 -5 46 3 5 -1 28 -9 52 -30 93 -85 316 -85 347 0 18 9 45 19 60 10 15
21 47 24 72 8 61 34 120 53 120 13 0 15 -9 10 -52 -4 -29 -9 -105 -12 -168 -6
-115 -5 -118 34 -240 22 -69 45 -149 51 -179 11 -53 15 -226 7 -266 -3 -11 -5
-23 -5 -27 -1 -5 -10 -8 -21 -8 -25 0 -25 -3 1 -70 76 -203 109 -319 129 -455
6 -44 21 -101 32 -127 12 -27 19 -59 16 -77 -3 -24 0 -32 14 -37 24 -7 41 7
74 64 15 26 54 83 87 127 34 44 77 118 98 165 33 77 37 96 42 200 6 119 36
239 93 368 19 43 24 71 24 136 -1 102 -18 155 -105 316 -37 69 -77 142 -87
162 -11 20 -25 66 -31 101 -15 87 8 180 63 260 31 46 40 68 40 101 0 55 13 66
77 66 37 0 83 12 155 39 57 21 119 44 138 50 64 20 118 76 212 220 20 30 55
42 82 28 17 -8 15 -12 -19 -47 -31 -32 -35 -41 -26 -58 14 -27 14 -32 -2 -32
-7 0 -39 -27 -72 -61 -70 -71 -111 -94 -182 -104 -34 -4 -58 -14 -73 -30 l-21
-23 73 -4 c56 -4 79 -1 98 11 14 9 34 20 45 26 11 6 22 19 24 30 4 24 19 35
49 35 30 0 30 -40 0 -89 -13 -19 -28 -45 -33 -56 -8 -16 -22 -21 -64 -23 -29
-2 -67 2 -85 8 -66 24 -121 24 -163 -2 -21 -12 -47 -28 -58 -34 -28 -16 -71
-102 -96 -193 -29 -104 -20 -147 62 -322 124 -267 142 -471 52 -629 -37 -67
-73 -227 -82 -370 -10 -150 -21 -179 -128 -337 -71 -107 -77 -113 -109 -113
-23 0 -37 -6 -44 -19 -13 -25 -13 -54 0 -46 6 3 7 -1 4 -9 -3 -9 -10 -14 -16
-13 -5 1 -17 -16 -26 -38 -9 -22 -32 -60 -50 -84 -17 -24 -32 -51 -32 -60 0
-9 13 6 28 33 33 60 41 39 12 -33 -11 -28 -20 -61 -20 -72 0 -11 -4 -17 -10
-14 -5 3 -10 15 -10 26 0 30 -17 14 -30 -29 -7 -20 -23 -60 -37 -88 -24 -50
-25 -53 -8 -87 9 -20 38 -55 63 -79 31 -28 51 -57 58 -83 26 -88 61 -174 70
-166 5 5 39 11 76 14 66 6 67 6 91 -26 36 -48 160 -288 207 -402 64 -154 167
-326 346 -578 80 -113 86 -137 35 -137 -24 0 -52 24 -172 148 -79 81 -172 188
-207 238 -52 74 -213 350 -329 564 -36 67 -17 11 43 -127 111 -253 202 -415
276 -487 36 -35 128 -201 128 -232 0 -26 90 -131 144 -169 72 -49 86 -76 86
-160 0 -111 31 -158 116 -174 89 -17 280 -24 303 -12 27 15 28 66 2 159 -28
103 -64 164 -139 239 -37 37 -90 100 -117 138 -27 39 -80 113 -118 165 -68 93
-166 280 -226 432 -29 73 -83 183 -151 307 -26 46 -30 64 -30 130 0 47 5 82
12 89 20 20 53 13 94 -19 22 -17 62 -42 89 -56 28 -14 64 -36 80 -49 64 -48
231 -114 393 -154 114 -28 144 -22 242 48 92 66 133 105 218 207 174 208 284
431 337 686 34 158 62 189 215 238 76 24 307 76 400 90 78 12 373 16 415 6 56
-14 120 -53 165 -100 54 -56 226 -174 318 -217 55 -26 70 -29 93 -21 24 10 30
8 43 -12 10 -16 29 -25 58 -30 24 -3 77 -17 118 -30 41 -12 100 -30 130 -39
30 -9 70 -25 88 -36 l32 -20 1 -222 c0 -123 0 -250 0 -283 -1 -33 3 -73 9 -90
8 -24 9 -15 7 47 -3 86 -3 86 67 52 16 -8 40 -14 52 -14 33 0 39 -33 25 -129
-13 -90 -13 -396 0 -516 8 -72 51 -290 77 -387 7 -27 6 -42 -2 -54 -12 -16
-14 -15 -39 1 -39 25 -135 139 -152 179 -11 26 -15 82 -16 213 -1 98 -4 165
-6 148 -3 -16 -13 -42 -24 -56 -11 -15 -15 -29 -10 -31 5 -1 11 -63 12 -137
l3 -133 -27 -14 c-32 -17 -34 -30 -6 -39 17 -6 19 -12 14 -37 l-7 -31 47 7
c46 7 47 7 96 -42 51 -52 65 -97 35 -121 -24 -20 -40 -98 -30 -149 8 -42 16
-52 79 -100 98 -74 185 -113 260 -119 82 -7 95 6 95 92 0 51 -11 95 -54 222
-30 87 -58 176 -62 198 -8 52 -73 284 -86 309 -6 10 -10 35 -10 55 1 20 -8 63
-18 96 -45 138 -61 342 -35 446 9 39 21 112 25 162 23 240 33 316 48 367 19
61 10 57 115 44 26 -4 75 -1 108 5 34 7 63 11 65 9 2 -2 -7 -37 -20 -78 -13
-41 -27 -102 -31 -136 l-7 -61 66 -64 c36 -35 66 -68 66 -74 0 -6 25 -49 56
-95 65 -100 148 -259 163 -315 6 -23 48 -90 97 -155 48 -63 104 -141 126 -173
47 -69 71 -86 146 -103 63 -15 78 -28 146 -133 55 -86 101 -111 203 -111 78 0
183 28 216 58 17 15 16 16 -1 36 -11 12 -43 68 -72 126 -29 58 -59 114 -66
125 -21 29 -17 73 15 208 66 276 260 773 591 1517 216 486 280 639 292 705 12
64 20 73 47 56 11 -7 10 -13 -4 -34 l-16 -25 108 -4 c93 -2 113 -6 136 -24
l27 -22 -21 -26 -20 -26 35 0 c38 0 174 -62 232 -105 49 -37 84 -116 84 -189
l0 -62 75 -33 c73 -32 86 -43 65 -56 -18 -11 -11 -19 41 -50 53 -32 68 -60 49
-94 -13 -25 2 -61 26 -61 10 0 6 -8 -12 -24 l-28 -23 22 -12 c39 -21 106 -24
165 -7 30 9 58 16 61 16 3 0 6 -20 6 -45 0 -27 9 -63 21 -88 31 -61 102 -156
117 -156 10 -1 12 37 12 174 -1 128 2 180 11 191 15 19 69 47 76 41 2 -3 -5
-23 -16 -46 l-21 -40 35 20 c27 17 45 20 78 15 124 -19 134 -19 194 9 90 41
153 85 159 111 4 16 -8 52 -39 116 -25 51 -58 124 -73 161 -15 39 -37 75 -50
84 -13 8 -28 30 -34 49 -7 19 -27 47 -46 62 -19 15 -34 33 -34 41 0 7 -18 32
-40 55 -22 22 -59 69 -81 104 -27 40 -47 62 -60 62 -28 0 -27 65 1 80 35 19
63 112 41 136 -15 16 -70 152 -77 191 -4 21 -10 43 -14 48 -5 6 -23 46 -40 90
-17 44 -44 103 -60 130 -15 28 -36 72 -45 98 -11 30 -31 58 -52 74 -39 30 -42
42 -8 35 29 -5 32 4 8 32 -17 20 -17 20 0 6 18 -14 19 -11 12 80 -4 52 -15
140 -25 195 -10 55 -21 120 -25 145 -9 64 -34 136 -51 151 -9 7 -27 34 -40 61
-36 72 -50 63 -57 -36 -4 -55 -14 -105 -31 -146 -14 -34 -29 -79 -32 -99 -6
-29 -20 -60 -41 -90 -1 -2 -10 2 -20 10 -15 12 -16 12 -10 -4 44 -118 27 -471
-29 -606 -25 -59 -27 -26 -6 76 12 54 24 121 27 148 8 68 -11 274 -36 393 -16
76 -133 415 -189 549 -5 13 -5 25 0 28 9 5 51 -98 135 -333 27 -73 49 -131 51
-129 8 8 -43 173 -97 311 -43 111 -66 157 -80 161 -10 4 -22 17 -25 31 -8 31
-39 32 -58 1 -9 -12 -23 -51 -32 -87 -24 -96 -64 -233 -69 -238 -2 -3 -11 1
-20 8 -19 16 -19 12 4 -36 11 -21 18 -40 17 -41 -1 -2 -27 7 -57 19 -30 11
-80 29 -113 39 l-58 18 21 -23 c15 -16 21 -35 21 -67 l0 -44 -92 0 c-71 0
-102 -4 -130 -19 -21 -10 -38 -21 -38 -25 0 -4 19 -16 43 -27 35 -16 42 -24
42 -48 0 -26 -5 -31 -54 -46 -57 -19 -95 -50 -106 -87 -5 -19 -3 -23 18 -23
13 0 44 -15 68 -32 42 -31 43 -33 19 -36 -14 -2 -36 -7 -50 -12 -14 -4 -37
-11 -52 -14 -24 -6 -78 -66 -78 -88 0 -5 34 -8 75 -8 63 0 78 -3 96 -21 l21
-21 -96 -51 c-94 -49 -230 -157 -207 -165 6 -2 35 11 66 28 39 23 59 29 71 22
14 -8 7 -16 -39 -46 -52 -35 -87 -83 -87 -120 0 -13 12 -10 61 16 l60 32 34
-18 34 -18 -60 -30 c-67 -34 -162 -116 -186 -161 l-15 -30 57 6 c86 9 91 3 50
-54 -40 -56 -42 -69 -15 -94 11 -10 22 -26 25 -36 6 -16 17 -19 81 -19 96 0
173 -35 174 -77 0 -19 -24 -16 -54 8 l-26 20 0 -33 c0 -68 -32 -161 -116 -345
-329 -718 -434 -963 -592 -1373 -85 -223 -193 -541 -223 -659 -7 -29 -19 -55
-26 -58 -20 -8 -112 48 -146 90 -18 21 -71 78 -118 126 -95 96 -124 141 -164
246 -105 279 -145 398 -145 432 0 54 23 156 64 283 20 60 36 118 36 129 0 14
10 20 41 25 43 7 69 29 137 114 23 30 57 53 125 86 100 48 101 50 160 187 31
70 66 99 122 99 25 0 48 6 55 15 6 8 18 47 27 87 20 98 45 143 114 209 59 54
60 56 88 165 29 109 80 286 127 442 14 46 24 93 22 105 -3 20 -8 22 -64 19
-57 -3 -63 -1 -105 32 -24 20 -66 53 -93 73 -42 32 -46 38 -30 44 11 4 -4 5
-33 2 -42 -5 -65 0 -120 21 -70 28 -157 75 -151 81 2 2 57 -10 123 -26 120
-30 218 -67 210 -79 -5 -8 89 -63 146 -84 25 -10 61 -16 80 -14 45 4 42 -18
99 593 9 96 16 132 28 139 13 7 12 11 -7 25 -20 15 -22 27 -28 192 l-6 176
-24 -5 c-45 -9 -162 47 -222 105 -69 67 -60 87 20 43 30 -16 65 -30 79 -30 29
0 97 -34 123 -61 23 -24 33 -18 42 24 4 17 14 44 21 59 10 18 11 34 5 50 -9
21 -10 21 -10 -9 -1 -46 -10 -63 -35 -63 -34 0 -46 19 -46 72 0 44 -2 48 -24
48 -14 0 -37 5 -53 11 -42 16 -333 25 -333 10 0 -6 14 -14 30 -17 54 -11 34
-27 -27 -21 -39 4 -86 20 -147 51 -95 47 -152 66 -199 66 -41 0 -146 56 -159
85 -6 14 -9 28 -5 31 10 10 178 -55 226 -87 32 -21 57 -29 87 -29 24 0 59 -8
79 -17 33 -16 37 -16 52 -1 14 15 9 20 -65 57 -161 81 -332 201 -332 233 0 15
5 18 23 13 12 -4 31 -15 42 -25 11 -10 34 -21 51 -24 18 -4 40 -16 50 -28 11
-11 42 -31 69 -45 l50 -25 -66 68 c-120 125 -121 166 -1 53 94 -89 164 -132
276 -170 87 -29 186 -47 186 -34 0 4 -23 32 -50 62 -28 31 -70 90 -92 132 -47
85 -209 257 -248 263 -13 1 -30 14 -39 27 -15 24 -15 24 7 19 30 -8 28 7 -11
68 -28 44 -34 49 -46 36 -12 -13 -16 -11 -33 9 -10 13 -22 38 -26 54 -6 22
-15 31 -35 33 -16 2 -29 11 -33 25 -4 12 -17 43 -29 70 -13 26 -20 47 -15 47
14 0 60 -61 60 -79 0 -24 20 -41 47 -41 22 0 30 -11 48 -64 4 -15 8 -17 17 -8
22 22 36 12 66 -48 35 -70 108 -164 156 -202 49 -39 150 -167 173 -219 29 -64
97 -161 143 -203 47 -42 71 -47 63 -13 -4 18 1 15 27 -15 17 -21 38 -38 45
-38 7 0 27 -12 44 -26 l31 -26 82 21 c100 26 157 52 277 131 122 81 182 104
245 95 71 -9 91 -23 188 -124 98 -101 94 -100 209 -75 190 43 264 122 326 346
33 121 22 166 -60 256 -137 148 -390 312 -667 433 -30 13 -90 47 -135 74 -121
76 -224 121 -338 149 -121 29 -226 67 -268 97 -16 11 -73 40 -127 65 -124 56
-174 57 -347 7z m356 -327 c21 -32 42 -70 46 -85 3 -14 17 -39 30 -54 21 -26
23 -38 23 -133 0 -68 -4 -103 -10 -99 -6 3 -8 16 -4 29 4 17 -1 25 -21 36 -14
8 -23 19 -20 27 3 7 8 20 11 28 4 10 -4 21 -22 31 -33 19 -74 102 -74 151 0
45 -9 63 -37 74 -20 7 -24 14 -19 32 3 12 6 36 6 52 l1 30 25 -30 c14 -16 43
-56 65 -89z m-468 63 c12 -7 23 -13 24 -14 2 -1 7 -25 13 -55 5 -29 24 -75 41
-102 16 -28 29 -52 27 -54 -9 -8 -88 53 -88 69 0 24 -17 56 -45 87 -50 54 -31
99 28 69z m-42 -93 c5 -16 17 -38 28 -50 10 -11 26 -37 35 -56 9 -19 37 -64
61 -100 25 -36 45 -71 45 -78 0 -17 -92 59 -121 99 -12 17 -29 29 -43 29 -28
0 -88 56 -106 99 -11 28 -10 34 6 52 41 46 84 48 95 5z m-213 -118 c-6 -16
-33 -22 -56 -13 -14 5 -14 7 -2 15 22 14 62 12 58 -2z m-104 -18 c41 -19 96
-88 96 -120 0 -8 -9 -30 -20 -48 -21 -33 -21 -34 -1 -65 30 -48 69 -81 150
-127 41 -23 102 -65 136 -94 35 -28 89 -69 122 -92 48 -34 66 -54 96 -113 34
-65 38 -88 10 -60 -6 6 -26 12 -45 14 -56 5 -174 87 -265 183 -71 75 -82 84
-83 63 l0 -25 -32 31 c-29 27 -87 63 -103 63 -3 0 -5 -10 -5 -21 0 -19 -5 -17
-44 19 -41 38 -82 59 -93 49 -2 -3 7 -13 21 -22 14 -10 26 -24 26 -31 0 -22
-10 -17 -49 26 -31 35 -44 42 -98 51 -52 9 -68 17 -93 45 -49 56 -31 107 25
70 27 -18 49 -21 40 -6 -12 20 16 9 46 -17 21 -19 29 -34 26 -50 -6 -34 3 -40
71 -45 49 -3 62 -1 58 9 -3 7 0 13 6 13 13 0 58 -47 52 -53 -3 -3 2 -7 11 -10
20 -8 19 -1 -6 39 -27 44 -137 143 -166 150 -13 4 -23 13 -23 21 0 22 64 9
112 -22 l36 -24 16 24 c9 13 16 30 16 38 0 22 -59 59 -104 65 -44 5 -56 15
-56 48 0 47 47 57 114 24z m809 -27 c-7 -2 -19 -2 -25 0 -7 3 -2 5 12 5 14 0
19 -2 13 -5z m-173 -20 c0 -10 11 -40 25 -67 14 -27 25 -57 25 -67 0 -15 44
-61 68 -71 4 -1 26 -31 47 -66 27 -44 46 -64 64 -68 14 -3 38 -12 54 -20 24
-14 29 -14 42 0 14 13 12 20 -15 66 -33 56 -36 70 -17 70 14 0 71 -109 81
-157 4 -18 14 -37 22 -41 28 -16 5 -42 -40 -44 -75 -3 -85 0 -155 57 -78 63
-116 114 -157 213 -16 37 -41 89 -56 115 -34 58 -37 97 -8 97 12 0 20 -7 20
-17z m1260 -52 c0 -16 7 -18 45 -16 25 2 47 -1 51 -6 3 -5 -1 -9 -8 -10 -7 0
-32 -2 -55 -4 -35 -3 -46 2 -69 26 l-28 29 32 0 c25 0 32 -4 32 -19z m255 -96
c22 -13 36 -24 30 -24 -5 0 -28 11 -50 24 -22 14 -35 25 -30 25 6 0 28 -11 50
-25z m-2422 -188 c68 -29 157 -128 157 -175 0 -24 -1 -24 -40 12 -22 20 -48
37 -58 37 -9 1 -24 3 -32 4 -29 3 -130 55 -131 67 -6 63 34 84 104 55z m2638
-60 c11 -30 13 -49 7 -53 -6 -4 -5 -10 3 -15 12 -8 12 -10 0 -18 -7 -5 -10
-14 -6 -21 6 -9 3 -9 -13 -1 -29 15 -65 69 -58 86 7 18 32 20 39 3 4 -8 6 -7
6 3 1 9 -6 19 -14 23 -8 3 -15 15 -15 26 0 39 33 18 51 -33z m-2321 -23 c12
-32 13 -64 1 -64 -14 0 -50 62 -44 77 8 22 33 15 43 -13z m440 -4 c0 -14 -14
-12 -28 2 -19 19 -14 30 8 18 11 -6 20 -15 20 -20z m-3590 10 c36 -4 60 -8 54
-8 -6 -1 -67 -11 -135 -23 -126 -21 -225 -21 -239 1 -5 7 -11 6 -20 -5 -7 -8
-27 -15 -44 -15 -52 -1 -119 -20 -157 -45 -20 -13 -47 -25 -60 -27 -16 -2 -25
-11 -27 -24 -2 -12 -11 -29 -21 -38 -17 -16 -19 -14 -24 25 -3 23 -11 46 -19
51 -7 5 -80 7 -163 4 -112 -3 -168 -9 -220 -25 -38 -12 -83 -21 -100 -21 -28
1 -29 1 -11 15 29 22 282 102 365 116 46 7 156 10 285 8 116 -1 244 -3 285 -3
51 -1 76 3 79 12 4 13 65 14 172 2z m2812 -71 c10 -13 21 -42 24 -64 l5 -40
-25 29 c-27 32 -52 110 -33 103 6 -2 19 -14 29 -28z m-4051 -9 l24 -20 -35 2
c-24 2 -36 8 -38 21 -5 23 20 22 49 -3z m2258 -16 c53 -21 37 -35 -27 -22 -26
6 -63 13 -82 17 -20 4 -44 13 -55 20 -31 19 110 7 164 -15z m1648 0 c18 -14
33 -31 33 -38 0 -7 10 -26 21 -41 18 -22 20 -29 8 -36 -21 -13 -50 -11 -69 6
-9 8 -34 21 -56 28 -21 8 -40 21 -42 29 -3 16 46 78 62 78 5 0 24 -11 43 -26z
m-1799 -28 c29 -9 56 -24 59 -32 3 -7 13 -14 22 -14 14 -1 14 -2 -2 -14 -14
-11 -28 -10 -85 6 -109 31 -212 34 -315 9 -52 -12 -101 -31 -121 -46 -22 -17
-54 -28 -102 -34 -38 -6 -89 -17 -113 -26 -47 -16 -101 -20 -101 -7 0 21 117
91 188 113 23 7 42 16 42 21 0 12 -46 28 -81 28 -16 0 -29 5 -29 11 0 8 85 10
293 7 241 -4 301 -8 345 -22z m-1618 -20 c-6 -8 -17 -13 -23 -10 -7 2 -39 -12
-72 -31 -65 -39 -64 -35 5 19 28 22 56 36 74 36 24 0 26 -2 16 -14z m-477 -3
c-7 -2 -19 -2 -25 0 -7 3 -2 5 12 5 14 0 19 -2 13 -5z m1224 -19 c4 -11 -75
-54 -99 -54 -33 0 -24 14 25 40 54 28 68 31 74 14z m3134 5 c24 -12 119 -109
119 -121 0 -10 -7 -10 -44 1 -149 44 -196 68 -196 101 0 28 81 41 121 19z
m-3744 -24 c-4 -8 -14 -15 -23 -15 -16 0 -16 2 1 20 20 22 31 20 22 -5z
m-1018 -11 c-13 -7 -49 -21 -79 -31 l-55 -17 44 -6 c38 -4 46 -9 52 -32 4 -15
5 -29 3 -31 -2 -2 -43 6 -90 19 -84 21 -212 26 -256 9 -11 -4 -18 -3 -18 4 0
7 -23 11 -57 12 -93 1 -29 18 85 23 61 3 134 15 197 31 160 43 232 51 174 19z
m5989 -4 c16 -21 18 -28 7 -24 -14 6 -35 34 -35 48 0 11 6 6 28 -24z m-44 -50
c4 0 4 5 1 10 -3 6 1 10 10 10 22 0 81 -26 90 -39 6 -11 -31 -50 -49 -51 -18
0 -97 72 -112 103 l-16 32 34 -32 c19 -18 37 -33 42 -33z m-3680 41 c3 -5 -9
-18 -27 -29 -19 -11 -47 -28 -63 -38 l-29 -19 16 25 c9 14 34 35 55 47 46 27
41 25 48 14z m529 2 c13 -23 16 -63 5 -63 -18 0 -48 31 -48 52 0 18 34 26 43
11z m1332 -7 c48 -8 70 -17 70 -26 0 -29 -51 -35 -162 -17 -60 9 -121 18 -138
20 -27 2 -26 3 20 19 59 20 114 21 210 4z m-2484 -13 c-27 -50 -127 -113 -178
-113 -24 1 -22 3 18 19 49 19 127 69 148 95 18 21 24 20 12 -1z m-1111 -30
c-25 -14 -54 -34 -66 -44 -11 -11 -25 -19 -31 -19 -6 0 -26 -12 -46 -27 -20
-16 -48 -37 -63 -47 l-27 -19 24 -9 c16 -6 53 -4 111 7 114 22 130 15 41 -19
-39 -15 -82 -37 -95 -50 -13 -12 -43 -28 -67 -35 -23 -7 -49 -15 -57 -18 -10
-4 -12 0 -7 12 6 17 1 18 -49 12 -60 -7 -178 -40 -218 -61 -41 -21 -62 -14
-44 14 14 23 39 40 65 45 56 11 275 80 281 89 3 5 4 16 1 24 -13 33 -312 -16
-412 -68 -47 -23 -56 -22 -46 9 8 26 130 139 164 153 14 5 107 12 206 14 169
3 185 5 265 33 106 37 128 39 70 4z m855 1 c-23 -17 -150 -57 -185 -57 -14 0
-61 3 -105 7 -62 6 -92 4 -135 -9 -30 -9 -70 -19 -87 -22 -48 -8 -43 20 9 54
l42 28 222 0 c123 1 226 4 230 8 4 4 12 7 18 7 6 0 2 -7 -9 -16z m685 -25 c0
-6 -14 -22 -31 -36 -17 -15 -63 -63 -101 -107 -39 -45 -92 -93 -117 -109 -78
-46 -159 -60 -145 -24 3 8 42 34 87 58 57 30 103 65 151 114 96 97 156 137
156 104z m2540 -36 c19 -7 56 -28 82 -45 38 -23 48 -36 48 -57 0 -30 48 -64
140 -98 70 -26 206 -57 218 -49 13 8 35 -20 27 -34 -3 -5 -31 -10 -61 -10 -30
0 -63 -5 -74 -12 -15 -10 -28 -9 -67 5 -64 22 -133 37 -133 27 0 -30 91 -69
163 -70 33 0 46 -4 41 -11 -11 -18 -102 -3 -164 28 -43 22 -56 34 -58 54 -2
21 -15 32 -62 54 -32 15 -71 39 -87 52 l-28 24 45 -6 45 -6 -34 16 c-18 8 -42
15 -52 15 -22 0 -23 4 -9 30 8 15 5 23 -16 39 -14 11 -42 23 -63 27 -44 8 -61
21 -61 44 0 10 6 20 13 23 13 4 91 -16 147 -40z m-5168 12 c-5 -27 -45 -65
-69 -65 -28 0 -118 -52 -184 -106 -78 -64 -94 -68 -83 -22 8 40 32 78 49 78
15 0 200 92 240 119 40 28 53 27 47 -4z m1168 5 c-8 -5 -19 -10 -25 -10 -5 0
-3 5 5 10 8 5 20 10 25 10 6 0 3 -5 -5 -10z m2464 -25 c41 -14 84 -25 95 -25
12 0 21 -6 21 -14 0 -20 16 -28 59 -33 43 -5 109 -43 75 -43 -11 0 -47 9 -78
20 -32 11 -81 22 -109 26 -51 5 -164 30 -195 41 -11 5 -13 3 -7 -7 12 -19
-117 -7 -174 16 -36 14 -40 19 -26 27 20 11 92 1 140 -19 42 -17 45 -17 45 -1
0 43 50 47 154 12z m-1268 -11 c-3 -9 -6 -20 -6 -26 0 -12 -70 -1 -84 13 -15
14 -49 11 -73 -6 -26 -18 -356 -159 -435 -186 -56 -19 -171 -27 -152 -11 11
11 76 29 128 37 50 8 167 55 281 112 133 67 179 81 269 82 67 1 77 -1 72 -15z
m347 -26 c-17 -18 -34 -43 -38 -55 -3 -13 -26 -47 -51 -75 -25 -29 -47 -63
-50 -75 -4 -13 -10 -23 -15 -23 -7 0 -13 22 -23 97 -2 18 12 34 68 76 62 48
121 85 135 87 3 0 -9 -15 -26 -32z m-843 12 c45 -2 44 -2 -47 -33 -103 -36
-105 -37 -132 -92 -16 -33 -21 -37 -27 -22 -16 43 93 161 141 152 11 -2 40 -4
65 -5z m-1480 -12 c-1 -22 -24 -44 -70 -68 -24 -12 -56 -35 -70 -50 -29 -32
-81 -60 -108 -60 -11 0 -38 -7 -61 -15 -22 -8 -41 -10 -41 -5 0 4 39 34 86 67
112 76 104 71 145 78 21 3 47 17 64 35 30 31 55 39 55 18z m862 -15 c-8 -3
-48 -28 -90 -56 -73 -49 -194 -163 -289 -273 -42 -47 -43 -48 -43 -21 0 56 27
94 122 172 134 112 287 208 303 192 7 -6 6 -11 -3 -14z m5141 10 c25 -13 28
-18 14 -21 -10 -2 -32 6 -50 17 -40 26 -11 29 36 4z m-4833 3 c0 -2 -28 -13
-62 -26 -88 -31 -145 -65 -201 -119 -39 -38 -49 -43 -57 -31 -30 46 14 99 113
135 80 29 207 54 207 41z m2800 -5 c-86 -28 -140 -41 -165 -41 -27 0 -28 1
-11 19 21 23 45 28 136 29 45 0 57 -2 40 -7z m-2754 -58 c-73 -94 -100 -121
-126 -128 -20 -6 -11 7 41 61 36 38 74 81 83 97 10 15 25 27 32 27 9 0 -4 -23
-30 -57z m3354 33 c0 -32 -16 -36 -210 -46 -153 -8 -177 -12 -330 -55 -167
-48 -262 -84 -274 -104 -9 -14 -96 -15 -96 -1 0 6 5 10 12 10 6 0 25 11 42 23
19 15 51 26 83 30 29 3 85 20 125 38 132 57 164 68 244 83 43 8 115 18 159 22
119 9 240 20 243 22 1 1 2 -9 2 -22z m-2630 0 c0 -2 -8 -10 -17 -17 -16 -13
-17 -12 -4 4 13 16 21 21 21 13z m716 -11 c19 -14 19 -14 -1 -16 -11 -1 -28
-2 -38 -1 -9 1 -40 -12 -68 -29 -70 -44 -71 -31 -2 19 64 45 80 49 109 27z
m442 -16 c66 -22 69 -26 50 -52 -12 -16 -17 -15 -66 8 -30 14 -65 34 -79 45
l-26 20 30 0 c16 0 57 -9 91 -21z m-166 -17 c18 -18 7 -22 -64 -26 -43 -2 -81
-11 -108 -25 -23 -12 -44 -20 -46 -18 -8 8 30 49 64 67 41 22 133 23 154 2z
m438 -34 c76 -38 215 -164 181 -164 -11 0 -21 3 -21 7 0 27 -218 158 -269 162
-12 1 -21 7 -21 14 0 23 65 14 130 -19z m-890 8 c0 -8 -9 -17 -19 -21 -11 -3
-27 -17 -36 -32 -9 -14 -12 -22 -6 -19 25 16 8 -6 -40 -51 -28 -26 -57 -48
-65 -49 -49 -7 -3 61 88 129 85 65 78 61 78 43z m2112 -43 c24 -9 47 -19 51
-23 5 -4 -69 -6 -165 -4 -194 4 -246 -6 -306 -57 -38 -34 -92 -63 -92 -51 0 5
-62 10 -137 11 -76 1 -139 4 -141 6 -3 2 -2 11 1 20 5 13 32 15 169 15 132 0
168 3 186 16 12 8 22 22 22 31 0 9 6 13 14 10 8 -3 20 1 27 10 23 27 51 32
191 32 105 1 148 -3 180 -16z m-2830 -82 c-10 -14 -32 -31 -48 -37 -28 -10
-142 -119 -233 -224 -24 -27 -50 -50 -57 -50 -18 0 -18 14 1 30 22 18 20 51
-2 43 -25 -9 -94 -65 -191 -156 -60 -57 -103 -88 -156 -112 -77 -35 -146 -95
-146 -127 0 -21 -12 -23 -38 -7 -15 9 -26 6 -59 -14 -41 -26 -93 -84 -93 -104
0 -5 9 -18 19 -27 27 -25 54 -14 118 47 45 43 53 47 53 28 0 -14 6 -21 20 -21
11 0 20 -1 20 -3 0 -18 -51 -122 -73 -148 -15 -18 -27 -39 -27 -46 0 -7 30
-43 66 -79 53 -53 63 -68 53 -80 -27 -33 -61 -11 -104 70 -24 44 -13 45 -210
-13 -125 -37 -143 -45 -172 -78 -28 -31 -33 -44 -33 -87 0 -28 7 -73 15 -100
20 -66 60 -258 81 -386 20 -129 14 -223 -21 -317 -49 -127 -66 -206 -75 -348
-17 -235 -53 -319 -230 -525 -30 -36 -65 -81 -78 -101 -34 -57 -73 -168 -80
-234 -7 -59 -8 -60 -37 -60 -28 0 -30 3 -29 35 0 19 3 49 7 65 5 23 2 20 -14
-14 -12 -24 -24 -65 -28 -90 -6 -43 -8 -46 -40 -49 l-34 -3 5 58 c5 61 14 79
261 482 89 145 116 227 126 388 7 99 12 129 31 160 29 50 81 276 89 387 3 49
11 91 16 93 11 3 61 -71 67 -102 4 -18 6 -16 17 9 14 36 8 87 -36 290 -29 136
-34 180 -35 295 l0 135 27 22 c37 29 25 48 -24 39 -45 -8 -65 -26 -92 -82 -12
-24 -23 -43 -24 -41 -2 2 -4 26 -5 53 -5 111 0 115 133 115 159 1 272 25 327
72 57 50 120 130 120 153 l0 27 -35 -31 c-20 -17 -39 -31 -44 -31 -4 0 -13
-11 -19 -25 -10 -21 -14 -23 -39 -14 -40 13 -62 83 -40 125 25 48 96 108 217
185 260 164 348 249 259 249 -22 0 -29 5 -29 20 0 19 23 26 67 21 15 -2 76 34
145 86 31 24 61 43 67 43 12 0 35 39 27 47 -7 7 -96 -15 -116 -29 -8 -6 -4 -1
10 12 14 12 67 49 119 82 80 53 95 59 102 45 8 -14 16 -13 81 9 40 13 77 29
83 35 19 20 17 -33 -3 -60z m1192 60 c7 -11 -17 -21 -52 -22 -27 0 -182 -39
-214 -53 -11 -5 -18 -4 -18 2 0 6 28 26 63 46 56 32 69 35 139 36 42 0 79 -4
82 -9z m-2979 -21 c-3 -5 -20 -10 -36 -10 -16 0 -53 -12 -81 -26 -80 -41 -260
-181 -290 -227 -27 -39 -28 -40 -28 -14 0 14 8 32 17 39 9 7 44 41 77 74 131
132 151 146 224 160 86 15 125 17 117 4z m738 -32 c-17 -18 -34 -43 -37 -55
-10 -31 -29 -44 -46 -32 -12 8 -3 20 45 64 67 61 85 72 38 23z m2607 -3 c6 -8
10 -26 8 -42 -3 -25 -6 -28 -38 -25 -74 6 -156 7 -179 2 -69 -14 5 58 78 77
43 11 118 4 131 -12z m-2880 -2 c0 -11 -17 -26 -43 -38 -23 -11 -43 -28 -45
-38 -3 -16 -1 -17 17 -7 15 8 21 8 21 0 0 -15 -60 -139 -70 -145 -5 -3 -6 -14
-3 -24 7 -28 -70 -134 -129 -177 -27 -20 -83 -51 -126 -69 -43 -18 -100 -44
-128 -57 l-49 -25 -23 28 -23 29 23 9 c13 6 59 25 103 44 44 19 96 40 116 46
55 17 114 66 154 126 20 30 43 55 51 55 8 0 13 4 10 9 -3 5 4 20 15 35 11 14
19 32 17 38 -4 11 -61 -44 -130 -127 -24 -27 -26 -28 -42 -12 -16 16 -13 21
54 92 40 42 70 78 67 81 -2 3 -21 -5 -41 -17 -20 -11 -36 -16 -36 -10 0 21
-19 10 -74 -44 -64 -62 -96 -83 -96 -63 0 8 34 47 75 88 73 73 90 100 61 100
-21 0 -129 -42 -147 -57 -8 -7 -24 -13 -33 -13 -23 0 -76 -57 -76 -81 0 -14
-7 -19 -25 -19 -21 0 -24 3 -16 18 18 35 59 70 145 127 98 64 189 93 301 96
33 0 71 5 85 9 37 12 40 11 40 -7z m4376 -27 c222 -109 447 -153 536 -105 10
6 26 9 34 7 31 -6 -11 -40 -67 -53 l-54 -13 53 -1 c71 -1 71 -25 0 -46 -85
-25 -167 -14 -218 29 -8 7 -58 27 -110 45 -116 40 -229 91 -252 115 -15 15
-26 66 -14 66 2 0 43 -20 92 -44z m-4803 9 c-3 -9 -20 -23 -37 -32 -40 -20
-86 -63 -86 -81 0 -30 -33 -82 -51 -82 -16 0 -19 8 -19 43 0 59 19 81 108 127
87 44 94 46 85 25z m1157 -2 c-1 -23 -93 -96 -151 -122 -28 -13 -79 -22 -134
-26 -101 -7 -183 -27 -235 -57 -19 -12 -75 -60 -124 -107 -66 -64 -86 -80 -81
-61 4 14 15 36 24 50 10 14 21 36 24 50 8 33 61 86 110 112 75 38 122 49 244
59 147 11 251 44 284 90 23 33 39 37 39 12z m4398 0 c35 -5 42 -9 42 -28 0
-17 -9 -25 -39 -33 -55 -17 -111 -15 -133 5 -39 35 -6 79 51 68 20 -3 55 -9
79 -12z m-927 -17 c18 -12 18 -14 4 -20 -24 -9 -105 -7 -141 3 -18 5 -37 5
-47 0 -8 -5 -53 -13 -99 -18 -102 -10 -160 -38 -249 -118 -69 -63 -137 -109
-146 -100 -10 11 191 218 232 240 69 36 399 46 446 13z m-2709 -50 c-51 -55
-84 -101 -113 -161 -28 -58 -129 -188 -183 -235 -51 -45 -205 -237 -222 -277
-21 -49 -44 -43 -44 10 1 40 7 49 164 221 90 98 172 184 184 190 11 6 30 23
41 37 16 21 18 29 8 42 -29 37 -120 -39 -247 -206 -39 -53 -45 -57 -52 -38 -4
12 -12 21 -18 21 -23 0 -179 -127 -272 -221 l-98 -99 0 59 c0 49 4 65 25 89
14 17 25 35 25 41 0 6 14 18 31 27 65 33 390 286 490 381 59 55 188 132 224
133 5 1 23 12 40 25 22 18 32 21 43 13 10 -9 6 -19 -26 -52z m157 47 c-26 -36
-73 -83 -82 -83 -10 0 20 53 46 81 10 10 25 19 34 19 13 0 13 -3 2 -17z
m-2553 -22 c-19 -36 -125 -131 -147 -131 -35 0 -80 -22 -75 -36 3 -8 9 -21 12
-29 4 -10 -3 -18 -20 -25 -33 -12 -32 -21 2 -81 27 -49 60 -69 47 -29 -3 11 1
31 11 47 22 35 85 103 96 103 17 0 7 -25 -21 -55 -34 -35 -58 -115 -35 -115
24 0 15 -19 -16 -35 -45 -23 -77 -20 -84 11 -4 14 -22 34 -41 46 -43 25 -45
52 -9 125 21 42 35 55 68 68 22 9 75 50 118 91 84 79 121 97 94 45z m-303 -24
c-1 -15 -20 -54 -43 -86 -23 -32 -41 -65 -40 -72 6 -38 0 -51 -20 -46 -17 4
-20 0 -20 -27 0 -39 18 -96 31 -96 16 0 10 -41 -13 -81 -12 -22 -25 -39 -29
-39 -20 0 -39 100 -39 205 0 100 2 116 23 145 12 18 33 40 47 49 24 15 25 15
8 -4 -27 -33 -52 -105 -40 -117 7 -7 14 1 21 28 6 22 22 59 36 83 14 23 25 54
25 68 0 21 4 24 28 21 23 -2 27 -7 25 -31z m3257 -20 c-30 -30 -57 -52 -59
-51 -9 7 44 76 67 89 50 27 47 15 -8 -38z m1098 29 c23 -12 32 -23 32 -41 0
-31 -25 -33 -72 -5 -19 11 -52 22 -73 25 -22 3 -51 8 -64 11 -23 5 -23 6 -5
20 25 19 137 13 182 -10z m2328 10 c18 -18 18 -26 1 -26 -8 0 -22 9 -32 20
-17 19 -17 20 -1 20 10 0 24 -6 32 -14z m-1307 -44 c72 -60 107 -82 129 -82
36 0 52 -12 52 -37 0 -15 13 -38 33 -58 l33 -33 -34 5 -34 6 49 -46 c104 -97
208 -126 478 -133 216 -6 241 -9 212 -25 -24 -14 -205 -37 -298 -39 -205 -4
-223 -2 -272 31 -25 16 -63 33 -84 36 -35 6 -37 5 -23 -11 34 -42 161 -114
247 -140 98 -30 199 -74 190 -83 -11 -11 -140 -3 -201 13 -35 8 -101 39 -153
70 -60 37 -100 54 -115 52 -21 -4 -16 -11 49 -75 72 -71 151 -118 326 -193 31
-13 57 -28 57 -33 0 -5 -41 -8 -93 -5 -85 3 -101 7 -173 43 -83 42 -159 110
-249 222 -52 65 -91 91 -108 74 -6 -6 3 -27 27 -60 20 -28 36 -54 36 -59 0 -4
9 -25 21 -46 11 -21 18 -43 16 -49 -2 -7 2 -20 11 -30 8 -9 13 -20 10 -23 -7
-7 -36 10 -106 60 -30 21 -65 39 -78 39 -18 0 -35 15 -68 61 -45 63 -198 216
-216 216 -16 0 -11 -36 8 -53 26 -24 58 -93 81 -172 23 -79 78 -171 149 -249
26 -28 61 -70 77 -94 15 -24 44 -56 63 -73 19 -17 32 -32 30 -34 -6 -6 -104
90 -149 146 -20 24 -68 79 -108 121 -39 42 -71 79 -71 83 0 4 -18 44 -39 88
-41 86 -48 108 -60 197 -4 30 -11 63 -16 73 -5 12 -3 17 8 17 10 0 13 8 9 25
-8 42 15 30 105 -55 46 -44 89 -80 94 -80 12 0 12 17 -1 25 -5 3 -10 17 -10
29 0 13 -11 40 -25 60 -14 20 -25 39 -25 41 0 16 30 -2 76 -45 29 -27 62 -50
73 -50 28 0 26 8 -8 45 -57 58 -160 200 -152 208 15 15 41 -5 76 -57 18 -28
56 -73 83 -100 47 -45 50 -47 57 -27 12 39 -6 79 -66 144 -32 36 -59 68 -59
71 0 10 55 -21 71 -40 26 -32 92 -74 115 -74 12 0 37 -12 54 -26 36 -31 48
-26 31 13 -16 38 -39 64 -81 93 -38 26 -128 120 -115 120 4 0 28 -17 54 -38z
m-684 8 c26 -12 33 -19 21 -19 -26 -1 -56 -30 -56 -53 0 -10 -2 -18 -4 -18
-19 0 -78 35 -105 63 -29 31 -31 36 -15 40 43 11 121 4 159 -13z m2988 -73
c-14 -48 -28 -85 -30 -83 -6 6 17 96 34 139 27 62 25 35 -4 -56z m-4563 74 c0
-15 -41 -61 -55 -61 -18 0 -27 28 -15 51 11 19 70 28 70 10z m-1080 -10 c0
-19 -113 -111 -184 -149 -85 -46 -198 -89 -269 -103 -72 -13 -109 -34 -190
-107 -39 -36 -108 -92 -151 -124 -44 -33 -85 -69 -90 -80 -14 -25 -73 -46
-140 -49 -73 -2 -74 -2 -81 31 -10 47 6 57 93 61 84 4 145 30 123 52 -27 27 0
67 46 67 24 0 156 64 172 84 7 8 10 20 6 26 -12 19 -43 10 -86 -26 -62 -52
-64 -22 -3 36 43 41 56 47 106 53 31 4 63 5 71 2 14 -6 161 30 277 67 86 28
139 54 175 88 63 60 125 95 125 71z m1290 -23 c-13 -11 -33 -34 -45 -52 -41
-66 -150 -195 -153 -181 -5 20 7 38 87 140 64 81 118 130 131 118 3 -3 -6 -14
-20 -25z m168 20 c20 -20 13 -28 -26 -28 -21 0 -43 -5 -50 -12 -6 -6 -15 -8
-19 -4 -11 10 43 56 66 56 9 0 22 -5 29 -12z m268 -5 c16 -22 17 -33 4 -33 -6
0 -49 -24 -96 -54 -48 -30 -98 -58 -113 -61 -68 -17 -174 -102 -194 -158 -4
-9 -7 -9 -17 0 -11 10 -8 20 15 53 27 38 163 150 183 150 17 0 63 42 73 67 17
45 119 70 145 36z m745 -11 c48 -31 75 -59 66 -69 -4 -3 -17 2 -29 11 -13 9
-45 32 -73 51 -62 44 -32 50 36 7z m1085 -9 c-7 -7 -26 7 -26 19 0 6 6 6 15
-2 9 -7 13 -15 11 -17z m-5080 -20 c-8 -16 -30 -46 -49 -68 -29 -32 -38 -38
-48 -27 -11 10 -2 22 45 67 32 30 60 55 62 55 3 0 -2 -12 -10 -27z m2262 -11
c-6 -15 -19 -49 -28 -77 -11 -32 -24 -51 -36 -54 -14 -3 -16 0 -8 10 6 8 14
33 17 56 5 41 44 105 59 96 4 -2 2 -16 -4 -31z m2936 -38 c36 -33 53 -54 44
-56 -10 -4 -7 -13 10 -37 13 -18 22 -35 19 -37 -5 -6 -177 166 -177 177 0 11
23 17 36 10 6 -3 37 -29 68 -57z m-524 41 c0 -8 -6 -12 -14 -9 -22 9 -243
-112 -345 -188 -13 -10 -33 -18 -45 -17 -20 0 -20 1 -2 12 10 7 53 40 94 74
95 78 219 143 273 143 28 0 39 -4 39 -15z m-1160 -9 c0 -16 -14 -36 -25 -36
-7 0 -26 -7 -41 -15 -16 -8 -40 -15 -54 -15 -14 0 -54 -9 -89 -20 -36 -11 -67
-18 -69 -16 -4 5 44 39 85 60 57 29 193 58 193 42z m2582 -38 l83 -43 -65 -3
c-36 -2 -81 1 -101 7 -35 11 -89 54 -89 72 0 5 20 9 44 9 33 0 67 -11 128 -42z
m-3772 2 c0 -20 -25 -38 -37 -26 -5 5 24 46 34 46 1 0 3 -9 3 -20z m-1636 -6
c7 -19 -21 -68 -63 -108 -35 -34 -55 -28 -24 7 11 12 30 43 41 70 22 49 36 58
46 31z m435 -49 c-35 -25 -73 -45 -84 -45 -11 0 -38 -3 -60 -6 -38 -5 -39 -5
-20 11 24 20 111 65 145 76 14 4 38 8 54 8 27 1 24 -3 -35 -44z m1276 8 c-32
-50 -58 -73 -95 -83 -21 -6 -58 -29 -84 -51 -26 -23 -45 -36 -44 -29 2 7 -3
15 -9 17 -9 3 -13 -8 -13 -36 0 -24 -10 -62 -25 -90 -36 -72 -115 -131 -115
-86 0 8 5 15 10 15 6 0 10 13 10 29 0 17 13 45 35 72 29 36 35 52 35 92 0 50
5 55 36 33 17 -13 21 -12 39 4 11 10 51 31 88 46 39 15 85 42 105 63 43 42 52
43 27 4z m-2142 -2 c7 -28 1 -31 -60 -31 -57 0 -58 1 -43 31 15 28 95 28 103
0z m3502 9 c3 -6 -1 -7 -9 -4 -18 7 -21 14 -7 14 6 0 13 -4 16 -10z m1971 -22
c-21 -29 -147 -138 -160 -138 -13 0 57 73 117 121 56 45 64 48 43 17z m-5658
-70 c-19 -28 -24 -48 -26 -125 -3 -62 -8 -96 -18 -103 -21 -19 -34 -2 -34 46
0 24 -4 44 -10 44 -36 0 18 139 71 184 33 28 34 29 37 8 2 -12 -7 -37 -20 -54z
m3772 68 c0 -2 3 -12 6 -20 4 -12 2 -15 -9 -10 -21 8 -30 34 -12 34 8 0 15 -2
15 -4z m2236 -28 c38 -19 50 -30 52 -51 4 -32 2 -32 -69 -11 -54 16 -92 42
-111 78 -9 17 -7 18 34 14 24 -3 66 -16 94 -30z m-1940 8 c3 -8 4 -29 2 -48
l-3 -33 -18 39 c-9 21 -17 42 -17 47 0 15 30 10 36 -5z m-112 -145 c72 -117
14 -76 -76 54 -27 37 -48 75 -48 84 1 23 77 -62 124 -138z m1499 135 c4 -9 -5
-22 -21 -32 -26 -17 -41 -19 -142 -12 -19 1 -42 0 -50 -3 -19 -5 -27 41 -8 52
7 5 59 9 114 9 79 0 103 -3 107 -14z m-5550 -29 c-11 -12 -32 -44 -46 -72 -30
-57 -35 -56 -11 1 19 46 64 108 72 100 3 -4 -4 -16 -15 -29z m427 14 c0 -10
-103 -62 -135 -67 -16 -3 -51 -17 -77 -31 -29 -16 -54 -23 -65 -19 -16 7 -16
9 5 24 12 10 62 30 110 46 48 16 98 37 112 47 22 15 50 16 50 0z m2653 -136
c-48 -51 -91 -93 -95 -94 -23 -4 76 142 116 172 16 12 -34 -3 -69 -20 -16 -9
-40 -24 -52 -35 -22 -21 -43 -17 -43 7 0 17 61 65 83 65 8 0 44 14 79 30 l63
30 3 -31 c3 -28 -7 -43 -85 -124z m-493 115 c0 -18 -48 -65 -58 -55 -6 6 19
68 32 77 14 10 26 0 26 -22z m4563 -48 c-3 -40 -9 -72 -12 -72 -4 0 -4 26 0
58 4 31 8 66 8 76 1 11 3 17 6 15 2 -3 1 -37 -2 -77z m-3643 48 c0 -18 -7 -20
-72 -20 -40 -1 -91 -8 -113 -16 -78 -30 -105 -37 -112 -30 -13 13 28 41 90 63
40 14 88 22 135 22 66 1 72 -1 72 -19z m120 7 c0 -17 -48 -83 -84 -116 l-26
-24 0 22 c0 12 14 42 30 66 39 56 80 83 80 52z m-2210 -7 c0 -5 -27 -27 -59
-50 -57 -38 -101 -51 -101 -30 0 6 6 10 13 10 7 0 31 18 52 40 27 28 48 40 67
40 15 0 28 -4 28 -10z m1070 -14 c0 -17 -51 -62 -81 -71 -38 -12 -34 7 10 46
45 40 71 49 71 25z m2765 -34 c-3 -3 -16 5 -28 17 l-22 23 28 -17 c15 -10 25
-20 22 -23z m-5495 -38 c-60 -95 -73 -158 -78 -374 -5 -263 -22 -272 -22 -12
l0 203 46 112 c26 62 54 118 63 125 27 22 23 -4 -9 -54z m6097 55 c5 -5 32
-13 59 -17 35 -5 50 -12 52 -25 10 -49 -66 -61 -173 -28 -64 20 -82 44 -49 68
21 16 96 17 111 2z m-3049 -27 c4 -28 -54 -132 -74 -132 -21 0 -17 23 17 95
31 66 51 78 57 37z m612 -22 c0 -5 -15 -10 -34 -10 -18 0 -67 -16 -109 -35
-85 -39 -100 -42 -95 -19 2 11 22 22 53 30 28 7 68 20 90 28 47 17 95 20 95 6z
m-2178 -25 c-8 -44 -124 -191 -142 -180 -20 12 -9 37 40 87 27 28 55 66 62 85
13 36 46 43 40 8z m2638 0 c17 -9 30 -20 30 -25 0 -17 -18 -11 -46 15 -31 29
-26 32 16 10z m-1610 -15 c-6 -11 -18 -20 -27 -20 -14 0 -14 2 2 20 10 11 22
20 27 20 5 0 4 -9 -2 -20z m1133 -26 c3 -12 -150 -90 -158 -82 -13 13 12 63
36 75 14 7 34 21 44 33 18 20 19 20 47 1 17 -10 31 -22 31 -27z m2719 -6 c71
-29 128 -59 128 -65 0 -17 -6 -17 -86 11 -90 30 -170 71 -177 91 -4 8 -3 15 1
15 4 0 64 -23 134 -52z m-6616 -30 c12 -38 15 -72 11 -135 -5 -82 -17 -113
-43 -113 -11 0 -14 31 -14 161 0 140 2 160 14 149 8 -6 22 -34 32 -62z m1168
53 c7 -11 -103 -85 -189 -128 -80 -40 -197 -85 -323 -124 -96 -29 -104 -30
-135 -16 -17 8 -45 15 -61 15 -35 -1 -66 32 -66 68 0 29 10 30 80 4 76 -29
175 -37 198 -17 20 17 106 61 142 72 14 4 46 21 72 37 103 67 265 117 282 89z
m2246 -22 c-12 -16 -25 -28 -27 -25 -8 8 25 56 38 56 6 0 1 -14 -11 -31z
m-3280 -23 c-5 -15 -10 -44 -10 -65 0 -35 -14 -61 -32 -61 -17 0 -7 58 18 109
27 54 42 65 24 17z m280 30 c0 -3 -4 -8 -10 -11 -5 -3 -10 -1 -10 4 0 6 5 11
10 11 6 0 10 -2 10 -4z m2740 -19 c0 -25 -63 -106 -74 -96 -8 8 21 79 42 102
21 23 32 21 32 -6z m4140 -17 c8 -5 11 -10 5 -10 -5 0 -17 5 -25 10 -8 5 -10
10 -5 10 6 0 17 -5 25 -10z m-7500 -82 c17 -46 40 -105 52 -133 17 -42 19 -61
14 -124 -12 -122 -23 -114 -28 20 -3 90 -9 132 -21 154 -31 56 -44 90 -51 128
-4 20 -5 37 -2 37 2 0 19 -37 36 -82z m6801 21 c49 -29 92 -56 95 -60 11 -19
-91 -8 -164 17 -127 42 -131 58 -23 93 2 0 44 -22 92 -50z m1014 -138 c-9 -58
-25 -143 -36 -189 -10 -46 -19 -115 -19 -154 0 -61 -2 -69 -15 -58 -14 11 -39
9 -80 -6 -12 -5 -10 3 9 31 14 20 28 53 32 74 3 20 16 56 28 81 13 25 26 63
30 85 3 22 15 101 27 175 11 74 24 139 27 145 14 21 13 -82 -3 -184z m-4754
156 c-10 -9 -11 -8 -5 6 3 10 9 15 12 12 3 -3 0 -11 -7 -18z m1489 -65 c0 -25
-4 -42 -8 -36 -11 12 -32 86 -32 110 1 17 3 17 20 -5 14 -16 20 -38 20 -69z
m-222 56 c3 -17 -63 -98 -80 -98 -5 0 3 20 17 43 14 24 25 52 25 61 0 22 34
17 38 -6z m-1448 3 c0 -12 -59 -55 -66 -49 -2 3 5 17 17 31 20 26 49 36 49 18z
m304 -3 c-26 -45 -66 -98 -74 -98 -16 0 -12 28 10 70 16 31 26 40 46 40 17 0
23 -4 18 -12z m1671 -18 c-5 -8 -11 -8 -17 -2 -6 6 -7 16 -3 22 5 8 11 8 17 2
6 -6 7 -16 3 -22z m-2425 -5 c-13 -14 -26 -22 -29 -19 -3 3 5 14 18 25 33 27
39 24 11 -6z m1765 -40 c-20 -50 -94 -119 -123 -113 -9 2 -18 13 -20 24 -2 17
4 23 27 27 16 4 35 16 41 28 19 35 84 102 88 90 2 -6 -4 -31 -13 -56z m-4105
8 c0 -35 -3 -44 -10 -33 -13 20 -13 80 0 80 6 0 10 -21 10 -47z m2945 37 c-3
-5 -12 -10 -18 -10 -7 0 -6 4 3 10 19 12 23 12 15 0z m1987 -184 c41 -82 118
-259 118 -272 0 -2 -4 -4 -10 -4 -5 0 -10 6 -10 14 0 12 -24 71 -77 185 -9 20
-41 80 -70 133 -29 53 -53 105 -53 115 0 21 31 -31 102 -171z m-4549 142 c-3
-13 -13 -31 -21 -41 -9 -10 -18 -46 -21 -84 -8 -92 -28 -95 -24 -3 1 46 9 83
23 110 22 44 52 56 43 18z m3271 13 c3 -5 -1 -15 -10 -22 -9 -7 -20 -23 -25
-36 -9 -23 -29 -32 -29 -13 0 6 7 26 14 45 14 33 38 46 50 26z m-795 -38 c-14
-39 -38 -63 -76 -79 -38 -16 -77 -18 -68 -4 3 6 19 10 36 10 33 0 69 31 69 60
0 17 23 39 42 40 4 0 3 -12 -3 -27z m1051 14 c0 -25 -31 -57 -56 -57 -14 0
-43 -9 -65 -21 -23 -11 -42 -19 -44 -17 -1 2 4 18 12 36 9 23 26 39 56 52 50
22 97 26 97 7z m2756 -24 c71 -28 142 -82 109 -82 -29 -1 -115 23 -150 42 -16
8 -43 30 -60 47 l-30 32 35 -7 c19 -4 62 -18 96 -32z m-4041 -13 c11 -35 -16
-51 -59 -34 -16 6 -22 35 -9 47 15 16 62 7 68 -13z m1785 -32 c0 -5 -8 -8 -17
-6 -12 2 -19 14 -21 33 l-2 30 20 -24 c11 -13 20 -28 20 -33z m-958 0 c4 -21
3 -49 -2 -62 -8 -21 -6 -24 7 -19 13 5 14 3 3 -18 -7 -13 -24 -37 -38 -54 -24
-28 -25 -26 -5 23 3 8 0 10 -11 6 -19 -7 -20 2 -5 45 15 42 5 50 -27 20 l-26
-24 7 25 c4 14 16 34 26 46 11 11 19 28 19 38 0 12 6 16 22 14 17 -2 24 -12
30 -40z m-2462 18 c0 -30 -103 -75 -137 -61 -14 5 -7 10 28 21 25 7 54 23 64
34 21 23 45 26 45 6z m2370 -19 c0 -4 -11 -12 -25 -17 -13 -5 -31 -24 -39 -43
-13 -32 -54 -72 -64 -62 -11 10 10 53 27 58 11 2 29 23 40 45 11 22 26 42 33
45 13 4 28 -10 28 -26z m163 -19 c-16 -31 -18 -32 -21 -10 -2 13 4 33 14 44
25 27 29 7 7 -34z m3910 27 c-4 -15 -36 -12 -41 3 -3 9 3 13 19 10 13 -1 23
-7 22 -13z m-6978 -82 c26 -53 50 -64 185 -78 57 -6 121 3 177 26 28 11 34 11
53 -6 11 -10 33 -18 50 -18 28 0 28 -1 15 -26 -36 -70 -115 -283 -115 -310 0
-60 67 -226 153 -381 108 -192 108 -192 36 -408 -45 -135 -98 -339 -115 -442
-3 -19 -22 -74 -42 -122 -27 -63 -42 -88 -54 -88 -25 0 -23 24 12 218 17 90
29 166 27 168 -2 2 -16 -46 -33 -106 -23 -88 -33 -110 -47 -110 -10 0 -20 6
-23 14 -8 20 34 226 53 264 17 32 46 42 59 21 4 -6 17 29 30 77 13 49 39 129
58 179 58 145 52 173 -79 365 -43 63 -84 128 -91 146 -7 18 -14 80 -15 150 -3
120 2 149 47 284 31 92 31 87 1 67 -22 -14 -50 -17 -160 -17 -150 0 -189 9
-207 48 -7 15 -15 22 -17 15 -3 -7 7 -37 20 -67 23 -50 29 -56 69 -66 24 -6
51 -15 60 -20 10 -6 25 -10 34 -10 11 0 14 -6 8 -22 -14 -47 -21 -53 -71 -53
-46 0 -48 -1 -51 -30 -3 -19 -24 -53 -58 -91 -57 -66 -64 -86 -38 -116 16 -17
15 -20 -10 -56 -14 -21 -26 -45 -26 -54 0 -9 -4 -19 -9 -22 -5 -4 -14 25 -21
64 -6 38 -20 80 -31 94 -27 34 -24 57 16 123 19 32 35 63 35 69 0 17 25 24 88
24 l57 1 -37 33 c-21 18 -38 40 -38 48 0 8 -10 26 -23 40 -19 20 -23 35 -21
81 1 38 7 64 18 76 15 16 15 19 1 24 -15 7 -20 42 -9 72 6 14 11 12 35 -11 15
-15 35 -42 44 -61z m2070 67 c-10 -11 -15 -26 -11 -36 4 -10 -2 -23 -16 -35
l-23 -19 28 10 c15 5 41 17 58 26 25 12 33 13 39 3 14 -21 0 -37 -84 -95 -44
-31 -105 -82 -134 -113 -65 -68 -58 -40 16 72 42 63 46 74 28 69 -55 -14 -128
-104 -156 -194 -11 -35 -20 -69 -20 -76 0 -8 -14 -27 -30 -44 -19 -18 -32 -44
-36 -69 -4 -22 -13 -47 -21 -55 -19 -18 -67 -18 -83 0 -16 21 -34 11 -65 -36
-15 -22 -45 -57 -67 -77 -22 -21 -56 -66 -77 -102 -25 -44 -51 -74 -84 -96
-54 -36 -92 -36 -58 1 11 11 46 62 79 111 63 95 116 155 179 201 21 16 52 40
70 55 17 15 46 30 63 34 17 4 38 18 47 31 14 22 14 28 -1 69 -19 49 -15 65 15
65 48 0 129 72 129 114 0 32 22 58 66 77 29 13 46 28 50 43 10 39 54 73 113
85 2 1 -4 -8 -14 -19z m1125 -46 c-7 -24 -17 -47 -21 -50 -13 -7 -11 5 7 67
20 64 32 48 14 -17z m1429 -58 c24 -59 57 -127 73 -153 40 -63 145 -171 243
-250 44 -36 86 -75 94 -87 8 -11 30 -38 50 -58 19 -21 32 -38 28 -38 -4 0 -3
-9 3 -20 7 -13 -13 -3 -57 29 -37 26 -111 77 -163 112 -52 36 -99 74 -105 86
-9 20 -44 43 -66 43 -15 0 29 -73 138 -230 40 -57 -18 3 -70 74 -72 95 -101
150 -94 175 3 12 1 19 -4 15 -16 -9 -10 24 7 41 15 14 15 18 1 33 -8 9 -36 67
-62 127 -26 61 -58 129 -71 152 -30 51 -32 78 -6 64 10 -5 37 -57 61 -115z
m-4859 -31 c-11 -24 -24 -59 -27 -79 -6 -41 -23 -49 -23 -12 0 13 -5 26 -12
28 -19 7 0 58 33 87 18 16 29 35 29 52 0 41 15 45 18 4 2 -22 -5 -53 -18 -80z
m4080 73 c21 -46 27 -123 10 -133 -18 -11 -54 114 -43 153 8 30 11 28 33 -20z
m318 20 c9 -12 15 -64 13 -112 -1 -18 -2 -18 -21 -1 -15 14 -20 31 -20 72 0
53 8 64 28 41z m940 -107 c39 -46 61 -99 43 -102 -49 -11 -87 8 -76 39 2 6 0
12 -5 12 -6 0 -10 11 -10 25 0 14 -14 54 -31 88 l-30 62 33 -36 c18 -20 53
-59 76 -88z m-3348 105 c0 -2 -8 -10 -17 -17 -16 -13 -17 -12 -4 4 13 16 21
21 21 13z m3462 -18 c16 -13 44 -38 61 -57 37 -39 83 -61 129 -61 19 0 66 -16
106 -35 60 -29 72 -38 72 -59 0 -23 -2 -24 -42 -15 -59 13 -117 36 -145 59
-14 10 -48 26 -76 34 -74 22 -117 51 -117 79 0 13 -5 28 -12 35 -12 12 -20 42
-11 42 3 0 18 -10 35 -22z m-1644 -30 c-26 -33 -88 -85 -88 -74 0 11 92 106
103 106 5 0 -1 -14 -15 -32z m2249 -41 c130 -51 169 -76 97 -62 -78 14 -257
79 -283 102 l-26 24 40 -7 c22 -3 99 -29 172 -57z m-4322 26 c-6 -26 -5 -27 8
-9 9 13 16 15 21 8 4 -6 -3 -25 -15 -41 -16 -22 -20 -38 -16 -64 4 -29 2 -36
-14 -40 -17 -5 -19 0 -19 44 0 27 7 67 16 89 19 46 29 53 19 13z m715 21 c0
-13 -83 -110 -108 -126 -15 -9 -45 -41 -67 -70 -22 -29 -74 -86 -116 -128 -71
-70 -137 -164 -154 -217 -3 -13 -11 -23 -16 -23 -5 0 -29 -18 -53 -40 l-44
-41 5 43 c6 44 38 96 60 97 6 1 46 52 87 114 49 74 100 137 147 181 40 37 82
82 92 99 29 51 108 117 140 117 15 0 27 -3 27 -6z m633 -52 c-11 -14 -25 -28
-31 -30 -21 -7 -13 21 15 50 32 34 45 18 16 -20z m4942 28 c7 -12 -2 -12 -30
0 -19 8 -19 9 2 9 12 1 25 -3 28 -9z m-6092 -15 c-3 -9 -8 -14 -10 -11 -3 3
-2 9 2 15 9 16 15 13 8 -4z m1655 -6 c2 -11 -17 -28 -56 -51 l-58 -35 -12 25
c-10 21 -8 28 18 54 24 24 37 29 67 26 25 -2 39 -8 41 -19z m-448 -25 c0 -8
-7 -14 -15 -14 -17 0 -18 2 -9 24 7 18 24 12 24 -10z m786 0 c-4 -9 -9 -15
-11 -12 -3 3 -3 13 1 22 4 9 9 15 11 12 3 -3 3 -13 -1 -22z m-4047 -10 c6 -15
15 -47 18 -72 5 -40 1 -56 -47 -152 -50 -102 -58 -112 -112 -138 -17 -8 -6 34
33 125 22 53 45 121 51 152 12 66 28 111 38 111 4 0 12 -12 19 -26z m4726
-106 c52 -131 70 -242 46 -287 -22 -41 -38 -25 -33 34 4 51 3 55 -17 55 -14 0
-27 -12 -41 -39 -37 -74 -63 -67 -36 9 18 50 18 122 0 293 -5 51 -4 57 13 57
15 0 29 -26 68 -122z m-2615 96 c0 -9 5 -12 12 -8 7 5 2 -5 -10 -21 -13 -16
-36 -37 -52 -46 -41 -26 -62 -70 -54 -117 8 -51 -7 -77 -57 -103 -51 -26 -165
-103 -203 -137 l-30 -27 17 28 c41 67 51 78 95 106 57 36 108 87 120 121 5 14
13 48 17 77 7 54 19 69 90 117 46 30 55 32 55 10z m2668 -89 c1 -31 -1 -35 -8
-20 -5 11 -8 40 -8 65 0 37 1 41 8 20 4 -14 8 -43 8 -65z m59 63 c-3 -8 -6 -5
-6 6 -1 11 2 17 5 13 3 -3 4 -12 1 -19z m3367 6 c9 -8 16 -18 16 -20 0 -7 -38
15 -45 26 -10 16 12 12 29 -6z m-3735 -129 c0 -32 -7 -62 -20 -85 -11 -19 -18
-27 -15 -17 3 10 6 67 7 125 1 103 2 105 14 67 8 -22 14 -62 14 -90z m-2985
95 c14 -14 -63 -31 -164 -36 -110 -7 -179 -25 -207 -57 -11 -12 -26 -46 -33
-76 -19 -80 -8 -155 33 -237 19 -38 45 -103 57 -143 19 -61 20 -77 10 -99
l-12 -27 -13 30 c-7 17 -40 74 -73 128 -49 80 -63 112 -72 169 -26 149 17 290
99 333 48 25 351 37 375 15z m1552 5 c-11 -8 -22 -12 -25 -9 -6 6 19 24 34 24
6 -1 1 -7 -9 -15z m354 -12 c0 -10 -10 -29 -21 -43 l-20 -25 16 39 c8 21 15
40 15 42 0 2 2 4 5 4 3 0 5 -8 5 -17z m725 -3 c-3 -5 -11 -10 -16 -10 -6 0 -7
5 -4 10 3 6 11 10 16 10 6 0 7 -4 4 -10z m2100 -32 c84 -42 160 -93 143 -96
-25 -5 -138 51 -188 93 -49 41 -34 42 45 3z m-3645 13 c0 -12 -99 -75 -107
-68 -10 11 64 77 86 77 12 0 21 -4 21 -9z m410 -4 c0 -8 -28 -41 -63 -74 -47
-45 -91 -74 -168 -112 -57 -28 -124 -62 -147 -77 -43 -25 -44 -26 -32 -4 7 12
10 33 7 46 -5 26 8 34 53 34 19 0 44 13 75 40 25 22 56 40 68 40 36 0 171 72
182 98 11 24 25 30 25 9z m-3275 -34 c-14 -21 -25 -45 -25 -54 0 -18 -44 -146
-53 -156 -11 -10 -8 88 4 130 9 33 75 117 93 117 4 0 -5 -17 -19 -37z m4240
-2 c-4 -17 -10 -29 -15 -26 -5 3 -4 19 2 36 13 38 22 31 13 -10z m91 -23 c-8
-30 -25 -63 -36 -73 -19 -18 -20 -18 -20 4 0 23 59 135 67 127 3 -2 -2 -29
-11 -58z m-3433 37 c-3 -9 -8 -14 -10 -11 -3 3 -2 9 2 15 9 16 15 13 8 -4z
m3157 -37 c-26 -51 -58 -88 -77 -88 -7 0 10 31 39 70 29 38 54 68 56 66 2 -2
-6 -24 -18 -48z m-609 6 c-19 -25 -21 -25 -21 -6 0 12 8 25 17 31 26 14 28 5
4 -25z m2422 -12 c38 -56 303 -292 367 -326 8 -5 -3 7 -24 25 -22 19 -76 70
-121 114 -44 44 -116 112 -160 152 -44 39 -77 74 -74 78 9 8 80 -24 113 -52
16 -13 50 -35 75 -48 25 -14 116 -80 201 -148 124 -98 156 -128 158 -150 3
-23 0 -27 -20 -27 -13 1 -40 7 -60 14 -21 8 -38 12 -38 10 0 -8 141 -85 191
-104 60 -24 168 -90 169 -104 0 -5 -21 -6 -48 -4 -60 6 -258 103 -395 195 -61
40 -150 114 -226 188 -69 67 -136 127 -149 134 -18 9 -22 20 -22 57 0 38 3 45
17 42 10 -2 30 -22 46 -46z m1834 22 c-3 -3 -12 -4 -19 -1 -8 3 -5 6 6 6 11 1
17 -2 13 -5z m-3306 -45 l-9 -34 -1 31 c-1 17 2 34 6 37 12 13 14 -1 4 -34z
m-3954 -150 c57 -184 73 -259 55 -259 -12 0 -8 -9 -78 191 -36 104 -54 172
-54 203 0 85 22 46 77 -135z m3498 151 c-14 -16 -31 -20 -81 -20 -47 0 -84 -8
-153 -35 -49 -19 -101 -35 -113 -35 -23 1 -23 1 5 25 15 13 27 30 27 37 0 10
2 10 9 0 7 -11 37 -7 162 21 85 19 156 33 158 31 2 -2 -4 -13 -14 -24z m1358
-166 c37 -84 67 -162 67 -173 0 -11 8 -35 19 -53 10 -18 30 -53 45 -78 29 -51
31 -60 13 -60 -19 0 -116 199 -126 256 -10 63 -54 167 -95 224 -49 68 -50 71
-18 53 22 -13 42 -48 95 -169z m-1176 139 c-17 -18 -22 -8 -11 22 5 12 10 13
17 6 8 -8 6 -16 -6 -28z m79 -10 c-11 -11 -19 6 -11 24 8 17 8 17 12 0 3 -10
2 -21 -1 -24z m-3306 -151 c26 -32 25 -38 -7 -54 -34 -17 -87 -138 -79 -183
12 -75 27 -125 54 -183 37 -78 44 -171 34 -437 l-8 -190 -18 40 c-33 73 -42
155 -26 252 8 49 15 124 15 168 0 70 -4 88 -34 148 -45 91 -60 212 -37 281 19
57 20 83 1 116 -23 41 -19 60 13 60 40 0 52 17 52 76 0 88 15 96 18 10 2 -60
8 -85 22 -104z m3540 64 c-6 -6 -29 -11 -51 -11 -38 0 -39 1 -39 37 0 20 5 40
10 43 6 3 10 -3 10 -14 0 -15 6 -21 24 -21 25 0 42 25 25 36 -6 3 -3 11 8 19
17 13 18 10 21 -32 2 -25 -2 -51 -8 -57z m3067 93 c22 -8 24 -12 13 -19 -21
-14 -32 -12 -60 10 -25 19 -25 20 -3 20 12 0 34 -5 50 -11z m-7422 -55 c-21
-31 -30 -59 -38 -124 -1 -8 -12 -16 -25 -18 -17 -3 -22 1 -22 20 1 36 38 111
68 135 39 33 45 28 17 -13z m1885 15 c17 -31 -5 -77 -44 -93 -29 -12 -96 -78
-96 -94 0 -4 11 -12 25 -18 19 -9 27 -9 36 2 21 25 90 77 95 71 5 -5 -72 -125
-130 -205 -25 -34 -39 -100 -36 -174 4 -85 3 -88 -29 -88 -34 0 -39 10 -42 90
-3 84 -1 97 21 103 11 3 23 13 27 24 4 10 19 39 35 64 50 83 26 107 -44 43
-22 -20 -44 -32 -48 -27 -19 18 -60 165 -60 212 0 69 28 91 119 92 36 0 75 4
86 9 37 16 74 11 85 -11z m3178 -149 c4 -133 -22 -304 -54 -359 l-15 -26 6 30
c19 103 23 158 18 227 -5 61 -2 87 12 124 17 45 17 113 0 159 -6 15 -3 14 11
-5 16 -21 20 -47 22 -150z m-1753 114 c0 -27 -5 -31 -68 -53 -70 -25 -90 -23
-66 5 20 25 112 85 124 81 5 -2 10 -17 10 -33z m684 4 c-14 -29 -60 -78 -71
-78 -5 0 10 23 33 50 46 55 56 62 38 28z m2394 -42 c184 -90 243 -126 226
-136 -9 -6 -41 6 -94 34 -91 48 -283 166 -271 166 4 0 67 -29 139 -64z m-2308
-12 c-24 -37 -31 -20 -9 22 13 24 20 30 22 19 2 -9 -4 -27 -13 -41z m115 2 c0
-41 -33 -87 -50 -70 -14 14 -6 43 21 78 26 34 29 33 29 -8z m-1466 -10 c-3 -9
-10 -16 -15 -16 -14 0 -11 28 4 33 16 6 19 3 11 -17z m804 12 c-2 -6 -15 -12
-29 -13 -13 -1 -40 -4 -59 -8 l-35 -7 40 20 c45 22 89 26 83 8z m1092 8 c0 -3
-4 -8 -10 -11 -5 -3 -10 -1 -10 4 0 6 5 11 10 11 6 0 10 -2 10 -4z m1615 -6
c3 -5 -1 -10 -9 -10 -9 0 -16 5 -16 10 0 6 4 10 9 10 6 0 13 -4 16 -10z
m-1436 -44 c-11 -20 -25 -36 -31 -36 -22 0 -48 22 -48 41 0 15 5 18 23 14 12
-3 33 1 47 8 14 8 26 13 28 12 2 -2 -7 -19 -19 -39z m-556 19 c-3 -9 -8 -14
-10 -11 -3 3 -2 9 2 15 9 16 15 13 8 -4z m2080 -26 c71 -35 115 -61 171 -101
l38 -27 -25 -12 c-21 -10 -33 -7 -76 16 -85 47 -208 155 -175 155 3 0 33 -14
67 -31z m-3305 -8 c-4 -23 -187 -173 -201 -164 -6 4 -2 10 10 14 11 4 36 27
54 50 84 106 146 151 137 100z m4577 -1 c3 -5 -1 -10 -9 -10 -8 0 -18 5 -21
10 -3 6 1 10 9 10 8 0 18 -4 21 -10z m-3811 -68 c-67 -66 -77 -79 -87 -107 -6
-17 -4 -17 9 3 9 12 23 22 30 22 33 0 8 -29 -73 -85 -48 -33 -114 -86 -147
-117 -59 -56 -76 -67 -76 -49 0 16 159 161 197 178 60 29 42 64 -19 38 -34
-14 -20 30 15 47 17 9 60 41 95 72 42 37 72 56 89 56 24 0 22 -4 -33 -58z
m546 30 c0 -35 -58 -154 -71 -146 -15 9 -10 41 18 109 28 68 53 86 53 37z
m370 7 c-7 -11 -14 -18 -17 -15 -8 8 5 36 17 36 7 0 7 -6 0 -21z m436 -97 c-3
-3 -9 -3 -12 1 -10 10 -17 86 -9 104 6 13 11 1 17 -41 5 -32 7 -61 4 -64z
m-2528 79 c-37 -31 -104 -69 -93 -52 8 14 106 81 118 81 4 0 -7 -13 -25 -29z
m1384 -28 c-37 -46 -68 -75 -107 -98 -18 -11 -1 12 45 58 79 81 112 102 62 40z
m-3997 -5 c-6 -22 -6 -22 14 2 11 14 22 22 25 19 8 -8 -16 -37 -34 -41 -17 -3
-46 -39 -42 -50 1 -5 -2 -8 -8 -8 -20 0 -5 45 28 83 20 23 25 22 17 -5z m4820
-39 c-31 -62 -85 -139 -85 -121 0 32 95 190 107 178 3 -2 -7 -28 -22 -57z m82
32 c-4 -17 -33 -108 -67 -204 -57 -167 -73 -248 -50 -262 6 -3 10 -17 10 -30
0 -40 30 -103 100 -213 36 -57 76 -121 89 -143 l23 -41 -51 37 c-29 21 -63 52
-76 69 -39 51 -155 276 -155 301 0 12 7 42 15 65 8 23 15 59 15 79 0 41 27
106 64 154 15 20 29 56 35 94 9 58 34 123 48 123 3 0 3 -13 0 -29z m-5048 -68
c-10 -47 -28 -107 -40 -132 -26 -56 -81 -141 -91 -141 -17 0 -6 42 22 87 17
26 30 51 30 56 0 5 16 41 35 78 19 38 35 73 35 78 0 13 19 61 24 61 2 0 -5
-39 -15 -87z m3743 27 c-15 -28 -28 -43 -30 -34 -3 13 42 84 54 84 2 0 -8 -22
-24 -50z m905 25 c-4 -8 -14 -15 -23 -15 -16 0 -16 2 1 20 20 22 31 20 22 -5z
m2973 15 c11 -8 7 -9 -15 -4 -37 8 -45 14 -19 14 10 0 26 -5 34 -10z m570 0
c13 -9 13 -10 0 -10 -8 0 -22 5 -30 10 -13 9 -13 10 0 10 8 0 22 -5 30 -10z
m-3404 -117 c-31 -68 -36 -74 -36 -46 0 41 63 175 68 144 2 -11 -13 -56 -32
-98z m-838 85 c-2 -15 -11 -24 -25 -26 -27 -4 -30 10 -7 32 22 23 36 20 32 -6z
m281 -10 c-25 -49 -59 -74 -59 -44 0 15 48 66 62 66 5 0 3 -10 -3 -22z m2765
-11 c15 -19 26 -37 26 -40 0 -4 -23 7 -51 24 -37 23 -47 34 -37 40 23 15 36
10 62 -24z m-4730 -93 c-21 -55 -52 -122 -70 -151 -32 -50 -69 -81 -82 -69
-11 11 80 176 108 196 16 11 38 44 51 75 38 91 33 54 -7 -51z m348 62 c-50
-54 -55 -64 -132 -256 -35 -85 -82 -193 -105 -240 -24 -47 -48 -103 -55 -125
-6 -22 -15 -129 -20 -237 -5 -109 -14 -234 -21 -279 l-13 -81 -22 44 c-13 23
-24 59 -25 78 -1 33 -2 32 -14 -16 -6 -28 -17 -59 -23 -70 -15 -26 -15 -18 3
40 25 82 15 146 -23 146 -5 0 -8 14 -6 32 2 17 -3 61 -12 96 -18 73 -14 127
16 225 26 83 26 107 -1 107 -17 0 -20 5 -16 21 9 35 -8 7 -22 -36 -7 -22 -26
-53 -42 -70 -16 -16 -45 -47 -65 -67 -19 -21 -40 -38 -45 -38 -13 0 -11 137 3
163 6 12 34 53 62 91 28 39 57 84 66 100 18 37 52 56 102 56 32 0 39 4 54 35
12 26 23 35 40 35 21 0 23 -3 14 -19 -5 -11 -14 -31 -20 -46 -9 -23 -8 -25 9
-15 44 23 42 10 -20 -135 l-51 -120 -5 -155 c-3 -85 -9 -163 -14 -172 -6 -10
-5 -19 1 -23 5 -3 10 -34 10 -68 1 -59 1 -61 15 -37 8 14 14 40 15 58 0 20 5
32 14 32 11 0 13 23 9 128 -7 161 13 248 91 415 59 123 62 132 46 122 -15 -9
-12 21 3 34 8 6 17 8 21 4 4 -4 4 0 0 10 -3 10 -1 17 5 17 6 0 10 3 9 8 -3 8
27 57 56 91 18 20 18 23 4 18 -19 -7 60 96 96 125 42 34 48 17 8 -26z m2656
18 c6 -30 21 -39 18 -10 -2 14 0 26 3 26 8 0 45 -250 38 -257 -6 -5 -26 29
-38 66 -7 20 -7 16 -3 -14 3 -22 28 -92 56 -155 55 -127 65 -160 50 -160 -12
0 -59 59 -90 113 -48 84 -62 148 -62 288 0 100 3 130 13 127 6 -3 14 -13 15
-24z m-2030 -10 c-3 -27 -33 -42 -110 -58 -18 -3 -51 -18 -73 -32 -39 -24 -38
-24 12 25 31 29 75 58 105 70 68 26 70 26 66 -5z m-319 -6 c-6 -12 -24 -32
-40 -46 -16 -13 -29 -32 -29 -41 0 -26 -45 -107 -93 -170 -62 -79 -77 -104
-77 -127 0 -15 -8 -23 -25 -26 -14 -3 -25 -3 -25 0 0 8 112 166 137 194 29 30
29 35 1 66 -26 26 -36 27 -60 5 -25 -22 -23 -2 3 31 27 34 178 135 202 136 15
0 16 -3 6 -22z m1681 5 c0 -13 -48 -68 -54 -63 -7 8 31 70 44 70 5 0 10 -3 10
-7z m2255 -25 c18 -18 44 -41 58 -51 15 -10 32 -28 38 -40 l12 -22 -24 21
c-13 12 -37 30 -53 40 -29 18 -29 18 7 -30 51 -66 48 -79 -10 -50 -50 26 -73
30 -73 14 0 -14 -23 -12 -44 3 -17 12 -17 17 -5 50 7 20 21 39 31 43 13 4 16
12 12 30 -9 34 13 31 51 -8z m-5744 -106 c51 -78 75 -157 66 -221 -18 -129
-81 -301 -109 -301 -11 0 -10 18 1 24 5 3 12 30 15 60 4 30 19 79 33 108 30
61 40 143 21 174 -7 12 -28 48 -46 80 -18 32 -41 73 -52 89 -10 17 -22 48 -26
70 l-7 40 28 -25 c15 -14 49 -58 76 -98z m1356 67 c-36 -27 -68 -56 -70 -63
-3 -8 -27 -28 -53 -45 -35 -24 -50 -29 -58 -21 -18 18 107 131 174 157 79 31
80 29 7 -28z m4103 25 c0 -2 -9 0 -20 6 -11 6 -20 13 -20 16 0 2 9 0 20 -6 11
-6 20 -13 20 -16z m-3230 -3 c0 -28 -19 -46 -76 -71 -35 -16 -88 -45 -119 -64
-64 -42 -65 -42 -65 -18 0 29 43 63 143 113 95 48 117 56 117 40z m617 -18
c-9 -9 -20 -13 -24 -9 -4 4 1 14 11 22 25 18 35 8 13 -13z m2023 17 c5 0 29
-18 54 -39 25 -22 61 -44 80 -51 28 -9 38 -19 44 -43 5 -18 17 -37 28 -42 270
-140 386 -203 416 -229 20 -17 47 -39 60 -48 l23 -17 -26 -1 c-15 0 -84 29
-153 64 -69 35 -126 62 -126 60 0 -2 46 -35 103 -72 119 -81 135 -96 118 -116
-11 -13 -20 -12 -65 4 -113 38 -169 74 -273 174 -108 103 -135 137 -114 144 7
2 1 14 -15 30 -14 15 -36 43 -48 62 -12 19 -51 57 -86 84 -36 27 -57 47 -47
43 10 -4 22 -7 27 -7z m1423 3 c-7 -2 -19 -2 -25 0 -7 3 -2 5 12 5 14 0 19 -2
13 -5z m1277 -28 c51 -26 86 -71 107 -140 15 -48 16 -58 4 -51 -4 3 -11 24
-15 46 -9 59 -72 118 -161 153 -65 25 -67 27 -27 22 24 -3 65 -16 92 -30z
m-3634 -43 c-9 -32 -23 -75 -31 -93 l-16 -34 5 52 c5 53 41 151 52 141 3 -3
-2 -33 -10 -66z m-1516 -65 c-57 -56 -97 -93 -90 -82 23 34 184 195 189 189 3
-2 -42 -51 -99 -107z m-848 66 c-34 -49 -79 -146 -115 -249 -48 -137 -57 -158
-63 -152 -6 6 44 149 91 257 32 75 89 171 101 171 3 0 -3 -12 -14 -27z m1647
-2 c-6 -16 -21 -37 -35 -46 -23 -15 -24 -14 -24 4 0 16 51 71 65 71 2 0 -1
-13 -6 -29z m4309 10 c44 -23 77 -56 91 -93 9 -24 51 -184 51 -194 0 -2 -46
-4 -103 -4 -97 0 -106 2 -150 30 -45 29 -87 80 -87 109 0 7 20 -9 45 -37 27
-30 57 -53 75 -57 16 -4 32 -11 35 -16 10 -15 45 -11 39 5 -4 9 2 13 20 11 38
-5 32 3 -18 25 -24 10 -47 23 -50 29 -4 6 14 2 40 -10 26 -11 56 -19 65 -17
17 3 16 7 -4 58 -19 47 -31 61 -87 98 -53 35 -71 42 -103 40 -31 -2 -42 1 -54
20 l-15 22 86 0 c66 0 96 -5 124 -19z m-4132 -24 c-10 -42 -54 -111 -97 -152
l-41 -40 32 65 c18 36 44 84 59 107 29 47 57 59 47 20z m-692 -32 c8 -33 1
-45 -30 -45 -29 0 -32 24 -7 52 22 24 30 23 37 -7z m3856 15 c11 -7 5 -8 -20
-4 -43 8 -51 14 -19 14 13 0 31 -5 39 -10z m-3720 -45 c-18 -19 -36 -32 -39
-30 -2 3 11 21 29 40 18 19 36 32 39 30 2 -3 -11 -21 -29 -40z m1504 -18 c20
-57 28 -110 16 -102 -18 11 -49 82 -56 127 -7 39 -6 42 9 30 9 -8 23 -32 31
-55z m-4794 6 c12 -27 23 -68 26 -93 4 -45 4 -44 -19 20 -43 118 -47 163 -7
73z m1415 20 c-11 -46 -85 -206 -104 -228 -25 -28 -41 -60 -41 -84 0 -11 -9
-25 -20 -31 -19 -10 -20 -8 -20 52 0 58 5 71 56 163 59 105 98 155 122 155 10
0 12 -7 7 -27z m1999 11 c4 -11 -18 -39 -70 -90 -84 -84 -119 -135 -188 -273
-26 -51 -50 -91 -53 -87 -9 9 16 94 60 205 34 85 49 109 81 135 21 17 62 52
90 78 55 51 70 57 80 32z m749 -72 c-6 -75 -23 -82 -23 -10 0 35 17 95 24 87
2 -2 1 -37 -1 -77z m2587 68 c0 -5 -16 -10 -36 -10 -21 0 -33 4 -29 10 3 6 19
10 36 10 16 0 29 -4 29 -10z m520 -11 c0 -6 -4 -7 -10 -4 -5 3 -10 11 -10 16
0 6 5 7 10 4 6 -3 10 -11 10 -16z m-3219 -36 c-6 -21 -11 -63 -11 -93 0 -72
-13 -92 -28 -44 -7 23 -7 45 -1 61 5 13 9 38 9 55 0 28 27 74 37 64 3 -2 0
-21 -6 -43z m-458 22 c-3 -9 -8 -14 -10 -11 -3 3 -2 9 2 15 9 16 15 13 8 -4z
m318 -58 c-8 -8 -11 -4 -11 14 0 33 14 47 18 19 2 -12 -1 -27 -7 -33z m-802
19 c11 -20 10 -28 -3 -48 -9 -14 -13 -28 -9 -31 15 -16 37 -5 74 35 52 57 49
39 -6 -47 -24 -39 -54 -88 -66 -110 -31 -58 -59 -95 -71 -95 -15 0 -1 85 23
139 22 50 27 143 7 123 -32 -32 -38 1 -6 35 27 29 41 29 57 -1z m1885 -70 c66
-99 149 -190 304 -333 65 -59 118 -111 120 -115 2 -4 -4 -11 -13 -14 -10 -4
-22 1 -32 16 -9 12 -29 27 -44 34 -16 7 -96 79 -179 160 -120 119 -157 162
-190 223 -37 69 -53 132 -30 118 6 -3 35 -43 64 -89z m-2824 -18 c-82 -101
-126 -209 -149 -369 -5 -35 -21 -91 -36 -124 -25 -56 -28 -58 -41 -40 -8 10
-14 30 -14 44 0 41 99 363 127 411 37 65 91 129 127 151 51 31 45 -2 -14 -73z
m2934 71 c14 -11 26 -27 26 -34 0 -18 80 -82 210 -170 57 -38 122 -88 145
-110 36 -36 38 -40 19 -43 -33 -5 -126 32 -191 74 -107 71 -253 236 -253 286
0 23 11 23 44 -3z m1012 -34 c31 -30 62 -55 70 -55 8 0 14 -2 14 -4 0 -2 3
-11 6 -20 10 -25 -67 -22 -97 4 -19 15 -20 19 -5 14 16 -6 17 -4 7 14 -6 12
-19 27 -29 34 -28 21 -44 46 -37 58 9 15 11 14 71 -45z m-2514 -39 c-45 -51
-142 -201 -142 -220 0 -9 -4 -16 -10 -16 -41 0 46 170 139 274 33 36 36 37 39
17 2 -13 -8 -35 -26 -55z m3542 29 c22 -17 17 -29 -7 -19 -16 6 -32 34 -19 34
4 0 16 -7 26 -15z m-4214 -15 c-6 -11 -16 -20 -22 -20 -6 0 -3 9 7 20 10 11
20 20 22 20 2 0 -1 -9 -7 -20z m66 -7 c-4 -10 -20 -52 -36 -93 -17 -41 -34
-93 -40 -115 -14 -57 -44 -101 -87 -128 -65 -42 -65 -33 -3 128 21 55 41 108
44 117 3 11 11 15 21 12 21 -8 19 -17 -10 -60 -13 -20 -27 -52 -30 -73 -3 -20
-8 -48 -10 -63 -3 -16 -2 -28 1 -28 12 0 54 107 54 138 0 18 4 40 9 50 6 9 12
29 15 44 7 29 52 88 68 88 6 0 7 -8 4 -17z m914 -9 c0 -38 -15 -61 -112 -163
-109 -116 -198 -234 -240 -318 -38 -77 -58 -71 -28 8 29 78 68 137 152 226
137 145 177 193 194 233 20 46 34 52 34 14z m1541 -90 c64 -45 150 -110 193
-144 42 -33 91 -69 108 -78 17 -10 33 -23 36 -30 8 -25 -27 -10 -109 46 -205
140 -287 203 -329 253 -51 61 -52 62 101 -47z m-2711 67 c0 -20 -27 -48 -37
-37 -9 8 14 56 27 56 5 0 10 -8 10 -19z m4715 9 c13 -6 15 -9 5 -9 -8 0 -22 4
-30 9 -18 12 -2 12 25 0z m-3021 -199 c16 -23 26 -44 23 -47 -12 -12 -78 93
-97 155 -31 97 -23 106 13 15 18 -45 45 -100 61 -123z m166 59 c4 -30 11 -65
15 -77 11 -34 -12 -29 -34 8 -31 50 -44 113 -36 166 l7 48 20 -45 c11 -25 24
-70 28 -100z m-910 109 c-7 -11 -14 -18 -17 -15 -3 3 0 12 7 21 18 21 23 19
10 -6z m-4460 -36 c-10 -21 -24 -50 -31 -65 -16 -37 -23 -28 -15 18 6 30 44
84 60 84 2 0 -4 -17 -14 -37z m4930 -35 c0 -22 -28 -24 -36 -3 -9 21 16 51 27
33 5 -7 9 -21 9 -30z m-74 -13 c7 -18 -20 -63 -43 -72 -8 -3 -19 0 -24 8 -11
18 -42 0 -47 -27 -5 -24 -22 -43 -22 -23 1 29 55 114 73 113 9 -1 17 2 17 7 0
15 40 10 46 -6z m-1894 -59 c-50 -53 -63 -89 -71 -209 -8 -122 -12 -134 -71
-202 -43 -50 -51 -86 -25 -122 9 -12 22 -40 29 -61 12 -33 12 -43 -2 -73 l-16
-34 -6 68 c-5 46 -14 77 -28 97 -29 39 -27 67 8 115 71 97 83 124 91 208 11
129 30 181 86 248 23 27 29 30 31 15 2 -10 -10 -32 -26 -50z m121 42 c-11 -44
-63 -101 -63 -70 0 10 58 92 64 92 2 0 2 -10 -1 -22z m-387 -64 c-40 -87 -66
-235 -72 -406 -4 -144 -7 -168 -19 -156 -12 11 -6 220 8 308 9 52 18 112 21
134 6 43 78 204 84 187 2 -6 -8 -36 -22 -67z m776 26 c-4 -15 -40 -93 -133
-287 -37 -78 -82 -177 -99 -220 -38 -98 -63 -140 -85 -140 -20 0 -19 4 38 132
86 194 161 341 192 375 18 20 65 125 65 146 0 9 6 14 13 11 6 -2 11 -10 9 -17z
m5332 -2 c9 -12 16 -35 16 -50 0 -21 5 -28 20 -28 11 0 20 -3 21 -7 0 -5 3
-17 6 -28 7 -30 7 -48 -2 -67 -6 -15 -2 -18 19 -18 19 0 26 -5 26 -20 0 -13
12 -25 35 -34 19 -8 35 -21 35 -28 0 -7 6 -24 13 -38 28 -56 40 -106 28 -128
-16 -30 -14 -40 12 -44 18 -2 23 -10 25 -43 2 -22 8 -45 13 -51 6 -7 4 -16 -7
-25 -13 -10 -17 -10 -24 1 -11 18 -50 160 -50 183 0 62 -107 213 -227 320 -56
50 -58 54 -48 82 5 17 14 33 20 37 20 15 54 8 69 -14z m-3100 -118 c-13 -13
-64 42 -64 68 0 12 11 6 37 -20 27 -27 34 -41 27 -48z m-3787 -32 c-3 -57 -15
-143 -26 -191 -12 -51 -21 -122 -21 -170 -1 -156 -41 -275 -136 -399 -44 -56
-74 -74 -74 -43 0 21 40 99 94 182 58 92 66 120 72 248 3 61 14 148 24 195 11
47 21 110 24 141 5 54 32 139 44 139 2 0 2 -46 -1 -102z m663 -85 c-12 -54
-24 -143 -27 -198 -5 -115 -10 -138 -22 -115 -16 28 -21 115 -11 170 6 30 17
93 24 140 15 91 23 117 40 139 20 26 18 -33 -4 -136z m6583 140 c-7 -2 -21 -2
-30 0 -10 3 -4 5 12 5 17 0 24 -2 18 -5z m-4283 -81 c0 -83 -5 -99 -27 -81
-17 15 -18 145 0 152 25 11 27 5 27 -71z m-870 54 c0 -8 -9 -24 -20 -37 l-20
-24 17 38 c18 40 23 45 23 23z m-1003 -18 c-3 -8 -6 -5 -6 6 -1 11 2 17 5 13
3 -3 4 -12 1 -19z m687 -62 c-26 -31 -52 -56 -57 -56 -12 0 5 22 57 77 57 61
57 45 0 -21z m-700 0 c-3 -21 -8 -35 -11 -32 -2 2 -1 20 3 40 3 21 8 35 11 32
2 -2 1 -20 -3 -40z m1291 -2 c-23 -36 -30 -23 -9 18 10 18 19 27 22 20 2 -7
-4 -24 -13 -38z m-454 -27 c-18 -18 -25 2 -10 30 14 26 14 26 17 4 2 -13 -1
-28 -7 -34z m887 -32 c-23 -48 -51 -75 -64 -63 -8 9 21 73 55 117 23 31 26 32
29 14 2 -11 -7 -42 -20 -68z m352 21 c0 -20 -1 -20 -20 4 -11 14 -20 34 -19
45 0 19 1 19 19 -4 11 -13 20 -33 20 -45z m1260 41 c0 -12 -7 -33 -16 -45 -13
-18 -19 -21 -30 -11 -19 16 -18 35 6 59 26 26 40 25 40 -3z m-2196 -19 c-26
-52 -64 -87 -64 -60 0 9 69 92 76 92 2 0 -3 -15 -12 -32z m2516 0 c0 -6 -6 -5
-15 2 -8 7 -15 14 -15 16 0 2 7 1 15 -2 8 -4 15 -11 15 -16z m-3083 -31 c-14
-18 -48 -72 -76 -120 -47 -78 -81 -110 -81 -74 0 36 65 140 117 187 61 56 80
59 40 7z m5681 36 c-16 -2 -40 -2 -55 0 -16 2 -3 4 27 4 30 0 43 -2 28 -4z
m-4219 -82 c2 -31 -17 5 -22 44 l-6 40 14 -35 c7 -19 14 -42 14 -49z m3555 46
c84 -47 83 -66 0 -23 -93 48 -105 56 -79 56 11 0 47 -15 79 -33z m-3783 -18
c-6 -24 -9 -28 -10 -12 -1 24 9 56 16 50 2 -3 0 -20 -6 -38z m1049 13 c0 -15
-2 -15 -10 -2 -13 20 -13 33 0 25 6 -3 10 -14 10 -23z m642 -19 c20 -21 40
-47 46 -59 10 -18 3 -17 -79 15 -64 25 -89 40 -89 53 0 15 15 21 70 27 9 0 32
-16 52 -36z m-4486 -26 c17 -289 17 -316 1 -349 -8 -18 -18 -47 -22 -65 -8
-42 -65 -115 -110 -143 -60 -37 -76 -1 -24 58 67 76 99 195 99 371 0 98 3 118
21 148 25 41 32 37 35 -20z m1894 -49 c-57 -109 -92 -153 -98 -126 -6 30 43
122 90 172 25 25 48 46 51 46 4 0 -15 -42 -43 -92z m314 55 c-19 -44 -78 -138
-93 -147 -23 -15 26 98 67 152 33 43 45 41 26 -5z m261 7 c-9 -16 -20 -63 -25
-102 -6 -40 -14 -91 -20 -113 -5 -22 -10 -62 -10 -89 0 -36 -3 -47 -11 -39 -8
8 -6 52 7 159 14 125 21 154 41 182 30 40 38 41 18 2z m1625 22 c0 -5 39 -41
86 -81 47 -40 83 -75 80 -79 -12 -12 -206 137 -206 159 0 5 9 9 20 9 11 0 20
-4 20 -8z m-2480 -6 c0 -3 -4 -8 -10 -11 -5 -3 -10 -1 -10 4 0 6 5 11 10 11 6
0 10 -2 10 -4z m2060 -22 c0 -8 -4 -14 -10 -14 -5 0 -10 2 -10 4 0 2 -3 12 -6
20 -5 12 -2 15 10 10 9 -3 16 -12 16 -20z m-2270 -25 c0 -24 -17 -59 -29 -59
-16 0 -19 39 -4 59 18 27 33 27 33 0z m2519 -5 c12 -15 21 -34 21 -43 0 -12
-6 -10 -21 9 -11 14 -24 33 -30 43 -16 27 7 21 30 -9z m-2365 -62 c-21 -34
-29 -42 -32 -29 -2 10 9 39 24 65 21 34 29 42 32 29 2 -10 -9 -39 -24 -65z
m2830 72 c18 -7 71 -74 58 -74 -18 0 -103 61 -97 70 7 11 17 12 39 4z m-4217
-76 c-10 -15 -15 -53 -16 -108 -1 -78 0 -83 14 -66 11 14 15 44 15 103 0 49 4
83 10 83 17 0 11 -112 -9 -192 -19 -73 -80 -212 -103 -233 -8 -7 -9 -6 -4 2
18 32 56 146 45 136 -7 -7 -16 -13 -20 -13 -3 0 -6 78 -5 173 1 108 5 171 11
170 6 -1 17 -4 26 -8 10 -4 23 0 30 8 12 13 14 12 17 -8 2 -13 -3 -34 -11 -47z
m1844 50 c-44 -53 -59 -77 -65 -103 -13 -54 -66 -90 -66 -46 0 20 129 176 137
167 3 -3 0 -11 -6 -18z m4675 -11 c12 -17 38 -61 58 -97 l37 -65 -35 40 c-38
43 -102 155 -89 155 4 0 18 -15 29 -33z m-4965 5 c-5 -10 -18 -25 -28 -33 -12
-10 -11 -5 6 19 24 35 38 43 22 14z m835 -21 c-9 -10 -16 -23 -16 -29 0 -7 -7
-12 -15 -12 -21 0 -19 6 12 47 15 19 29 30 31 24 2 -7 -3 -20 -12 -30z m350
24 c11 -27 -2 -37 -14 -11 -7 16 -8 26 -1 26 5 0 12 -7 15 -15z m554 -7 c0 -6
16 -44 36 -85 19 -41 34 -79 32 -85 -2 -6 -23 27 -46 73 -40 81 -53 127 -32
114 6 -3 10 -11 10 -17z m-680 -33 c0 -14 -4 -25 -10 -25 -11 0 -14 33 -3 43
11 11 13 8 13 -18z m-1854 -32 c-4 -16 -11 -81 -16 -145 -9 -105 -14 -126 -48
-200 -22 -46 -47 -100 -56 -121 -10 -21 -29 -55 -42 -74 -13 -20 -24 -49 -24
-66 0 -45 -39 -165 -67 -208 -17 -26 -28 -60 -33 -106 -9 -88 -29 -126 -97
-190 -46 -43 -55 -56 -51 -78 5 -22 2 -26 -16 -23 -16 2 -22 11 -24 41 -3 34
2 42 56 95 73 70 78 80 87 165 6 52 12 71 27 80 40 25 63 78 68 162 5 66 11
87 32 115 14 19 50 82 79 140 l54 105 1 120 c2 158 0 149 30 184 32 39 49 40
40 4z m446 -116 c-2 -4 -8 -5 -13 -2 -11 7 -12 88 -1 99 7 8 21 -82 14 -97z
m918 6 c0 -70 -4 -95 -20 -120 -11 -18 -26 -33 -34 -33 -12 0 -10 12 9 65 16
40 25 86 25 120 0 30 5 55 10 55 6 0 10 -36 10 -87z m-780 45 c0 -30 -15 -52
-29 -44 -8 5 -6 16 6 37 21 35 23 36 23 7z m1070 -29 c-16 -36 -20 -40 -20
-19 0 25 28 76 36 67 2 -2 -5 -24 -16 -48z m324 -21 c15 -23 14 -28 -11 -86
-19 -42 -33 -62 -45 -62 -15 0 -18 9 -18 48 0 43 22 141 38 167 3 5 9 -2 13
-16 3 -14 14 -37 23 -51z m1341 -26 c-8 -8 -83 48 -101 76 -13 19 -1 13 45
-23 34 -26 59 -50 56 -53z m-573 31 c15 -22 28 -58 31 -86 l5 -49 -19 31 c-34
57 -70 159 -51 147 5 -3 20 -22 34 -43z m-976 14 c12 -31 -33 -93 -53 -73 -8
7 29 86 40 86 4 0 10 -6 13 -13z m414 -31 c0 -17 -39 -66 -40 -50 0 23 22 74
31 68 5 -3 9 -11 9 -18z m-500 -104 c0 -44 -23 -82 -51 -82 -24 0 -24 22 0 44
11 10 23 31 26 47 9 41 25 36 25 -9z m4185 28 c-3 -5 -16 -10 -28 -9 -20 1
-20 2 3 9 14 4 26 8 28 9 2 1 0 -3 -3 -9z m-3044 -17 c13 -16 12 -17 -3 -4
-10 7 -18 15 -18 17 0 8 8 3 21 -13z m-743 -61 c-4 -32 -38 -45 -38 -13 0 11
5 32 11 48 9 25 11 26 20 10 6 -10 9 -30 7 -45z m908 11 c32 -34 144 -201 144
-214 0 -5 -4 -9 -9 -9 -5 0 -16 -2 -24 -6 -10 -3 -16 4 -20 24 -3 16 -30 65
-60 108 -30 44 -59 89 -66 102 -17 32 4 29 35 -5z m-830 -45 c-8 -50 -67 -301
-72 -307 -15 -17 -10 27 21 170 19 90 35 167 35 171 0 5 5 8 11 8 8 0 9 -14 5
-42z m-2864 -65 c-22 -37 -62 -93 -89 -123 -75 -86 -119 -150 -174 -252 -49
-92 -58 -81 -14 19 33 73 70 125 165 229 45 49 96 115 113 146 18 31 34 55 36
53 2 -3 -15 -35 -37 -72z m259 20 c-9 -16 -10 -16 -11 4 0 12 3 30 7 40 7 16
8 16 11 -4 2 -12 -1 -30 -7 -40z m3209 27 c6 -11 8 -20 6 -20 -3 0 -10 9 -16
20 -6 11 -8 20 -6 20 3 0 10 -9 16 -20z m-2950 0 c0 -5 -8 -14 -19 -19 -18
-10 -84 -112 -95 -148 -3 -10 -8 -34 -11 -53 -20 -119 -48 -188 -117 -288 -27
-41 -72 -124 -99 -184 -53 -118 -62 -176 -33 -216 19 -27 1 -31 -33 -7 -33 23
-37 70 -12 150 27 90 48 130 121 238 53 79 106 194 152 330 24 71 53 123 93
167 35 39 53 50 53 30z m3144 -51 c20 -33 36 -70 36 -82 -1 -22 -1 -22 -16 -2
-16 20 -74 130 -74 140 0 20 23 -4 54 -56z m-967 7 c-4 -9 -13 -16 -22 -16
-18 0 -19 5 -4 32 13 24 35 9 26 -16z m-2557 -40 c-13 -41 -69 -130 -76 -123
-4 3 10 30 30 60 20 30 36 63 36 75 0 11 3 29 7 39 13 33 16 -12 3 -51z m2377
12 c-3 -7 -5 -2 -5 12 0 14 2 19 5 13 2 -7 2 -19 0 -25z m1021 2 c29 -39 45
-80 31 -80 -21 0 -69 59 -69 84 0 34 11 33 38 -4z m-3687 -69 c-12 -16 -39
-44 -60 -60 -37 -30 -114 -139 -161 -229 -23 -43 -40 -62 -40 -42 0 18 70 150
79 150 5 0 18 15 30 33 22 34 164 186 170 181 2 -2 -6 -16 -18 -33z m2904 -41
c-24 -46 -28 -32 -8 31 14 45 18 50 21 27 2 -15 -4 -41 -13 -58z m650 47 c-5
-19 0 -27 27 -41 31 -17 46 -35 86 -103 12 -21 11 -23 -10 -23 -17 0 -29 12
-46 44 -13 24 -39 61 -58 81 -39 42 -43 65 -14 65 16 0 19 -5 15 -23z m-3196
-29 c-7 -18 -41 -69 -76 -113 -77 -97 -160 -261 -208 -412 -20 -61 -51 -136
-70 -167 -40 -66 -105 -145 -121 -146 -6 0 6 18 27 41 56 61 107 166 129 266
23 107 79 245 120 293 16 19 69 90 117 157 48 66 90 119 92 117 2 -2 -2 -18
-10 -36z m-419 18 c0 -2 -8 -10 -17 -17 -16 -13 -17 -12 -4 4 13 16 21 21 21
13z m3827 -103 c-12 -11 -36 30 -36 62 0 30 1 29 21 -12 12 -24 19 -46 15 -50z
m258 37 c-9 -14 -25 5 -25 30 0 12 3 12 16 -2 9 -9 13 -21 9 -28z m-916 3
c-12 -33 -50 -95 -54 -91 -3 3 8 56 21 106 2 6 12 12 23 12 18 0 19 -3 10 -27z
m201 -60 c0 -10 -5 -25 -10 -33 -7 -11 -10 -7 -10 18 0 17 5 32 10 32 6 0 10
-8 10 -17z m-3141 -12 c-8 -10 -35 -45 -62 -77 -26 -33 -62 -87 -79 -121 -18
-34 -34 -60 -36 -58 -12 12 159 275 180 275 6 0 5 -7 -3 -19z m3046 -89 c-3
-3 -13 1 -21 10 -14 14 -14 19 3 49 l18 34 3 -44 c2 -23 1 -46 -3 -49z m202
-24 c-3 -7 -5 -2 -5 12 0 14 2 19 5 13 2 -7 2 -19 0 -25z m-3767 7 c12 -15 9
-20 -159 -232 -14 -18 -30 -33 -35 -33 -19 0 2 108 33 173 28 59 39 72 74 88
51 23 71 24 87 4z m171 -198 c-11 -32 -28 -67 -37 -80 -9 -12 -14 -15 -11 -7
54 140 86 197 48 87z m-46 7 c16 -24 15 -26 -7 -49 -30 -30 -81 -101 -103
-144 -9 -18 -29 -44 -43 -57 l-27 -23 -17 22 c-10 12 -18 27 -18 33 0 12 84
135 138 202 40 49 53 52 77 16z m121 -213 c-37 -74 -114 -170 -138 -171 -5 0
1 10 11 23 67 78 103 126 123 163 32 60 35 47 4 -15z m3234 29 c9 -17 8 -20
-10 -20 -13 0 -20 7 -20 20 0 11 4 20 10 20 5 0 14 -9 20 -20z m847 8 c4 -7
15 -33 24 -58 28 -78 208 -524 219 -542 5 -10 10 -27 10 -39 0 -35 20 -60 65
-79 48 -21 65 -44 65 -89 l0 -31 -47 6 c-27 4 -52 13 -58 21 -66 98 -102 159
-164 278 -41 76 -82 151 -93 166 -11 15 -24 44 -29 66 -17 84 -28 115 -57 167
-31 53 -31 54 -11 71 10 10 19 31 19 47 0 23 4 28 24 28 14 0 28 -6 33 -12z
m-3932 -288 c-3 -5 -15 -10 -26 -10 -11 0 -17 5 -14 10 3 6 15 10 26 10 11 0
17 -4 14 -10z m4380 -611 c11 -17 -1 -21 -15 -4 -8 9 -8 15 -2 15 6 0 14 -5
17 -11z"/>
<path d="M2552 5345 c-8 -38 -16 -79 -18 -90 -2 -11 5 -1 17 23 13 29 19 58
17 90 l-3 47 -13 -70z"/>
<path d="M2507 5156 c-10 -38 -20 -99 -22 -135 -2 -36 -2 -55 1 -41 3 14 14
59 25 101 11 42 19 92 17 110 -3 30 -5 26 -21 -35z"/>
<path d="M2457 4873 c-23 -107 -32 -193 -18 -173 19 27 42 146 39 201 l-3 54
-18 -82z"/>
<path d="M2408 4647 c-10 -21 -53 -74 -96 -120 -43 -45 -94 -104 -112 -131
-34 -51 -103 -203 -98 -217 2 -4 48 56 103 133 55 78 121 167 146 198 58 71
81 114 77 147 -3 25 -4 25 -20 -10z"/>
<path d="M3134 5482 c-12 -20 -34 -59 -49 -86 -16 -27 -23 -46 -17 -42 7 4 12
1 12 -8 0 -39 39 3 83 90 21 41 23 52 12 67 -16 23 -17 23 -41 -21z"/>
<path d="M7730 5806 c0 -2 8 -10 18 -17 15 -13 16 -12 3 4 -13 16 -21 21 -21
13z"/>
<path d="M7081 5585 c5 -4 105 -69 137 -89 6 -4 12 -5 12 -2 0 6 -137 96 -146
96 -4 0 -5 -2 -3 -5z"/>
<path d="M2952 4711 c-6 -17 -9 -31 -6 -31 7 0 25 52 20 57 -2 2 -8 -10 -14
-26z"/>
<path d="M9231 6724 c-1 -12 6 -28 16 -35 15 -13 15 -12 6 6 -6 11 -13 27 -16
35 -4 10 -6 8 -6 -6z"/>
<path d="M5924 3395 c0 -55 1 -76 3 -47 2 29 2 74 0 100 -2 26 -3 2 -3 -53z"/>
<path d="M5922 3270 c0 -14 2 -19 5 -12 2 6 2 18 0 25 -3 6 -5 1 -5 -13z"/>
</g>
</svg>
