<?xml version="1.0" standalone="no"?>
<!DOCTYPE svg PUBLIC "-//W3C//DTD SVG 20010904//EN"
 "http://www.w3.org/TR/2001/REC-SVG-20010904/DTD/svg10.dtd">
<svg version="1.0" xmlns="http://www.w3.org/2000/svg"
 width="834.000000pt" height="834.000000pt" viewBox="0 0 834.000000 834.000000"
 preserveAspectRatio="xMidYMid meet">
<metadata>
Created by potrace 1.14, written by Peter Selinger 2001-2017
</metadata>
<g transform="translate(0.000000,834.000000) scale(0.100000,-0.100000)"
fill="#000000" stroke="none">
<path d="M3909 8336 c-2 -2 -44 -7 -94 -10 -49 -4 -103 -9 -120 -11 -16 -2
-52 -7 -80 -10 -102 -13 -122 -16 -225 -36 -897 -174 -1701 -624 -2305 -1290
-100 -110 -122 -136 -206 -244 -294 -378 -516 -792 -665 -1240 -46 -138 -95
-311 -109 -385 -2 -12 -6 -29 -9 -38 -3 -9 -8 -30 -11 -47 -2 -16 -7 -41 -10
-55 -11 -55 -35 -198 -40 -245 -3 -27 -8 -64 -10 -81 -28 -201 -27 -736 0
-944 3 -19 7 -55 10 -80 6 -51 8 -63 40 -245 8 -50 58 -261 66 -282 5 -13 11
-36 14 -51 6 -35 78 -255 111 -341 183 -472 440 -903 758 -1266 71 -82 295
-308 376 -380 407 -363 909 -654 1434 -831 183 -62 453 -132 576 -150 19 -3
46 -7 60 -10 44 -8 129 -21 195 -30 60 -8 95 -10 245 -20 1065 -67 2119 280
2934 965 150 126 321 292 438 426 23 27 50 56 58 65 89 94 288 372 404 564
232 384 413 847 501 1281 31 154 35 173 40 215 3 19 10 67 15 105 20 141 34
355 34 535 0 123 -11 357 -19 415 -2 17 -6 53 -10 80 -5 51 -14 114 -20 150
-2 11 -6 40 -10 65 -23 161 -108 486 -175 675 -89 249 -228 551 -326 707 -13
21 -24 40 -24 43 0 12 -178 275 -254 375 -178 236 -383 455 -590 634 -72 62
-143 121 -157 132 -14 10 -59 44 -100 75 -73 55 -314 219 -322 219 -2 0 -40
22 -84 48 -350 210 -929 423 -1323 486 -19 3 -44 8 -56 10 -12 2 -45 7 -74 11
-29 4 -61 8 -71 10 -10 2 -49 7 -86 11 -37 3 -79 8 -93 11 -31 5 -626 14 -631
9z"/>
</g>
</svg>
