<?xml version="1.0" encoding="UTF-8"?><svg id="Layer_2" xmlns="http://www.w3.org/2000/svg" viewBox="0 0 386.09 159.51"><defs><style>.cls-1{fill:#fff;stroke-width:0px;}</style></defs><g id="Layer_1-2"><path class="cls-1" d="M68.91,77.03c-4.02-.32-8.19-1.5-12.35-1.7-5.52-.27-11.06-.15-16.59-.11-2.31.02-3.28-.8-2.88-3.23.52-3.16,1.23-6.07,2.69-9.09,2.43-5.01,3.61-10.64,5.13-16.07.9-3.23,1.39-4.15,4.76-4.04,9.05.28,17.71-2.21,26.52-3.52,6.76-1,13.43-2.66,20.34-2.33,1.96.09,3.76.02,4.92,2.2.99,1.87,2.76,1.89,4.7,1.17,1.91-.7,2.88-1.79,3.04-3.88.2-2.55-.04-4.77-2.76-5.79-2.06-.77-4.16-1.91-6.27-1.95-8.06-.18-16.13-.03-24.19.1-1.93.03-3.86.45-5.79.72-5.58.79-11.16,1.68-16.75,2.36-2.48.3-4.84.23-7.11-1.63-2.41-1.97-5.66-1.7-7.89.32-1.63,1.48-3.35,1.76-5.19,2.18-6.03,1.37-12.13,2.48-18.08,4.12-3.23.89-6.17,2.45-9.75,2.2-1.96-.13-4.17.64-4.83,3.19-.7,2.72-1.18,6.18,1.16,7.47,2.93,1.6,5.66,4.48,9.59,3.84.29-.05.61-.12.85-.27,2-1.26,4.1-2.38,5.95-3.84,4.2-3.31,8.99-4.92,14.2-5.59,1.39-.18,2.13.31,1.8,1.66-.85,3.43-1.76,6.86-2.81,10.23-1.63,5.2-3.53,10.32-5.07,15.55-.99,3.35-2.88,5.76-5.92,7.32-.93.48-1.95.77-2.89,1.22-2.28,1.08-4.85,4.7-4.18,6.09,1.15,2.39,2.18,4.93,3.81,6.96,2.16,2.69,1.71,5.57.43,7.86-1.74,3.11-2.6,6.21-2.74,9.67-.09,2.24.11,4.65-.65,6.67-3.02,8.03-3.86,14.67-1.5,26.3.74,3.63-.93,11.93,1.77,14.56,2.92,2.85,7.45,1.72,8.45-2.86,1.86-8.54.77-15.19.75-17.11-.03-4.15.79-21.11,1.98-25.13,1.85-6.25,2.91-12.73,4.38-19.1,1.28-5.57,2.16-6.47,7.85-6.51,13.46-.07,16.4-1.77,29.85-1.26,6.2.23,17.93-7.62,1.27-8.96Z"/><path class="cls-1" d="M227.92,61.9c-.25-2.08-3.64-2.78-5.55-2.98-7.27-.76-14.62,1.43-21.74,2.51-2.76.42-5.57.56-8.35.77-2.02.15-7.05,1.49-8.88.56-3.06-1.55,0-12.33.39-15.67,1.19-10.21,5.6-22.71,2.77-32.96-3.32-12.01-18.99-1.51-24.18,2.76-16.14,13.29-27.64,31.55-39.33,48.58-2.59,3.77-4.8,10.82-8.27,13.59-3.27,2.61-8.34,0-10.81,4.42s2.3,7.62,1.41,11.89c-1.05,5.05-4.75,8.84-7.51,12.99s-5.91,8.58-8.7,12.94c-2.97,4.62-4.22,9.38-6.23,14.38-1.44,3.59-4.18,9.33.19,12.48,3.5,2.52,7.85-.77,10.06-3.35,2.97-3.47,4.68-7.92,8.01-11.09s6.29-4.2,5.8-9.26c-.54-5.51-.92-8.42,2.25-13.54,2.74-4.43,4.27-9.57,7.06-13.93,5.2-8.12,18.98-12.62,27.82-14.97,5.49-1.46,11.12-2.38,16.68-3.54,5.97-1.24,8.64-2.85,7.72,4.21-1.48,11.32-3.16,22.98-2.55,34.27.29,5.42-.93,11.44.63,16.73.72,2.44,2.08,4.46,2.5,7.05s.17,5.13,1.09,7.65c1.1,3.03,4.04,8.54,8.09,6.27s2.97-10.58,2.22-14.22c-.56-2.74-1.95-5.11-2.66-7.72s-.57-5.82-.71-8.63c-.27-5.56-.82-11.11-1.11-16.65s1.86-10.87,2.72-16.2c.6-3.72-.43-12.36,2.39-15.09s11.68-3.41,15.47-4.34c5.74-1.41,11.46-2.68,17.27-3.77,3.25-.61,11.91-1.12,13.68-4.46.34-.64.45-1.2.4-1.68ZM173.89,41.7c-.99,6.9-1.86,13.83-2.39,20.78-.1,1.3-.15,1.88-1.26,2.14-6.07,1.43-12.08,3.24-18.23,4.11-6.94.98-13.63,2.33-19.68,6.05-.63.39-1.66.13-2.51.17.1-.8-.06-1.76.33-2.37,2.85-4.43,5.8-8.8,8.74-13.17,1.22-1.81,2.47-3.61,3.78-5.35,4.04-5.37,7.95-10.84,12.23-16.02,2.49-3.02,5.54-5.59,8.42-8.28,1.9-1.78,3.9-3.45,5.9-5.12,1.2-1,2.38-2.09,3.73-2.83,3.61-1.96,3.72-1.84,3.63,2.31-.01.45,0,.9,0,1.34.07.02.13.03.2.05-.97,5.4-2.09,10.77-2.87,16.19Z"/><path class="cls-1" d="M346.79,17.77c1.12,2.06.13,7.96.06,10.31-.12,3.86-.71,7.5-1.39,11.29-1.37,7.67-.6,15.43-3.26,22.87-2.57,7.15-4.44,14.46-7.32,21.51-4.69,11.46-10,22.71-15.72,33.69-1.8,3.45-1.33,5.12,3.06,4.83,7.95-.52,14.65.98,22.12-1.39,3.25-1.03,10.57-1.02,13.82-2.06,5.39-1.72,23.27-5.92,27.59.23.13.19.68,3.96.01,4.35-2.54,1.49-5.14,2.88-7.77,4.22-3.78,1.94-17.18-.35-20.99,1.51-2.76,1.35-9.63,1.59-12.41,2.89-7.2,3.35-13.78.36-21.67,1.74-5.1.89-16.04,2.29-16.43-5.44-.28-5.65-.09-11.22,3.23-16.31,2-3.05,3.21-6.61,4.83-9.91,4.33-8.85,9.17-17.62,11.87-27.15,1.12-3.94,2.22-7.89,3.17-11.88,1.04-4.39,2.72-8.2,3.23-12.73.93-8.27,1.97-16.53,2.61-24.82.52-6.7.47-13.44.84-20.15.12-2.21-.52-4.12,1.92-5.12,1.76-.72,4.53.13,6,1.16,2.47,1.74,2.94,4.84,2.99,7.65.05,2.78-.24,5.71-.53,8.47.05.07.09.14.14.22Z"/><path class="cls-1" d="M235.96,123.34c-5.44.22-10.29-1.58-15.11-3.66-2.21-.95-3.16-2.37-3.33-4.71-.53-7.54,1.77-14.27,5.38-20.76,2.07-3.72,3.82-7.64,5.49-11.56,1.56-3.65,2.68-7.48,4.28-11.11,1.46-3.33,3.33-6.48,4.96-9.73.39-.78.76-1.66.82-2.52.33-4.82,2.29-9.13,3.99-13.53,1.12-2.89,1.98-5.77,1.37-9.02-.28-1.48.45-3.17.79-4.75.78-3.66,1.13-7.11-.3-10.9-1.11-2.94-1.01-6.46-.87-9.69.1-2.32,3.15-3.38,5.79-2.15,4.57,2.14,7.42,5.78,7.75,10.84.21,3.24-.4,6.52-.57,9.79-.14,2.53-.14,5.08-.25,7.61-.1,2.35-.43,4.47-1.61,6.75-1.95,3.75-3.42,7.95-4.08,12.13-.83,5.24-2.64,10.15-5.03,14.62-4.13,7.71-6.84,16-10.71,23.78-1.89,3.8-.25,3.97-1.81,7.93-1.21,3.07-.06,4.92,3.19,5.41,3.16.47,42.87.3,45.57-1.63,1.89-1.36,4.09-2.04,6.34-2.56,1.63-.38,3.16-.71,4.75-1.25,1.67-.56,3.41-.95,4.86.34,2.1,1.88,1.54,4.18.32,6.42-1.32,2.4-3.8,3.15-5.92,4.62-3.21,2.23-7.17,3.39-10.8,5.02-4.16,1.86-11.94.41-16.16,2.13-3.56,1.45-17.16-.07-20.27.79-2.84.78-5.86.93-8.8,1.36Z"/></g></svg>