<?xml version="1.0" encoding="UTF-8"?><svg id="Layer_2" xmlns="http://www.w3.org/2000/svg" viewBox="0 0 1267.6 447.48"><defs><style>.cls-1{fill:#fff;stroke-width:0px;}</style></defs><g id="Layer_1-2"><g id="X9NQ8H"><path class="cls-1" d="M1231.44,72.44c2.48,11.35,7.34,19.99,11.25,28.93,2.4,5.49,4.21,11.07,5.06,16.82.74,4.98,1.85,9.76,4.29,14,5.06,8.79,5.65,18.71,7.8,28.22,3.65,16.14,1.95,32.6,2.11,48.94.06,5.97-1.62,11.74-2.75,17.43-2.67,13.38-6.23,26.56-10.88,39.54-5.26,14.68-11.78,28.42-20.97,40.91-1.65,2.25-2.02,4.88-2.89,7.2-4.15,11.12-14.06,17.17-21.71,24.96-11.98,12.2-24.97,23.48-38.24,34.3-7.99,6.52-16.38,12.86-25.74,17.45-12.63,6.19-24.12,14.68-37.78,18.8-5.06,8.02-17.01,5.73-21.71,14.44-.83,1.53-3.01,1.03-4.65,1.05-1.67.02-3.3,0-4.71,1.17-8.07,6.72-18.21,8.05-27.76,11.27-11.9,4.01-24.16,5.7-36.2,8.64-2.68.65-5.1,1.31-7.66.08-3.51-1.69-7.06-1.83-10.51-.06-2.24,1.15-4.57,1.05-6.83.83-11.72-1.16-23.57-1.22-35.01-4.82-6.21-1.95-12.73-2.8-18.93-5.01-13.8-4.91-27.05-10.55-39.64-18.41-9.3-5.81-17.16-12.77-25-20.09-2.76-2.58-4.65-5.61-6.23-8.88-5.37-11.16-10.08-22.55-14.25-34.25-6.51-18.24-7.03-36.97-5.6-55.65.85-11.01.69-22.48,3.93-33.06,3.25-10.64,4.79-21.64,8.18-32.17,4.3-13.35,9.01-26.57,13.51-39.86,3.93-11.62,8.8-23.29,15.05-33.34,8.78-14.1,13.38-30.88,26.11-42.53,3.94-11.22,11.45-20.33,18.37-29.65,7.83-10.55,15.49-21.29,24.78-30.72,4.63-4.69,9.99-8.75,13.13-14.83.87-1.69,2.59-3.06,4.17-4.25,11.38-8.62,23.34-16.56,36.08-22.81,7.74-3.8,16.91-4.97,25.58-6.53,11.52-2.08,23.28-2.92,34.76-5.16,10.32-2.01,21,.93,31.12-2.83,1.47-.55,3.3-.1,4.97-.12,7.19-.08,13.78,1.69,21.66-1.27,8.84-3.32,19.23,1.4,27.97,6.08,5.49,2.94,10.87,5.69,16.88,7.63,9.71,3.14,17.65,9.86,26.11,15.38,13.5,8.83,26.91,18.16,41.59,24.5,9.17,3.97,17.62,8.4,25.49,14.27,2.98,2.22,8.29-.02,9.69,5.48.5,1.97,3.78,3.55,1.18,5.84-2.47,2.17-3.6,6.1-8.61,5.15-7.06-1.34-12.54-5.47-18.43-8.85-2.26-1.3-4.39-2.69-8.13-4.16ZM1185.61,339.55c2.96,1.68,6.66,1.48,5.76-1.87-2.11-7.84,3.62-11.05,7.41-15.45,8.72-10.11,17.73-19.75,23.58-32.21,4.1-8.74,8.52-17.48,12.11-26.38,2.69-6.68,8.62-12.45,7.69-20.37-.74-6.29.61-12.12,3.89-17.18,3.54-5.45.48-11.43,2.25-16.66,4.15-12.29,2.09-24.82,1.1-36.97-.93-11.51-5.35-22.76-8.35-34.09-1.49-5.63-5-11.39-4.35-16.7.51-4.19-.18-7.08-2.26-9.71-1.76-2.24-2.48-4.59-3.1-7.12-1.72-6.98-5.87-12.23-10.83-17.34-3.95-4.07-10.92-5.53-11.61-12.58-9.38-6.22-16.21-14.96-23.4-23.38-3.23-3.78-11.17-6-13.96-3.53-4.5,3.99-6.35.65-8.68-2.11-.85-1,1.55-3.42-1.43-3.58-5.07-.27-4.7-4.09-5.86-7.62-1.82-5.55-7.2,3.1-9.99-1.73-.97-1.69-2.76-2.92-3.7-4.62-1.01-1.83-2.59-2.34-4.12-1.91-7.37,2.07-14.16,2.63-18.59-5.37-.23-.42-1.18-.46-1.82-.63-14.32-3.73-29.24-.7-43.6-3.86-6.48,3.48-14.61.15-20.86,5.12-1.29,1.03-3.86.79-5.79.6-10.42-1.02-19.82,4.06-30.01,5.06-6.28.62-13.29,3.62-19.22,7.1-5.73,3.36-9.82,9.76-17.71,8.9-.45-.05-.97.85-1.5,1.25-7.01,5.34-13.2,11.4-18.74,18.35-5.12,6.43-8.54,14.12-15.11,19.48-9.58,7.82-16.51,18.01-22.9,28.34-10.36,16.75-19.96,33.97-29.87,51-2.64,4.55-6.34,8.84-7.61,13.75-2.92,11.23-11.45,20.58-10.83,32.93.04.78-1.07,1.61-1.61,2.44-6.38,9.78-9.42,21.02-11.67,32.07-3.17,15.62-6.97,31.12-8.9,47.08-2.33,19.32-2.1,43.87,4.47,62.29,3.65,10.24,8.74,19.74,12.74,29.76,2.28,5.7,6.75,10.84,11.86,15.33,10.91,9.58,23.89,14.74,36.95,20.21,13.91,5.82,28.37,9.92,42.54,14.89,2.34.82,4.8,1.54,6.71.45,4.14-2.37,8.45-1.25,12.69-1.53,11.9-.78,23.76,2.34,35.81-1.75,11.35-3.85,23.56-4.5,35.06-8.92,8.39-3.23,14.6-9.33,22.51-12.93,6.57-2.98,13.54-4.68,20.09-7.91,12.84-6.32,24.1-15.76,38.44-19.18,4.66-1.11,7.9-6.01,13.33-5.77.3.01,1.05-1.21.9-1.51-2.11-4.29,2.31-4.66,4.04-6.25,2.38-2.19,5.47-3.29,8.92-3.8,4-.59,9.3-1.18,5.67-7.83-.62-1.14-.2-2.83,1.04-3.53,5.78-3.29,10.77-7.56,15.82-11.82,1.05-.88,3.17-.5,4.6-.68Z"/><path class="cls-1" d="M793.86,208.37c-.37-3.03-6.51-8.89-8.97-7.86-6.49,2.73-13.13.84-19.66,1.41-8.51.73-17.34,1.66-24.82,5.22-12.47,5.94-24.96,9.68-38.82,8.86-4.26-.25-4.97-.07-9.27.96-1.79.43-6.02,2.68-6.03,4.28-.02,10.64,4.17,10.84,9.17,9.12,5.56-1.91,10.21,1.26,12.26,7.04,7.44,20.97-2.49,36.32-21.57,45.18-3.61,1.67-6.89-.27-9.13-4.74-1.85-3.68-3.06-11.31-3.06-20.08-1.2-9.18-.55-17.53.71-27.22.19-1.48,5.4-15.6,5.86-17.05,2.58-8.07,8.52-17.23,12.21-24.8,4.3-8.82,10.64-16.67,14.78-25.54,3.35-7.18,8.44-12.07,14.6-16.37,1.42-.99,2.13-2.92,4.32.02,2.77,3.72,8.19,2.68,8.49-1.45.29-4.07,3.17-8.68-1.34-12.76-3.86-3.49-8.08-2.85-12.15-2.03-2.76.55-5.2,2.59-7.61,4.46-6.01,4.66-11.62,10.25-14.97,16.49-3.1,5.79-19.21,12.11-12,21.1.85,1.06-.74,2.47-1.72,3.27-2.68,2.18-4.05,5.22-5.58,8.13-3.64,6.91-4.74,13.61-8.54,20.42-2.79,5-7.22,9.02-8.17,15.18-1.87,12.2-6.42,22.35-2.96,33.01.18,10.4.03,18.2,1.87,26.07,2.29,9.83,7.78,16.28,16.7,20.31,2.24,1.01,4.53,1.1,6.73.1,5.88-2.67,12.05-4.63,17.28-8.76,12.96-10.23,19.37-23.48,19.43-39.85.01-3.28.36-6.56-.52-9.87-2.05-7.78-1.93-7.81,5.18-10.69,1.2-.49,2.46-.85,3.62-1.41,12.14-5.88,24.87-9.82,38.37-10.5,6.27-.32,12.14-2.84,18.59-2.35,3.61.28,7.07-4.39,6.7-7.3Z"/><path class="cls-1" d="M340.05,245.96c-1.31,14.52-6.58,27.5-6.07,41.42.16,4.28-.18,8.04-5.87,8.38-5.76.35-8.03-1.24-8.07-7.13-.08-11.26,1.68-22.35,3.12-33.51,1.95-15.05,7.4-29.33,8.18-44.75.37-7.2,2.81-15.18,6.96-22.17,2.91-4.89,4.02-10.9,5.62-16.5,1.36-4.74,2.81-9.25,5.84-13.36,1.83-2.48,3.68-2.48,5.95-2.04,2.77.53,2.12,2.93,2.23,4.79.11,1.96.02,3.92.02,6.58,9.83-6.23,20.07-9.88,29.72-14.7,8.04-4.02,23.61,5.86,26.13,13.07,1.05,2.99-.18,1.95-.82,6.05.44,4.41,3.66,4.37,4.46,7.24.77,2.77,1.53,6.83.13,8.67-4.09,5.38-5.09,12.87-12.22,16.35-4.01,1.96-6.98,6.03-10.42,9.15-8.27,7.5-19.48,9.04-29.03,13.99-3.37,1.74-7.23,3.1-10.78,4.76-6.04,2.83-7.02,5.4-2.58,10.45,5.93,6.74,10.93,14.45,20.69,17.47,6.09,1.89,11.84,6.32,18.29,6.08,8.76-.32,17.52,1.39,26.25-.31,1.86-.36,4.53-.94,5.46,1.05,1.25,2.67-1.61,4-3.18,5.52-9.49,9.23-21.23,8.99-32.86,6.65-7.24-1.46-14.19-4.62-21.09-7.44-7.94-3.25-19.48-14.8-26.06-25.78ZM344,217.97c-.13,5.46.8,6.26,4.95,4.23,4.97-2.42,10.4-3.26,15.39-6,12.66-6.96,27.49-10.77,34.14-25.67.38-.85,1.41-1.4,2.07-2.14,3.47-3.91,4.62-10.09,2.55-13.57-4.31-7.25-9.74-10.46-16.03-8.24-11.86,4.19-22.75,9.42-29.51,21.45-3.01,5.35-5.34,11.21-9.03,16.13-3.38,4.51-2.8,9.93-4.53,13.82Z"/><path class="cls-1" d="M125.53,201.79c-3.73-3.26,9.63-9.94-.14-15.26-10.99-5.99-22.25-5.44-34.08-3.36-11.27,1.99-22.43,4.39-33.58,6.88-5.32,1.19-30.56,13.93-40.61,25.42-4.31,4.93-4.09,10.54.98,14.43,5.21,4,9.78,8.53,17.01,8.55,9.76.02,19.1,3.79,28.93,3.43,1.63-.06,3.33.09,4.9.49,15.16,3.84,30.36,7.56,45.43,11.74,4.64,1.29,9.07,3.59,13.33,5.92,4.89,2.68,6.53,11.43,3.11,15.73-1.64,2.06-3.49,4.41-5.78,5.4-14.59,6.35-27.6,16.53-43.99,18.45-4.02.47-7.59,2.07-11.28,3.33-5.36,1.82-10.67,3.16-16.43,2.84-6.92-.38-13.5,2.75-20.6,2.06-5.04-.49-9.63-1.78-14.14-3.91-1.73-.82-2.9-1.87-2.43-3.71.87-3.47,3.15-5.81,6.75-6.42,2.88-.49,6.26-3.88,8.53.81,1.28,2.65,2.77,1.94,5.28,2.05,13.17.55,25.07-4.91,37.53-7.38,8.54-1.69,16.61-6.13,24.6-9.93,4.04-1.92,9.07-1.12,12.32-5.5,3.25-4.39,3.35-6.18-2.14-7.36-4.47-.96-9.04-1.47-13.43-2.87-9.24-2.95-18.53-5.76-27.71-8.92-2.32-.8-4.56-.95-6.84-.8-11,.69-22.01-1.35-31.99-4.65-8.94-2.95-19.58-5.54-24.73-15.82-2.7-5.39-5.62-10.5-3.69-16.68,1.61-5.16,1.98-11,8.31-13.62,2.17-.9,3.3-4.01,5.34-5.55,4.38-3.32,8.31-7.13,13.91-8.95,5-1.63,9.73-4.54,14.11-7.57,8.25-5.71,18.11-4.52,27.12-6.87,7.87-2.05,16.08-2.84,24.14-4.15,10.47-1.71,20.1,2.89,30.11,4.41,4.72.71,9.51,4.39,13.07,7.93,1.97,1.96,2.55,3.99,1.23,10.09-2.34,10.82-12.33,14.63-12.41,9.35Z"/><path class="cls-1" d="M545.42,178.9c-5.38,11.48-10.2,20.35-9.68,31.16.18,3.64-.84,8.06-3.91,10.83-4.28,3.85-5.12,9.1-6.24,14.12-.73,3.26-.47,6.51-3.47,9.02-1.47,1.23-1.9,3.19.87,4.57,1.47.73,1.06,2.87.34,4.51-5.04,11.35-5.91,23.8-9.18,35.62-.69,2.49-1.71,4.95-2.1,7.52-.83,5.43-5.06,3.58-7.82,3.2-3.41-.47-5.07-2.78-2.91-6.52,1.21-2.09,1.1-4.59-.15-6.67-1.59-2.64-.77-4.77.19-7.43,5.08-14.09,8.74-28.65,13.15-42.92,5.84-18.95,8.7-38.79,16.01-57.06,4.03-10.07,6.56-20.65,11.22-30.48,2.32-4.88,6.11-4.05,10.03-4.36,4.71-.37,3.69,3.72,5.13,5.92,1.18,1.81,1.13,3.8,1.05,5.77-.73,18.02,1.93,35.73,6.21,53.08,3.97,16.08,9.36,31.81,14.32,48.36,2.66-.96,4.19-2.79,5.33-5.04,4.12-8.08,7.83-16.32,12.55-24.14,3.09-5.12,4.22-11.59,5.49-17.61,1.73-8.19,5.51-15.4,9.43-22.62,2.45-4.51,8.6-8.54,1.85-14.25-.16-.14-.18-.53-.15-.79.63-4.83,9.7-14.2,14.25-14.6,1.59-.14,3.48-.34,4.33,1.51.55,1.21.63,2.7-.35,3.78-6.23,6.86-6.05,15.64-7.19,23.99-.28,2.02-.63,3.74-1.88,5.47-3.7,5.12-5.26,10.85-6.61,17.16-1.78,8.31-1.51,17.29-5.41,24.95-5.92,11.62-11.69,23.42-20.02,33.64-5.91,7.25-14.36,7.28-19.81-.5-1.8-2.56-5.56-3.52-5.95-6.19-1.69-11.49-8.81-21.18-10.41-32.65-1.21-8.73-2.14-17.54-4.13-26.1-1.71-7.34-3-14.75-4.39-24.24Z"/><path class="cls-1" d="M226.73,190.26c2.83-6.82,23.88-35.2,35.7-38.68,5.42-1.6,9.61-3.99,15.59-.84,5.71,3.01,9.02,7.5,9.44,12.88.74,9.44,2.17,19.13-1.33,28.48-2.89,7.73-7.04,14.35-13.21,20.17-9.04,8.53-19.21,15.61-28.54,23.75-5.3,4.62-12.3,7.28-18.49,10.9-1.61.94-3.6,1.34-3.92,3.93-1.07,8.41-3.54,16.53-4.21,25.11-1.01,13.05-1.3,26.16-3.15,39.18-.63,4.48.52,9.41-1.38,13.83-.81,1.88-1.25,4.97-4.44,4.53-2.6-.36-5.76-1.28-6.43-3.8-.84-3.13-3.14-5.93-2.41-9.49,2-9.71,1.91-19.68,3.01-29.49,1.28-11.41,5.64-22.58,4.71-33.94-1.05-12.89-2.05-25.34,4.11-37.31.68-1.33.12-3.28.18-4.94.26-6.56.21-13.01,1.6-19.63,1.5-7.16.59-14.88.31-22.34-.16-4.26,1.74-7.59,3.41-11.18,1.14-2.45,2.71-4.19,5.24-2.98,2.14,1.03,5.38,1.36,5.42,4.99.04,3.03-.82,5.5-2.26,8.31-2.88,5.63-3.12,11.82,1.03,18.56ZM226.38,233.73c6.24-4.47,11.26-8.85,16.98-11.99,10.59-5.82,18.55-14.12,25.77-23.58,2.69-3.52,4.2-6.97,5.57-11.12,1.99-6.01.68-11.84,1.26-17.71.27-2.78-.05-5.69-3.04-6.7-3.11-1.05-6.48-1.51-9.43.93-2.55,2.1-4.95,4.4-7.39,6.59-6.2,5.55-12.53,11.44-16.26,18.85-6.89,13.68-12.7,27.9-13.45,44.72Z"/><path class="cls-1" d="M477.97,165.88c1.35,13.2.06,26.46-.78,39.55-.47,7.37-3.86,15.02-6.33,22.39-4.88,14.58-6.79,29.83-10.76,44.61-.33,1.25-.3,2.68-.08,3.96.41,2.4-1.5,5.71,1.9,6.98,3.11,1.16,4.86-1.06,6.11-3.64.95-1.97,2.34-1.97,3.97-.75,1.28.96,1.28,1.97.62,3.38-2.32,4.99-5.89,9.16-10.81,11.13-6.67,2.67-15.34-4.17-15.76-12.16-.46-8.56,1.19-16.93,3.73-25.09,1.47-4.74,3.06-9.56,2.11-14.5-1.29-6.76,3.28-11.89,4.55-17.97,4.49-21.57,9.2-43.04,10.5-65.14.15-2.53-3.5-2.38-1.76-4.5,1.44-1.76,2.79-3.71,5.42-4.02,2.76-.33,3.12,1.9,4.12,3.51,3.4,5.5,3.49,5.84,3.26,12.26Z"/><path class="cls-1" d="M1065.95,132.33c-1.58-9.11,4.22-16.2,10.06-22.79,3.69-4.17,9.81-4.88,14.78-2.66,4.03,1.8,7.92,5.16,7.17,10.84-.13.98-.02,1.99,0,2.99.06,3.67,4.49,7.2.51,10.99-2.9,2.76-.29,6.27-1.86,9.67-4.11,8.94-3.01,19.22-5.47,28.74-.64,2.49.35,5.74,2.23,8.15,2.46,3.16,4.75.04,7.12-.2,8.85-.89,16.12-6.68,24.9-7.92,4.96-.7,7.28-4.6,7.84-8.87,2.49-19.09,9.34-37.49,8.84-57.06-.07-2.58-1.91-6.02,2.06-7.87,3.8-1.77,6.14-.4,9.45,1.98,4.92,3.55,8.54,7.06,8.37,13.42-.09,3.34-.84,5.52-4.53,2.74-1.82-1.37-2.44-2.25-3.67,1.04-2.6,6.89.9,13.89-1.6,20.83-2.07,5.73-2.39,12.09-3.52,18.16-.18.95-.75,1.94.29,2.69.85.61,1.71.52,2.7.02,4.5-2.27,8.79-4.81,10.27-10.04.51-1.82,1.09-3.1,3.13-3.01,2.77.12,2.56,2.22,2.97,4.21,1.69,8.08-3.62,12.78-8.44,17.62-1.81,1.82-4.42,2.81-6.52,4.39-5.74,4.3-9.25,9.06-9.42,17.23-.29,13.83-2.17,27.7-4.56,41.35-.75,4.28,1.36,7.45,1.09,11.39-.63,9.26-.35,18.6-.14,27.9.13,5.87-.93,11.78,1.64,17.61,1.73,3.94-1,7.06-4.32,9.06-3.86,2.32-8.03.53-9.27-3.88-3.33-11.76-6.27-23.51-4.18-35.98,1.69-10.06-.43-20.29,1.12-30.51,1.71-11.28,2.07-22.76,4.65-33.96.43-1.88,1.04-4.17-.58-5.68-1.99-1.85-3.73.43-5.29,1.19-9.85,4.75-19.66,8.82-31.12,8.07-4.96-.32-8.4-1.99-10.91-5.6-4.88-7-6.89-14.81-5.39-23.39,1.51-8.66,4.85-16.85,6.03-25.68.56-4.16,3.22-8.39,3.52-12.96.15-2.24.56-4.63-1.26-6.63-2.18-2.39-5.45-1.78-5.45.43,0,7.2-10.4,9.73-7.53,17.99.41,1.18-1.56,3.2-3.24,3.2-2.98.02-2.33-2.55-2.43-4.42-.07-1.33-.01-2.66-.01-4.81Z"/><path class="cls-1" d="M937.78,263.12c4.34.88,7.4.94,10.65-.56,11.12-5.11,23.11-6.96,35.09-8.75.97-.15,2.25.08,2.88-.46,14.52-12.49,33.61-14.94,50.29-22.66,8.23-3.81,15.62-8.14,20.67-15.69,1.46-2.19,2.77-4.06,5.32-2.47,2.01,1.25,1.01,3.36.35,5.33-6.52,19.36-16.51,25.95-34.42,32.28-11.59,4.09-24.44,5.55-34.18,14.16-1.35,1.19-2.95,1.33-4.56,1.71-17.76,4.22-34.56,12.03-52.96,13.92-3.18.33-6.46,1.56-9.27,3.13-6.39,3.58-12.75.29-19.1.49-2.17.07-2.36-1.83-2.57-3.53-.55-4.55.17-8.59,4.21-11.45,11.22-7.93,19.64-19.45,32.54-25.24,1.49-.67,1.97-2.43,3.28-3.53,13.22-11.1,27.65-20.88,39-34.03,10.25-11.87,19.75-24.33,25.38-39.23,1.57-4.16-1.1-8.41-5.62-8.46-10.5-.11-20.54.6-30.61,5.31-6.22,2.91-13.51,5.54-20.53,6.13-4.8.41-7.21,4.34-11.71,4.77-3.34.32,3.26,2.24.21,3.48-1.47.6-4.05-.13-4.71.78-2.65,3.63-3.73,1.73-4.66-.97-1.4-4.08.41-8.37,5.13-11.5,11.4-7.55,23.21-14.21,37.13-16.01,8.11-1.05,15.7-4.62,24.19-4.2,4.39.22,8.53.98,12.54,2.33,10.06,3.37,12.56,8.62,10.43,19.58-2.68,13.73-9,25.38-18.91,35.21-4.2,4.17-9.07,8.03-12.01,13-3.38,5.71-10.36,5.74-13.94,11.12-3.23,4.86-8.77,8.12-12.66,12.62-7.67,8.88-18.25,14.51-26.86,23.39Z"/></g></g></svg>