<?xml version="1.0" encoding="UTF-8"?><svg id="Layer_2" xmlns="http://www.w3.org/2000/svg" viewBox="0 0 599.66 140.38"><defs><style>.cls-1{fill:#fff;stroke-width:0px;}</style></defs><g id="Layer_1-2"><path class="cls-1" d="M382.18,111.2c-.09-5.45.16-10.95,1.26-16.05.92-4.25,1.07-8.51,1.91-12.77.75-3.83,2.4-7.15,2.86-11.09.55-4.61,1.11-9.22,1.79-13.81.19-1.26,1.11-2.41,1.37-3.68.15-.7-.37-1.54-.59-2.32-.61.31-1.43.46-1.8.95-5.54,7.22-10.37,14.88-14.66,22.92-2.21,4.14-5.21,7.85-7.59,11.92-2.23,3.81-4.62,7.66-6.01,11.8-2.73,8.16-7.05,15.48-11.09,22.96-1.25,2.31-3.15,4.35-5.1,6.14-.97.9-2.68,1.1-4.1,1.4-4.57.96-7.16-15.87-8.16-18.51-1.97-5.2-.59-10.97-.35-16.34.26-5.91.29-11.84.49-17.75.1-3.1.44-6.11,1.19-9.21.96-3.97.39-8.32.4-12.51,0-1.24-.83-1.45-1.82-.88-.38.22-.74.53-1,.89-3.89,5.5-8.19,10.66-10.89,17.01-4.18,9.84-10.32,19.23-15.29,28.72-2.68,5.11-5.46,10.22-7.3,15.7-.78,2.32-1.41,4.59-1.44,7.04s.7,4.93-.65,7.06c-1.43,2.27-7.37,7.11-10.28,5.28-2.05-1.29-1.78-5.6-2.18-7.67-.49-2.58-1.45-4.95-.96-7.59.79-4.27,2.83-9.36,5.37-12.91,2.17-3.04,4.46-5.91,6.42-9.11,4.85-7.91,8.61-16.41,13.17-24.48,2.31-4.09,5.05-7.94,7.55-11.92,1.95-3.1,3.8-6.25,5.74-9.35,3.27-5.21,6.5-10.46,9.92-15.58,2.77-4.14,5.74-8.15,8.75-12.11.96-1.26,2.19-2.51,3.58-3.21,3.71-1.86,7.9.95,7.26,4.97-.65,4.08-2.13,8.02-2.85,12.09-1.49,8.41-1.92,16.93-2.76,25.42-.35,3.54-1.51,6.9-1.83,10.44-.79,8.82-.34,17.98-.5,26.84-.01.82.4,1.64.62,2.46.81-.49,1.93-.78,2.37-1.49,5.25-8.68,10.28-17.49,15.63-26.1,2.7-4.35,5.97-8.36,8.92-12.57,3.72-5.33,6.16-11.57,10.33-16.56,3.96-4.74,7.5-9.82,10.98-14.91,2.59-3.79,5.27-8.21,9.37-10.56,2.83-1.63,8.3-1.13,9.11,2.56.54,2.47-1.04,5.93-1.66,8.27-.85,3.21-1.73,6.41-2.59,9.61-1.45,5.39-1.98,11.15-3.87,16.31-1.79,4.86-2.07,11.12-3.37,16.4-1.42,5.75-1.41,11.6-2.76,17.33-1.47,6.21-1.48,12.35-1.74,18.72-.13,3.26-.27,6.53-.4,9.79-.1,2.35.5,6.13-1.05,8.1-4.87,6.2-9.02-3.35-9.24-7.2-.2-3.5-.42-7.17-.48-10.85Z"/><path class="cls-1" d="M218.62,80.09c0,3.59-.08,7.19.06,10.77.03.85.8,1.67,1.24,2.51.78-.56,1.86-.95,2.28-1.71,6.68-11.98,13.03-24.19,20.86-35.48,3.87-5.58,18.05-28.09,26.79-21.99,5.18,3.62,1.54,11.31.82,16.39-1.93,13.73-3.02,27.56-5.08,41.28-1.03,6.83-2.26,13.63-3.13,20.48-.75,5.94.59,12.45-1.63,18.04-1.85,4.65-5.56,9.88-10.17,4.49-3.93-4.59-1.64-11.9-.64-17.2,1.41-7.52,3.34-14.92,4.34-22.52,1.65-12.54,3.9-24.97,4.69-37.58.05-.77-.5-1.58-.77-2.38-.87.39-1.96.57-2.58,1.2-4.83,4.91-8.5,10.79-11.84,16.77-4.73,8.47-10.53,16.41-14.17,25.45-1.76,4.38-2.33,8.92-3.67,13.4-1.59,5.29-4.51,10.06-6.74,15.09-1.57,3.55-5.04,3.75-7.77,1.02-1.98-1.99-2.57-4.2-2.62-6.77-.14-6.71-.29-13.41-.41-20.12-.18-10.8.63-21.81-.87-32.54-.6-4.28-1.4-8.37-1.63-12.7-.13-2.41.27-7.78-2.91-6.69-1.84.63-4.86,6.48-6.25,8.09-2.65,3.09-5.46,6.04-7.9,9.31-12.84,17.14-21.17,35.55-24.35,56.7-.88,5.85-3.43,11.13-8.39,14.95-1.32,1.02-2.55,2.78-4.1,1.7-1.8-1.26-4.44-2.05-4.58-4.97-.13-2.73.1-5.31,1.74-7.68.81-1.17,1.32-2.62,1.68-4.01,4.93-18.93,12.97-35.96,24.22-52.13,2.76-3.97,4.94-8.34,7.66-12.35,2.62-3.86,5.46-7.6,8.47-11.17,3.51-4.17,7.18-8.24,11.04-12.08,1.71-1.71,3.95-3.05,6.18-4.03,2.33-1.03,6.97,2.33,7.11,4.86.49,8.81.41,17.69,1.59,26.41.78,5.74,1.44,11.43,1.43,17.2Z"/><path class="cls-1" d="M553.58,50.13c4.6,1.78,8.08-1.67,11.75-3.54,5.08-2.58,9.93-5.8,14.35-9.4,2.99-2.43,5.42-5.78,7.45-9.11,4.17-6.83-4.74-15.6-11.04-16.45-4.73-.64-9.38.64-13.92,1.81-4.08,1.05-8.25,1.41-12.32,2.41-1.51.37-3.04,1.1-4.27,2.05-1.56,1.2-1.56,2.69-.03,4.18,2.63,2.54,3.06,5.69,1.9,9.12-2.14,6.31-4.03,12.71-6.07,19.05-.67,2.09-1.5,4.14-2.25,6.21-1.66,4.57-1.86,9.6-3.64,14.28-1.97,5.16-4.48,10.13-6.02,15.45-1.19,4.09-2.84,8.45-3.44,12.67-.32,2.21.04,4.18-.69,6.3-1.16,3.37-3.14,6.36-4.09,9.82-1.09,3.97-3.8,6.67-6.18,9.64-2.23,2.78-5.09,2.32-7.14-.76-2.63-3.96-2.38-7.74-.5-12.11,4.1-9.59,8.36-19.12,11.97-28.91,3.69-10.02,5.97-20.26,8.69-30.56,1.28-4.84,2.93-9.58,4.6-14.3.38-1.07.33-1.39-.52-2.1-2.16-1.8-5.08-3.98-6.79-6.19s-1.4-4.92-1.42-7.49c-.06-5.93,5.8-8.09,10.22-10.45,3.11-1.66,6.18-3.41,9.38-4.86,4.41-2,8.89-3.86,13.42-5.59,1.5-.57,3.22-.65,4.85-.77,3.28-.25,6.57-.53,9.85-.51,8.68.07,16.42,3.04,22.52,9.11,4.64,4.62,6.85,16.34,4.59,22.36-2.62,6.97-8.94,13.91-14.62,18.62-3.12,2.58-6.72,3.94-10.06,6.13-2.64,1.73-5.43,3.42-8.7,3.1-.63-.06-2.02,1.2-2,1.8.12,2.86-.01,5.76.61,8.57.68,3.01,2.24,5.76,2.61,8.85.44,3.67,1.61,6.17,3.41,9.35,2.63,4.64,3.98,9.85,6.35,14.61,2.51,5.04,6.38,9.24,9.66,13.77,1.88,2.6,2.06,5.31,1.48,8.03-.71,3.34-6.76,4.33-9.43,1.64-2.26-2.28-4.36-4.7-6.52-7.08-.29-.32-.64-.73-.68-1.12-.3-2.8-2.26-4.55-3.71-6.75-3.3-5.01-5.68-10.59-8.24-16.06-2.37-5.07-2.22-10.41-3.85-15.32-1.85-5.57-2.49-11.85-6.55-16.53-1.5-1.73-3.69-2.73-4.64-5.15-1.19-3.05.32-6.82,3.59-7.44,1.89-.36,3.87-.25,6.07-.37Z"/><path class="cls-1" d="M416.09,104.78c.38-9.82,3.58-18.95,6.53-28.14.27-.85.66-1.71.73-2.58.49-5.76,2.93-10.76,5.82-15.63,1.57-2.64.87-5.33-1.02-8.12-.99-1.47-1.24-3.53-1.53-5.37-.34-2.15.73-3.33,2.71-4.5,3.39-2.01,5.73-5.74,9.47-7.17,2.16-.82,3.58-.27,5.69.22,3.12.71,6.06.43,9.22.3,7.87-.32,15.35-2.22,23.11-3.28,9.49-1.29,19.35-.77,28.91-1.05,1.33-.04,2.68.15,3.99.39,1.33.24,3.16-.26,3.25,2.1.08,2.2.08,4.26-2.49,5.12-.7.24-1.4.58-2.12.65-20.41,2.12-40.62,6.04-60.81,10.3-3.12.66-3.98,3.17-5.62,5.1-.17.2-.1.58-.17.87-.56,2.36-2.38,6.53.54,7.75,1.67.7,4.77-.15,6.43-.34,14.8-1.68,29.51-3.92,44.45-3.91,1.29,0,3.19-.07,3.73.68,1.02,1.4-.28,2.9-.89,4.44-1.11,2.76-3.21,3.23-5.59,3.72-4.31.89-8.56,2.14-12.91,2.76-4.27.61-8.8-.03-12.92,1.04-6.86,1.78-13.75,2.31-20.74,2.81-2.99.21-5.93,1.8-8.77,3.04-.68.3-.93,1.69-1.27,2.62-2.29,6.24-4.11,12.57-5.46,19.08-.79,3.77-1.81,9.03.13,12.62,2.82,5.23,11.37,2.06,15.53.7,5.99-1.97,12.21-3.08,18.28-4.72s11.64-4.45,17.68-6.04c4.64-1.22,8.02-4.06,11.22-7.35.55-.56,1.7-1.34,2.06-1.13.77.46,1.75,1.53,1.69,2.26-.19,2.18-.32,4.67-1.44,6.41-2.29,3.57-5.28,6.53-9.42,8.3-9.8,4.19-19.06,8.95-29.45,11.62-4.38,1.12-8.62,2.72-13.03,3.74s-7.71.66-12.12.15c-4.9-.57-8.36-3.08-11.32-7.06-1.52-2.04-1.7-4.04-2.01-6.15-.3-2.05-.07-4.17-.07-6.26Z"/><path class="cls-1" d="M74.72,15.72c2.71.04,5.05.67,6.45,2.29,5.99,6.96-10.31,10.4-13.95,11.35-8.38,2.19-13.85,6.62-20.61,11.66-5.35,3.98-12.29,7.73-16.14,13.38-4.13,6.05-1.77,14.01,4.24,17.73,7.48,4.63,16.99,9.08,25.45,11.23,4.15,1.05,7.67,3.17,11.44,5.08,3.3,1.67,7.28,2.57,9.86,5.42,8.13,8.98-7.07,22.67-14.47,26.24-3.69,1.78-8.42,4.97-12.45,4.89-4.47-.08-9.03-.76-13.62-.75-6.01.02-48.28-4.71-39.8-17.82,2.69-4.17,5.09-1.43,7.26.82,2.59,2.7,6.27,3.83,9.87,4.53,8.39,1.63,19.28,4.27,27.78,3.61,6.64-.51,17.34-4.15,22.19-8.93,1.97-1.94,4.9-5.72,2.48-8.11-1.93-1.91-8.44-3.08-11.09-3.86-7.8-2.29-15.8-6.14-23.15-9.63-6.71-3.19-12.67-8.31-16.53-14.7-9.65-15.98,8.12-27.17,18.72-35.57,6.5-5.15,11.69-11.64,19.53-14.92,3.43-1.44,10.8-4.02,16.54-3.94Z"/><path class="cls-1" d="M95.46,93.13c.54-10.13.79-20.9,1.79-31.6.58-6.17,2.36-12.22,3.64-18.32.44-2.1,2.03-2.95,3.97-2.91,11.87.19,5.76,10.38,4.84,17.3-.93,7.04-.94,14.24-3,21.09-2.23,7.4.29,12.62.69,20.03.24,4.42,7.28,5.3,10.78,1.52,8.13-8.78,16.31-17.55,23.41-27.2s12.47-19.92,18.12-30.22c1.55-2.82,2.64-5.89,4.11-8.76,1.67-3.27,3.53-6.44,5.3-9.66,1.9-3.45,7.72-3.31,7.83,1.04.09,3.28-3.8,6.18-4.98,9.03-3.34,8.04-5.95,16.25-10.12,23.94-2.82,5.2-5.08,10.74-8.31,15.66-3.97,6.06-7.34,12.54-13.13,17.41-4.19,3.52-7.45,8.15-11.02,12.38-4.44,5.26-10.4,8.19-16.57,10.64-3.15,1.25-6.44-.17-8.73-2.27-5.35-4.9-9.67-10.53-8.64-19.09Z"/></g></svg>