<?xml version="1.0" encoding="UTF-8"?><svg id="Layer_2" xmlns="http://www.w3.org/2000/svg" viewBox="0 0 604.57 203.25"><defs><style>.cls-1{fill:#fff;stroke-width:0px;}</style></defs><g id="Layer_1-2"><path class="cls-1" d="M435.02,89.55c-3.48-.12-7.05-.18-10.38.67-2.25.57-4.4,1.46-6.52,2.39-2.9,1.26-8.69,3.22-10.25,6.32-1.92,3.82-3.58,7.78-5.27,11.71-1.09,2.55-2,5.18-3.09,7.74-2.84,6.67-5.16,13.56-6.78,20.62-.5,2.2-1.03,4.4-1.03,6.67,0,1.12-.04,2.87,1.26,3.33,2.22.8,6.39-1.29,8.64-1.79,3.16-.7,6.23-1.25,9.14-3.11,2.9-1.86,6.41-2.87,9.77-3.9,8.85-2.71,16.45-7.86,24.23-12.53,4.15-2.49,5.76-7.71,9.71-10.26.84-.54,1.4-.19,2.02.47,1.16,1.24,4.11,4.92,3,6.84-3.49,6.02-8.13,10.96-14.23,14.46-2.89,1.66-5.71,3.43-8.61,5.07-3.16,1.78-6.28,3.67-9.58,5.13-5.73,2.54-11.48,5.11-17.42,7.07-3.64,1.2-7.62,1.47-11.49,1.79-3.26.27-6.58.08-9.86-.06-4.56-.19-7.56-2.6-7.57-6.98,0-5.74-.25-11.65,3.02-16.88.54-.86.78-1.93,1.1-2.92,1.54-4.76,2.89-9.59,4.64-14.27,1.52-4.09,3.59-7.98,5.2-12.05.93-2.34,1.81-4.81,2.03-7.28.14-1.57-.5-4.18-1.59-4.72-2.96-1.47-2.66-3.87-1.61-5.59.9-1.47,3.25-2.07,4.98-3.02.23-.13.6-.06.89,0,3.5.84,5.26-1.77,6.68-3.96,1.82-2.8,2.76-6.16,4.32-9.15,1.82-3.49,3.75-6.95,5.91-10.24,2.06-3.14,2.22-5.14-.05-7.56-2.94-3.14-1.64-8.2,2.6-8.69,4.65-.54,7.64-2.97,9.9-6.63,1.37-2.22,5.27-7.57,6.09-8.45,1.38-1.49,3.65-1.78,5.18-.69,2.27,1.63,2.73,4.21,1.44,6.72-1.14,2.2-2.12,4.49-2.98,6.82-.21.57-.28,1.73,1.35,1.43,4.37-.79,8.8-1.22,13.18-1.97,1.87-.32,3.64-1.16,5.49-1.64,1.28-.33,2.61-.51,3.92-.68,5.92-.73,11.93-1.03,17.73-2.28,5.78-1.25,11.2-4.8,17.06-5.46,3.04-.34,6.1-.6,9.15-.89s5.89-.54,8.84-.76c1.17-.09,2.34-.22,3.44-.66,1.22-.49,2.26-1.1,3.57-1.36,2.47-.49,5.03-.42,7.5-.99,1.23-.28,2.37-.78,3.37-1.56.79-.62,1.48-1.19,2.49-1.4,4.21-.87,6.83,3.49,7.18,7.05.1,1,.12,2.07-.38,2.97-.65,1.15-1.3,2.14-1.68,3.42-.73,2.48-.87,5.07-1.94,7.45-.39.86-1.29,2.09-1.08,3.07s1.56.59,1.94-.09c.19-.34.17-.87.26-1.26.12-.54.27-1.07.43-1.6,1.37-4.57,4.05-8.38,7.84-11.27,1.39-1.06,2.62-2.17,3.74-3.52s2.14-2.77,3.36-4.02c2.8-2.88,6.61-4.23,9.54-6.88,1.19-1.08,2.25-2.28,3.47-3.33,2.49-2.13,5.28-3.94,8.31-5.22s6.17-1.99,9.39-2.19c1.82-.11,3.65-.04,5.46.17,7.24.84,12.43,7.02,13.09,14.15.31,3.39-.38,6.82-.58,10.2-.08,1.35-.12,2.73-.64,4-1.24,3-2.42,5.73-3.52,8.84-.85,2.38-2.04,4.66-3.37,6.8-6.02,9.67-15.13,17.08-24.67,23.09-2.46,1.55-4.98,3.05-7.57,4.39-2.24,1.16-4.76,1.52-7.23,1.82-1.89.23-4.52.21-5.84,1.85-1.22,1.52-.26,3.46.7,4.83,3.59,5.1,9.06,9.5,13.22,14.21,2.43,2.74,4.91,5.44,7.38,8.14,2.24,2.45,4.62,4.82,6.7,7.41.99,1.23,1.73,2.58,2.53,3.93,1.37,2.3,3.07,4.38,4.45,6.67.85,1.4,1.37,2.86,2.03,4.34,1.1,2.47,5.66,5.59,4.44,8.67-.33.83-1.52,1.22-2.32,1.39-2.02.41-4.36-.05-5.99-1.33-3.1-2.43-5.83-6.43-8.46-9.38-2.22-2.5-3.94-5.3-5.78-8.07-1.74-2.63-3.93-4.74-5.97-7.12-2.95-3.45-5.31-6.88-8.64-9.97-1.1-1.02-2.07-2.2-3.05-3.33-3.91-4.47-7.78-8.95-11.58-13.51-.97-1.16-1.94-2.32-2.93-3.46-.82-.96-1.63-2.1-2.67-2.83-1.76-1.24-3.1,1.21-3.92,2.5-2.95,4.64-2.95,10.31-5.04,15.29-1.12,2.67-2.67,5.12-3.92,7.72s-2.3,5.3-3.22,8.03-1.6,5.53-2.56,8.25-1.8,5.46-2.56,8.24c-1.46,5.34-3.07,10.59-5.74,15.47-1.9,3.48-6.47,11.12-11.13,6.64-1.67-1.61-1.01-4.37-.86-6.42.2-2.72.48-5.44.94-8.14.73-4.26,1.84-8.59,3.91-12.41.84-1.55,1.63-3.03,2.21-4.71s1.05-3.39,1.56-5.09c2.74-9.18,6-18.22,9.16-27.26.94-2.68,1.97-5.34,2.77-8.07.37-1.28.7-2.57.95-3.88.28-1.49.3-3.02.55-4.51.46-2.66,1.95-5.06,2.55-7.7.69-3.04,1.1-6.17,1.61-9.24.08-.48.04-1.03.17-1.5s.56-.7.9-1.04c.82-.81,1.37-1.82,1.68-2.93.57-2.03.35-4.16.61-6.23.31-2.47,1.5-4.84,2.5-7.1.67-1.53,2.84-4.63,1.25-6.16-1.75-1.68-9.8,1.8-11.95,2.39-.7.19-1.4.8-2.04.72-4.38-.54-8.29,1.93-12.54,2.44-1.19.14-2.39.05-3.58.21-2.21.3-4.33,1.08-6.47,1.67-2.3.63-4.67.96-6.98,1.59s-4.42,1.34-6.59,2.12-4.31,1.67-6.5,2.38c-1.11.36-2.26.42-3.4.6-1.21.19-2.4.48-3.6.72-7.11,1.44-14.24,2.77-21.27,4.58-5.1,1.31-10.13,3.19-14.84,5.51-1.97.97-3.17,3.67-4.5,5.73-2.29,3.53-4.46,7.13-6.54,10.78-.48.84-.51,2.03-.42,3.03.03.36,1.2,1.05,1.55.9,6.22-2.73,12.81-1.89,18.93-.77,7.43,1.35,14.22-.93,21.3-1.49,2.13-.17,4.38.2,6.46-.39,1.97-.56,3.61-2.44,5.8-1.79,5.93,1.76-2.27,8.69-4.77,9.47-2.89.9-6.3,1.14-9.3,1.31-.91.05-1.85-.03-2.74.2s-1.63.88-2.44,1.36c-1.81,1.08-3.83,1.35-5.9,1.5-4.04.3-8.1.27-12.14.14ZM594.02,28.09c0-1.8.08-3.6-.04-5.39-.06-.86-.29-1.84-.79-2.51-2.34-3.17-10.02-3.67-12.97-1.06-2.04,1.81-4.28,3.4-6.43,5.09-3.44,2.7-6.92,5.35-10.3,8.13-5.42,4.46-11.83,10.01-15.04,16.34-1.07,2.11-1.65,4.52-3.38,6.24-.85.84-1.83,1.13-2.81,1.74-2.1,1.31-.22,2.11-.18,3.73.04,1.48-.61,2.62-1.36,3.86-.93,1.56-.87,3.75-1.07,5.67-.06.62.3,1.74.72,1.87,6.01,1.93,10.5,1.09,16.51-.65,4.03-1.17,7.48-3.92,10.97-6.16,1.67-1.07,3.31-2.24,5.02-3.24,1.59-.93,3.38-1.23,5.03-2.02,10.31-4.96,16.11-20.97,16.11-31.64Z"/><path class="cls-1" d="M0,150.27c.67-7.72,1.54-15.25,1.92-22.8.55-10.91.73-21.83,1.09-32.75.22-6.72.62-13.45.71-20.17.08-6.12.02-12.25-.33-18.36-.11-1.96-1.12-3.99-2.11-5.77-2.18-3.92-.63-7.14,3.76-7.43,4.22-.28,6.75,1.64,8.03,5.73.61,1.93,2.2,3.65,2.46,5.58.41,3.14.8,6.6-.13,9.49-.92,2.86-1.74,5.53-1.8,8.57-.16,7.78-.01,15.63-1.04,23.31-2.9,21.75-2.17,43.59-2.4,65.41-.05,4.91.46,9.82.75,14.73.04.73.16,1.52.5,2.14.65,1.16,2.44,1.12,2.84-.13,1.85-5.86,6.01-10.66,6.92-17.07.62-4.4,3.18-8.51,4.8-12.78,2.21-5.79,4.24-11.66,6.55-17.4,2.8-6.95,5.75-13.84,8.75-20.7,2.83-6.48,5.62-13,8.8-19.31,2.83-5.64,6.17-11.01,9.26-16.52,1.3-2.32,2.65-4.63,3.77-7.04,2.65-5.74,5.33-11.48,7.69-17.34,1.93-4.81,6.47-5.23,9.97-4.35,1.53.39,2.13,1.65,1.8,3.15-.39,1.74-.9,3.47-1.46,5.16-2.49,7.5-3.95,15.14-3.68,23.11.16,4.86-.07,9.63-1.16,14.56-1.12,5.03-1.2,10.63.82,15.89.89,2.33,1.03,4.97,1.36,7.49.7,5.22,2.75,22.85,5.65,27.21.86,1.3.92,3.11,1.42,4.67.76,2.36,2.63,2.9,4.32,1.06,2.74-2.98,5.52-5.79,6.22-10.27.81-5.1,3.7-22.49,6.46-26.88,1.94-3.08,3.79-6.25,4.79-9.97,1.13-4.22,3.33-8.14,5.1-12.19.41-.94,1.07-1.78,1.4-2.74,2.74-7.97,5.33-15.98,8.15-23.92,1.73-4.86,3.82-9.6,5.66-14.42.53-1.38.64-2.92,1.13-4.32.63-1.77,1.51-3.46,2.17-5.22.47-1.25.91-2.55,1.08-3.86.42-3.25,1.17-6.25,2.63-9.33,1.41-2.96,1.4-6.69,1.61-10.11.37-5.99,3.76-10.07,8.06-13.63,1.92-1.6,7.44-.48,8.4,1.68.15.34-.52,1.28-1.03,1.66-2.58,1.91-3.8,3.45-4.13,6.61-.64,6.12-2.41,11.88-4.44,17.67-2.08,5.94-2.93,12.21-4.79,18.21-.82,2.64-1.88,5.2-2.92,7.75-.94,2.3-2.24,4.62-2.79,7.04-.61,2.67-1.39,5.37-2.6,7.84-.94,1.9-2.49,3.41-3.54,5.24-1.15,2-.81,4.33-1.6,6.48-.98,2.64-2.26,5.02-2.76,7.82-.74,4.17-2.98,7.62-4.65,11.43-.61,1.38-.92,2.85-1.48,4.24-3.8,9.42-2.67,21.02-7.53,29.96-1.75,3.22-3.35,6.58-4.48,10.05-1.75,5.35-5.02,9.68-8.68,13.69-2.8,3.07-6.79,3.3-10.38,1.84-4.91-1.99-8.35-5.66-9.95-10.9-1.72-5.65-3.59-11.26-5.37-16.89-.39-1.25-.85-15.53-.98-16.82-1.12-11.16-2.36-22.32-1.27-33.57.07-.74-.48-1.55-.74-2.33-.76.56-1.8.97-2.22,1.72-1.37,2.42-2.52,4.96-3.75,7.46-1.62,3.28-3.28,6.54-4.87,9.84-1.77,3.68-3.71,7.3-5.15,11.11-2.09,5.55-4.4,10.96-7.46,16.05-.22.37-.4.84-.41,1.27-.11,5.31-2.99,9.8-4.43,14.71-1.45,4.94-3.58,9.68-5.4,14.51-.47,1.25-.98,2.5-1.33,3.79-1.17,4.27-2.11,8.61-3.45,12.82-1.84,5.81-3.47,11.64-4.78,17.61-.89,4.04-3.57,7.72-6.71,10.71-3.75,3.57-8.04,2.76-10.31-2.02-1.38-2.92-2.38-5.94-2.94-9.25-1.3-7.72-1.58-15.44-1.77-23.22-.14-5.46-1-10.91-1.54-16.27Z"/><path class="cls-1" d="M213.37,82.03c.04-2.16.58-4.36.8-6.51.09-.85.01-1.99-1.13-1.4-1.34.69-2.35,2.91-3.02,4.23-2.86,5.64-5.65,11.32-8.39,17.02-1.97,4.1-3.97,8.2-5.65,12.42-.86,2.18-.94,4.66-1.56,6.95-.53,1.96-1.32,3.85-2.05,5.75-.26.69-.86,1.3-.97,2-1.23,7.58-4.32,14.71-4.94,22.48-.33,4.18-2.04,8.26-3.16,12.37-.15.57-.38,1.3-.81,1.58-3.92,2.54-2.39,2.1-7.45,1.38-2.47-.35-2.83-6.97-2.33-7.81.82-1.35.91-3.12.97-4.66.07-1.77-.02-3.55.08-5.32.12-2.19.84-4.29,1.51-6.37,1.17-3.67,1.86-7.92,3.61-11.36.58-1.14,1.42-2.1,2.1-3.18,1.43-2.23,1.89-4.78,2.65-7.28,1.65-5.46,4.05-10.64,6.16-15.93s4.14-10.92,6.85-16.13c4.12-7.92,8.3-15.84,12.62-23.65,1.62-2.93,3.28-5.89,5.34-8.52,1.5-1.92,1.87-4.49,4.47-5.9,2-1.08,3.46-1.51,5.2-.28,1.7,1.2,3.81,1.83,3.22,5.06-.97,5.26-.42,10.85-1.73,15.99-1.13,4.46-1.21,9.06-1.2,13.63,0,4.06-.96,9.19.32,13.1.35,1.07.93,2.05,1.29,3.12.69,2.1.76,4.35.86,6.53.22,4.75,1.12,9.34,2.66,13.83s3.55,8.67,5.47,12.93c1.47,3.26,7.14,14.04,11.42,14.05,1.57,0,3-1.38,3.84-2.58s1.28-2.62,1.69-4.02c.46-1.58,1.02-3.11,1.55-4.66,1.11-3.24,2.01-6.56,3.35-9.71.65-1.53,1.73-3,2.18-4.6.5-1.8.53-3.76.95-5.6,1.58-6.9,5.19-12.76,8.12-19.11s5.03-13.16,6.81-20.04c1.01-3.91,2.81-7.67,4.31-11.41.73-1.83,1.05-3.61,1.53-5.5.95-3.74,3.17-6.95,5.2-10.16,1.56-2.46,3.5-4.81,4.45-7.49.97-2.72,4.38-9.46,7.73-9.6,1.36-.06,3.09.22,3.86,1.48.53.87.53,2.58.43,3.58-.2,1.92-4.7,9.74-5.49,11.46-1.09,2.37-2.85,4.35-3.98,6.7-1.89,3.91-3.22,8.15-4.65,12.24-1.45,4.16-2.87,8.32-4.16,12.53-.76,2.49-1.22,5.05-1.88,7.57-1.04,4-4.19,6.93-4.38,8-.21,1.19-.35,2.38-.66,3.55-1.2,4.6-3.56,8.78-5.16,13.24-.4,1.12-.81,2.27-1.14,3.41s-.37,2.43-.58,3.62c-1.02,6.02-2.93,11.84-4.81,17.64-1.26,3.89-2.06,8.16-5,11.56-1.76,2.04-2.65,4.73-4.82,6.7-3.41,3.1-10.14,4.03-13.71,1.06-3.35-2.78-7.01-5.46-9.54-8.91-3.5-4.77-7.88-9.1-9.25-15.31-.84-3.82-3.17-7.33-4.13-11.24-.61-2.47-1.26-4.93-1.79-7.42s-.92-4.81-1.07-7.25-.6-4.64-1.33-7c-.62-1.99-1.03-3.97-1.22-6.04-.21-2.23-.5-4.57-.47-6.81,0-.01,0-.03,0-.04Z"/><path class="cls-1" d="M332.59,55.96s-10.82.18-11.5.19c-2.63.04-5.05-.91-6.97-2.73-1.31-1.24-3.53-4.29-2.58-6.27.38-.78,1.31-1,2.09-1.15,1.67-.31,3.39-.28,5.06-.51,5-.7,10.04-1.15,15.06-1.64,5.34-.52,10.71-1.37,16.07-1.6,3.66-.16,7.42,0,11.03-.67,1.51-.28,2.8-.85,4.14-1.58,3.99-2.18,9.42-1.45,13.79-1.71,3.95-.24,7.82-.87,11.72-1.46,3.6-.54,7.36-1.1,10.96-.3,1.82.41,3.65,1.07,5.36,1.81,1.99.86,4.48,3.55,2.5,5.79-.71.81-1.9.74-2.89.7-3.72-.13-7.38.14-11.07.67-4.06.59-8.1,1.33-12.16,1.89s-8.2,1.15-12.26,1.97c-3.53.71-7.14,1.52-10.47,2.91-5.68,2.37-8.1,7.08-10.07,12.59-1.34,3.74-2.51,7.56-3.41,11.43-.88,3.77-1.14,7.65-1.82,11.45-.5,2.82-1.2,5.6-1.84,8.38-1.37,5.91-2.02,11.94-3.27,17.87-.61,2.89-1.01,5.81-1.53,8.72-.55,3.06-1.39,6.05-2.25,9.03-.76,2.63-1.47,5.21-2.6,7.71-1.41,3.13-1.38,6.73-2.56,9.97-1.36,3.75-3.48,7.22-3.94,11.25-.26,2.3-1.47,3.8-3.27,4.19-2.09.45-4.64.55-6.51-.28-2.11-.93-1.37-3.69-.73-5.3,2.01-5.05,3.67-10.15,5.04-15.43.95-3.66,1.78-7.28,2.58-10.98.35-1.6.84-3.19,1.61-4.65.68-1.26,1.31-2.27,1.53-3.71.47-3.04.5-6.09,1.1-9.12.84-4.23,2.09-8.37,3.02-12.58.29-1.31.45-2.65.69-3.97,1.12-6.12,2.2-12.25,3.39-18.36.93-4.81,1.93-9.6,3.04-14.38.49-2.13,1.23-4.21,2.01-6.25,1.13-2.97.15-4.39-3.14-4.28-.9.03-1.79.09-2.69.15-.75.05-1.49.12-2.24.18,0,.01,0,.02,0,.04Z"/><path class="cls-1" d="M136.49,148.29c0-.09-.01-.19-.02-.29-.03-1.06.2-2.15.29-3.2.37-4.27.67-8.5,2.34-12.51.71-1.72,1.09-3.23,1.31-5.08.29-2.42.84-4.79,1.38-7.17.99-4.39,1.97-8.8,3.31-13.09,1.25-4.02,2.95-7.95,3.69-12.11.19-1.04.17-2.13.4-3.16.2-.9.65-1.2,1.25-1.84,1.23-1.32,1.27-3,1.59-4.69.38-2.05,1.08-4.05,1.67-6.05.62-2.12,1.13-4.27,1.66-6.42,1.11-4.5,2.27-9,3.38-13.5,1.01-4.05,2.46-7.62,5.38-10.71,1.11-1.17,2.21-2.13,3.85-2.34s3.45.28,4.91,1.1,2.8,2.02,2.78,3.73-1.05,3.2-1.9,4.52c-.99,1.55-2.18,3.03-2.75,4.8-.68,2.13-.51,4.42-.42,6.62.08,2.03-.03,4.12-1.13,5.9-.96,1.55-2.73,2.19-3.05,4.1-.7,4.22-2.72,7.8-4.02,11.84s-1.62,8.35-3.75,12.08c-.97,1.69-2.77,2.88-3.16,4.86s.04,4.07-.09,6.06c-.16,2.37-.53,4.73-1.27,6.99-.35,1.06-.86,2.06-1.2,3.12-.31.98-.41,2-.58,3.01-.82,4.86-2.41,9.55-3.54,14.34-.56,2.38-1,4.79-1.18,7.23-.21,2.91-.03,5.88-2.02,8.24-1.85,2.2-5.08,3.37-7.03.63-.95-1.33-1.19-3.12-1.59-4.67-.2-.77-.43-1.55-.5-2.34Z"/></g></svg>