<?xml version="1.0" encoding="UTF-8"?><svg id="Layer_2" xmlns="http://www.w3.org/2000/svg" viewBox="0 0 1036.71 281.26"><defs><style>.cls-1{fill:#fff;stroke-width:0px;}</style></defs><g id="Layer_1-2"><g id="FZ5ss6"><path class="cls-1" d="M690.94,7.83c16.5-5.37,32.06-6.81,48.57-7.53,25.54-1.11,49.98,6.5,75.51,4.59,14.58-1.09,29.73,4.1,44.51,7.01,29.88,5.88,59.54,12.55,88.89,20.85,15.92,4.5,27.65,14.04,40.07,23.74,14.67,11.45,27.13,25.26,41.69,36.75,1.46,1.16,3.28,1.68,3.78,4.28,4,20.63,3.4,41.27-.29,61.77-1.55,8.63-7.18,16.65-14.52,20.28-12.63,6.25-22.03,17.99-36.5,20.72-4.05.76-2.22,5.34-5.6,7.09-16.42,8.51-33.74,14.27-51.49,19.36-24.58,7.06-49.99,8.7-75.01,12.76-26.16,4.24-52.72,6.03-78.94,9.94-18.95,2.82-38.13,2.99-57.06,6.43-11.46,2.08-23.59.69-35.42.67-20.58-.03-41.3.55-61.69,1.35-33.85,1.33-68.05.59-101.85,7.16-11.6,2.26-24.92.79-37.36,1.54-26.34,1.6-52.63,4.11-78.87,6.87-6.47.68-12.08-1.74-18.13-2.4-10.88-1.18-20.13,4.81-31.17,4.64-29.46-.47-59.11.4-88.43,3.3-35.54,3.51-71.03.61-106.5,2.09-21.36.9-42.82-1.81-63.25-5.97-23.41-4.77-43.99-18.33-61.56-35.45C13.14,222.92.06,204.58,0,179.36c-.04-18.69,7.04-35.63,13.6-52.37,7.44-19.01,21.71-33.79,36.35-47.93,5.09-4.92,10.67-8.91,17.17-11.57,29.73-12.18,59.94-23.29,89.09-36.71,20.4-9.39,41.79-15.65,63.41-15.92,21.59-.26,42.43-4.61,63.71-5.9,21.44-1.3,42.75-2.83,64.33-3.09,35.8-.43,71.23,6.48,107.03,3.33,23.12-2.04,45.17,7.17,67.92,7.52,15.64.24,31.66,1.97,47.17-2.3,1.81-.5,3.14-2.83,5.46-1.61,16.53,8.68,34.13.86,51.29,3.09,20.41,2.65,40.39-2.87,58.38-13.87,5.74-3.51,6.11-3.01,6.02,5.8ZM107.98,156.15c-7.07-6.36,1.86-13.62-1.38-20.78-2.97-6.58,3.31-11.95,8.39-12.24,5.61-.31,8.48,4.41,8.36,11.84-.22,14-4.27,28.28-.17,41.93,1.98,6.62,3.14,13.09,1.23,18.98-3.52,10.85.06,20.25,2.82,32.62,2.59-4.53,4.27-6.74,5.19-9.22,3.24-8.75,3.54-18.27,7.71-26.86,14.66-30.19,28.99-60.55,43.46-90.83,1.6-3.36,3.2-7.04,7.91-6.27,5.34.87,6.49,6.01,5.99,9.45-2.17,14.74-.05,29.21,1.89,43.63,2.1,15.54,1.12,31.78,9.33,46.15,2.21,3.86,3.52,9.43,8.86,8.93,4.58-.43,5.16-5.78,6.32-9.57,2.63-8.54,5.16-17.12,7.43-25.76,5.52-21.07,6.37-42.88,10.05-64.22,1.53-8.86,1.19-17.87,4.05-26.89,1.61-5.09-.77-12.63,1.95-19.03,2.46-5.79,6.48-8.36,12.6-6.94,7.48,1.73,5.84,7.83,5.65,12.94-.17,4.56-3.93,7.69-5.09,12.21-5.85,22.85-5.87,46.45-8.42,69.58-2.6,23.54-12.62,44.13-19.08,66.04-3.1,10.52-13.84,12.15-23.74,6.05-11.22-6.91-16.88-18.19-19.56-30.06-3.35-14.86-4.28-30.26-6.3-45.82-12.31,10.42-13.58,25.63-19.96,38.27-11.19,22.13-20.52,44.7-24.01,69.44-1.6,11.33-.42,13.93,10.33,11.35,10.01-2.4,19.47-2.29,28.97.52,8.95,2.64,17.58,2.29,26.5,0,5.01-1.28,10.17-.98,15.53-.57,15.32,1.17,30.55,5.12,46.3.9,5.23-1.4,10.93-3.97,16.27-3.58,32.7,2.42,64.94-2.85,97.38-4.84,9.35-.57,18.93,1.24,28.13-.02,23.05-3.15,46.43-4.99,69.4-5.65,24.48-.7,48.76-5.21,73.32-3.73,3.52.21,7.13-1.6,10.74-2.28,2.91-.55,4.54-2.08,3.96-5-3.3-16.49,1.34-32.73,1.33-49.1,0-4.31.24-8.97-5.05-12.64-5.61-3.89-8.63-10.72.92-14.74,7.28-3.06,6.68-9.96,7.76-15.43,1.1-5.59,3.69-11.18,3.87-16.32.4-11.01,12.82-19.82,5.21-31.98-3.52.04-4.12,5.41-8.9,4.87-3.86-.43-8.86,2.47-9.2-3.98-.27-5.03,1.37-10.09,8.15-9.79,12.23.53,23.36-2.02,32.75-10.32,3.44-3.04,8.88-3.68,11.58-1.62,10.35,7.91,20.89,4.07,31.6,2.28,11.25-1.88,22.49-4.15,33.83-5.02,8.79-.67,15.1,7.69,10.92,14.03-5.02,7.61-15.09,23.77-20.65,17.62l-.03-.04c-1.67-1.98.65-4.81,1.42-7.06,1.07-3.13,7.37-4.74,4.04-8.8-2.66-3.24-6.9-.29-10.31.84-17.87,5.9-35.69,11.67-55.01,10.45-4.38-.28-10.05,1.86-10.87,6.56-2,11.45-8.93,21.68-8.16,33.71.2,3.1-.85,6.98,3.61,8.05,8.88,2.14,17.03,6.75,26.92,5.43,16.7-2.24,48.39-9.57,51.45-1.72,7.96,10.68-8.15,12.41-14.69,13.69-20.27,3.97-40.82,6.21-61.39,7.16-9.51.44-13.01,1.95-13.95,12.57-.89,10.12,3.81,19.6,1.7,28.96-1.85,8.22,1.69,15.3,1.58,22.97-.03,2.32,1.61,4.43,3.83,3.31,7.55-3.83,14.44,1.1,21.7,1.1,29.07,0,58.12-2.23,87.13-2,22.12.18,43.55-6.34,65.42-4.78,12.37.88,21.97-6.94,34.34-6.77,16.34.22,32.78-2.81,49.03-6.85,18.48-4.59,37.65-7.67,56.66-8.62,25.72-1.28,46.62-14.96,69.42-23.58,9.58-3.62,17.17-11.88,26.9-16.51,8.81-4.19,18.05-10.98,17.8-21.67-.21-9.29-2.47-19.29-.24-27.88,4.84-18.57-7.91-26.6-18.79-35.75-4.29-3.61-9.37-6.47-13.48-10.47-2.23-2.17-6.93-2.33-6.67-6.4.35-5.37,7.36,2.63,8.1-4.65-12-6.96-24.39-14.14-37.05-21.48-1.11,3.79,3.9,5.03,1.48,7.46-2.25,2.27-5.59,1.66-7.93-.2-13.29-10.56-30.06-9.24-45.27-13.05-28.6-7.16-58.43-7.73-87.01-15.13-7.74-2-14.96-2.67-22.9-.51-5.35,1.46-11.66,1.52-17.09.27-30.14-6.91-59.5-2.99-89.14,3.72-21.38,4.84-42.89,10.07-65.27,9.11-35.93-1.53-71.61-6.88-107.79-5.39-16.37.68-33.17,1.03-49.52-4.08-6.31-1.97-14.17-2.65-20.55-1.63-32.32,5.15-64.22-2.98-96.45-1.95-16.57.53-33.08,1.73-49.62,2.27-15.63.51-30.69,3.97-46.05,5.72-26.18,3-53.12,1.85-77.48,14.37-14.41,7.41-31.39,9.29-44.29,19.54-5.48,4.36-11.35,6.53-17.69,7.62-33.19,5.69-56.68,24.3-73.67,52.53-7.79,12.95-11.91,27.27-15.82,41.35-4.14,14.92-1.28,29.49,8.19,43.4,13.05,19.19,30.44,32.14,51.1,41.15,9.52,4.15,18.87,10.42,30.38,8.02,3.18-.66,7.04.13,5.54-5.29-4.4-15.84-3.17-32.25-4.49-48.38-1.33-16.37-1.29-49.61-1.48-49.26Z"/><path class="cls-1" d="M830.68,180.1c-12.32-9.51-29.08-7.69-41.56-17.22-19.34-14.75-19.92-27.07-1.86-43.52,7.33-6.68,16.27-10.7,25.21-13.94,17.12-6.21,34.24-13.18,53-12.94,3.75.05,9.05-1.61,9.31,4.8.21,5.37-4.44,6.18-8.35,7.27-16.62,4.63-33.84,7.41-49.46,15.1-7.64,3.76-15.09,8.11-20.97,14.47-7.9,8.55-6.61,12.88,4.58,16.65,15.02,5.07,30.04,10.17,44.95,15.55,3.38,1.22,6.81,3.1,9.36,5.56,4.12,3.98,4.89,9.72-.47,12.47-19.54,10.02-37.38,23.79-60.47,26.32-5.93.65-10.08.49-11.74-4.88-2.11-6.8,4.57-4.95,7.79-6.26,14.23-5.78,29.53-9.38,40.69-19.44Z"/><path class="cls-1" d="M290.56,185.29c4.73-12.67,5.75-29.95,16.73-43.99,3.78-4.83,6.35-10.58,5.77-17.48-.87-10.24,2.78-13.58,13-11.43,6.48,1.36,12.82,2.25,19.39,2.17,1.57-.02,4.24.19,4.55,1.01,4.97,12.73,18.54,20.03,21.6,33.88.26,1.18.26,2.43.21,3.65-1.14,25.05-25.02,57.62-48.35,65.98-16.92,6.06-33.32-9.06-32.91-33.78ZM329.62,136.68c-2.53,3.18-5.7-3.46-7.76,2.78-4.44,13.49-11.2,26.26-15.34,39.82-2.05,6.71-2.79,15.66,3.28,21.09,6.86,6.13,14.38,1.06,20.25-2.94,6.34-4.32,12.14-9.85,17.01-15.8,8.67-10.57,6.74-33.01-1.73-42.98-5.79-6.81-11.5,5.76-15.71-1.98Z"/><path class="cls-1" d="M438.85,200.4c18.37-.13,32.67-9.16,47.98-15.05,6.09-2.34,12.04-5.01,18.13-7.35,2.51-.97,5.57-3.36,7.75-.09,2.28,3.41-.38,6.33-2.74,8.42-10.07,8.94-21.37,16.41-33.62,21.74-17.03,7.41-34.2,15.57-53.84,7.08-10.65-4.61-15.77-11.64-12.81-23.24,4.17-16.36,4.94-33.34,11.35-49.39,6.14-15.37,6.7-32.17,6.82-48.73.03-3.59,12.49-14.01,16.12-13.31,4.86.94,7.63,4.63,5.42,8.87-9.66,18.54-8.35,39.38-13.06,58.93-2.5,10.36-6.19,20.1-10,29.97-6.04,15.65-3.85,24.52,12.5,22.16Z"/><path class="cls-1" d="M729.09,131.16c-4.1-3.02-7.77-6.44-5.25-12.67,4.36-10.78,8.36-21.75,13.4-32.22,4.97-10.32,11.71-19.83,16.36-30.27,2.61-5.87,6.37-5.94,10.66-4.65,4.99,1.51,5.28,5.51,3.25,9.89-2.54,5.47-4,11.71-7.6,16.34-8.9,11.45-12.06,24.94-15.7,38.33-2.08,7.65-7.23,18.18-15.12,15.24Z"/></g></g></svg>